<?xml version="1.0" standalone="no"?>
<!DOCTYPE svg PUBLIC "-//W3C//DTD SVG 1.1//EN" "http://www.w3.org/Graphics/SVG/1.1/DTD/svg11.dtd" >
<svg xmlns="http://www.w3.org/2000/svg" xmlns:xlink="http://www.w3.org/1999/xlink" version="1.1">
<metadata></metadata>
<defs>
<font id="hk_groteskbold" horiz-adv-x="1188" >
<font-face units-per-em="2048" ascent="1434" descent="-614" />
<missing-glyph horiz-adv-x="492" />
<glyph unicode="&#xfb01;" horiz-adv-x="1108" d="M20 795v204h156q0 199 105 317t323 118q94 0 159 -20.5t91 -38t84 -64.5l-129 -187q-26 26 -50.5 44t-63.5 31t-93 13q-100 0 -142 -53t-42 -160h551v-999h-236v795h-315v-795h-242v795h-156z" />
<glyph unicode="&#xfb02;" horiz-adv-x="1139" d="M20 795v204h156v93q0 100 52 177.5t145.5 121t214.5 43.5q202 0 381 -158v-969q0 -51 10.5 -74t26 -28.5t43.5 -5.5q20 0 47 6v-205q-94 -20 -164 -20q-84 0 -141.5 48.5t-57.5 170.5v970q-41 26 -79 38t-81 12q-69 0 -112 -37t-43 -97v-86h162v-204h-162v-795h-242v795 h-156z" />
<glyph horiz-adv-x="0" />
<glyph horiz-adv-x="682" />
<glyph unicode=" "  horiz-adv-x="492" />
<glyph unicode="&#x09;" horiz-adv-x="492" />
<glyph unicode="&#xa0;" horiz-adv-x="492" />
<glyph unicode="!" horiz-adv-x="635" d="M184 0v264h267v-264h-267zM197 1434h241l-28 -1006h-185z" />
<glyph unicode="&#x22;" horiz-adv-x="958" d="M203 866v547h205v-547h-205zM551 866v547h205v-547h-205z" />
<glyph unicode="#" horiz-adv-x="1382" d="M78 414v172h270l53 262h-241v180h278l94 406h193l-96 -437h250l92 437h192l-94 -414h234v-172h-271l-53 -262h242v-180h-279l-92 -406h-191l93 436h-250l-90 -436h-191l90 414h-233zM539 586h249l54 262h-250z" />
<glyph unicode="$" horiz-adv-x="1130" d="M45 385l246 53q13 -111 93 -169t200 -58q235 0 235 192q0 55 -36 95t-89.5 68t-148.5 67q-129 52 -210 98t-138.5 125.5t-57.5 198.5q0 97 43.5 174.5t117.5 128t165 69.5v232h201v-227q230 -37 338 -232l-205 -121q-36 67 -96 101t-132 34q-50 0 -91 -19t-65 -53 t-24 -77q0 -50 34 -86.5t85 -62.5t142 -62q131 -53 215 -100.5t144 -131.5t60 -212q0 -117 -53.5 -209t-145.5 -148t-206 -69v-230h-201v234q-105 19 -194 70t-148.5 134t-77.5 193z" />
<glyph unicode="%" horiz-adv-x="1540" d="M76 1102q0 75 26.5 151.5t88.5 129.5t163 53q93 0 157 -50t95 -127t31 -159q0 -81 -30.5 -157.5t-93 -125.5t-153.5 -49q-103 0 -166.5 53t-90.5 129.5t-27 151.5zM252 1102q0 -69 28 -115.5t76 -46.5q45 0 73 47.5t28 114.5q0 68 -28 114t-75 46t-74.5 -45.5 t-27.5 -114.5zM262 -20l791 1474h211l-791 -1474h-211zM903 328q0 76 26.5 154t89 132t163.5 54q93 0 157 -50.5t94.5 -128.5t30.5 -161q0 -82 -30.5 -159.5t-92.5 -128t-153 -50.5q-102 0 -166 54t-91.5 131.5t-27.5 152.5zM1079 328q0 -71 28.5 -118.5t78.5 -47.5 q43 0 70.5 49.5t27.5 118.5q0 70 -28 117t-74 47q-47 0 -75 -47.5t-28 -118.5z" />
<glyph unicode="&#x26;" horiz-adv-x="1382" d="M80 330q0 101 44.5 180t114.5 138t168 117q-167 167 -167 333q0 99 56 174.5t146.5 116.5t188.5 41q101 0 187.5 -44t137 -119.5t50.5 -166.5q0 -118 -67.5 -206.5t-187.5 -169.5l200 -224q34 96 34 196l238 -24q-5 -97 -32 -188t-74 -170l210 -236l-172 -154l-186 213 q-88 -77 -196.5 -118.5t-229.5 -41.5q-131 0 -236 41.5t-166 121t-61 190.5zM315 326q0 -69 60 -105.5t162 -36.5q85 0 158 30.5t131 86.5l-267 305q-78 -48 -129.5 -88.5t-83 -88.5t-31.5 -103zM475 1094q0 -83 119 -221q90 54 138 106.5t48 116.5q0 60 -39 101.5 t-108 41.5q-66 0 -112 -38.5t-46 -106.5z" />
<glyph unicode="'" horiz-adv-x="610" d="M203 895v547h205v-547h-205z" />
<glyph unicode="(" horiz-adv-x="573" d="M100 707q0 281 65 491t177 336h219q-138 -169 -203 -375t-65 -457q0 -184 28.5 -325.5t86 -260t151.5 -241.5h-213q-74 77 -130 214t-86 300t-30 318z" />
<glyph unicode=")" horiz-adv-x="573" d="M12 1534h219q113 -125 177.5 -335t64.5 -492q0 -155 -30 -318t-86 -300t-130 -214h-213q94 123 152 241.5t86.5 260t28.5 325.5q0 251 -65.5 457t-203.5 375z" />
<glyph unicode="*" horiz-adv-x="901" d="M113 1126l61 168l209 -82l-29 201h195l-29 -201l209 82l59 -168l-227 -30l158 -160l-158 -102l-110 208l-111 -208l-158 102l158 160z" />
<glyph unicode="+" horiz-adv-x="1253" d="M78 532v185h457v426h184v-426h457v-185h-457v-426h-184v426h-457z" />
<glyph unicode="," horiz-adv-x="633" d="M119 -303l135 567h281l-254 -567h-162z" />
<glyph unicode="-" horiz-adv-x="866" d="M141 508v184h584v-184h-584z" />
<glyph unicode="." horiz-adv-x="647" d="M201 0v264h245v-264h-245z" />
<glyph unicode="/" horiz-adv-x="934" d="M-37 -430l780 1946h228l-781 -1946h-227z" />
<glyph unicode="0" d="M31 707q0 170 54.5 336.5t179.5 279.5t325 113q185 0 314 -105.5t193 -273t64 -352.5q0 -184 -62.5 -350t-188.5 -270.5t-306 -104.5q-204 0 -332.5 113t-184.5 279t-56 335zM281 707q0 -122 33 -233.5t104.5 -183t179.5 -71.5q101 0 169 73t100 185t32 232 q0 122 -32.5 232t-102.5 180.5t-174 70.5t-174 -71t-102.5 -181.5t-32.5 -232.5z" />
<glyph unicode="1" d="M182 1030v193h232q72 0 111.5 39t39.5 112v39h240v-1413h-250v1030h-373z" />
<glyph unicode="2" d="M47 0v201q3 2 82.5 51t211 148.5t228.5 195.5q107 105 166.5 203.5t59.5 199.5q0 91 -50 148t-149 57q-126 0 -183.5 -88.5t-62.5 -216.5l-248 16q0 134 59.5 253t171.5 191.5t261 72.5q128 0 232 -54t163.5 -149.5t59.5 -214.5q0 -268 -324 -580q-68 -65 -136.5 -118 t-123.5 -87h653v-229h-1071z" />
<glyph unicode="3" d="M51 446l242 15q0 -77 37 -133t102 -85.5t148 -29.5q75 0 138.5 25t101.5 75.5t38 122.5q0 96 -65 151.5t-179 55.5h-163v213h163q83 0 124.5 45t41.5 117q0 87 -57 133.5t-148 46.5q-97 0 -156.5 -54t-60.5 -147l-239 17q0 129 61 224t164.5 145.5t226.5 50.5 q120 0 223.5 -47t166.5 -134.5t63 -203.5q0 -83 -32.5 -156t-90.5 -125q99 -55 147.5 -144.5t51.5 -201.5q0 -143 -71.5 -242.5t-190.5 -149.5t-260 -50q-146 0 -265.5 52.5t-190.5 157.5t-71 256z" />
<glyph unicode="4" d="M8 332v147l690 934h213v-850h226v-231h-226v-332h-249v332h-654zM334 563h328v461z" />
<glyph unicode="5" d="M76 410l235 65q24 -113 90.5 -189.5t184.5 -76.5q74 0 133.5 39t93 102.5t33.5 132.5q0 71 -31 130.5t-90 94.5t-139 35q-70 0 -136 -35.5t-104 -95.5l-229 58l137 743h786v-233h-585l-52 -265q57 30 110.5 43t109.5 13q130 0 240.5 -66.5t175.5 -179t65 -244.5 t-70.5 -247.5t-190 -184.5t-257.5 -69q-124 0 -231.5 57t-180 155.5t-98.5 217.5z" />
<glyph unicode="6" d="M82 467q0 138 76 250l424 696h290l-305 -465h31q140 0 257.5 -61t187 -169.5t69.5 -242.5q0 -131 -67 -244.5t-185.5 -182t-263.5 -68.5q-140 0 -258 65.5t-187 177t-69 244.5zM330 473q0 -69 36 -128t98 -93.5t134 -34.5q71 0 132.5 34.5t97.5 93.5t36 128t-36 128 t-97.5 93.5t-132.5 34.5q-72 0 -134 -34.5t-98 -93.5t-36 -128z" />
<glyph unicode="7" d="M92 1182v231h1020v-129l-627 -1284h-280l600 1182h-713z" />
<glyph unicode="8" d="M72 406q0 116 54 208.5t150 149.5q-65 55 -99 128t-34 157q0 118 62.5 205.5t166 133.5t222.5 46q118 0 221.5 -46.5t166 -133.5t62.5 -203q0 -86 -35 -159.5t-98 -127.5q100 -59 152.5 -150t52.5 -206q0 -138 -72.5 -235t-191.5 -145t-258 -48t-258.5 48.5t-191.5 144.5 t-72 233zM319 420q0 -73 36.5 -123.5t98.5 -75t138 -24.5q77 0 138.5 24.5t97.5 74.5t36 122q0 71 -35 121.5t-96.5 77t-140.5 26.5q-80 0 -141.5 -26t-96.5 -76.5t-35 -120.5zM393 1044q0 -84 56 -135t149 -51q91 0 148 48.5t57 133.5q0 86 -57.5 134.5t-147.5 48.5 q-88 0 -146.5 -46t-58.5 -133z" />
<glyph unicode="9" d="M76 938q0 131 67 245t185.5 182.5t263.5 68.5q140 0 258 -65.5t187 -177.5t69 -245q0 -138 -76 -250l-424 -696h-291l306 465h-31q-140 0 -257.5 61.5t-187 169.5t-69.5 242zM324 940q0 -69 36 -128t97 -93.5t133 -34.5t134 34.5t98 93.5t36 128t-36 128t-98 93.5 t-134 34.5t-133 -34.5t-97 -93.5t-36 -128z" />
<glyph unicode=":" horiz-adv-x="676" d="M205 0v264h266v-264h-266zM205 690v264h266v-264h-266z" />
<glyph unicode=";" horiz-adv-x="662" d="M109 -303l135 567h281l-254 -567h-162zM205 690v264h266v-264h-266z" />
<glyph unicode="&#x3c;" horiz-adv-x="1237" d="M45 674l985 522l103 -178l-693 -344l693 -344l-103 -178z" />
<glyph unicode="=" horiz-adv-x="1268" d="M219 385v207h830v-207h-830zM219 752v206h830v-206h-830z" />
<glyph unicode="&#x3e;" horiz-adv-x="1237" d="M104 330l693 344l-693 344l103 178l985 -522l-985 -522z" />
<glyph unicode="?" horiz-adv-x="997" d="M45 991q0 138 54 238t152.5 152.5t229.5 52.5q124 0 227 -46.5t164.5 -137t61.5 -216.5q0 -104 -34 -172.5t-80 -105t-115 -74.5q-58 -32 -84.5 -55.5t-26.5 -59.5v-143h-207v145q0 83 26 136.5t63.5 82.5t98.5 62q50 27 78.5 48t48 55t19.5 85q0 97 -62 145t-170 48 q-118 0 -173.5 -61t-55.5 -179h-215zM360 0v264h267v-264h-267z" />
<glyph unicode="@" horiz-adv-x="2015" d="M100 520q0 253 115 461.5t324 329.5t477 121q271 0 476 -121.5t316 -324.5t111 -441q0 -161 -52.5 -303t-157.5 -230t-255 -88q-126 0 -197.5 62.5t-82.5 173.5q-62 -57 -138.5 -87t-154.5 -30q-109 0 -185 54.5t-113.5 146t-37.5 200.5q0 140 59 284t169.5 238.5 t256.5 94.5q90 0 156.5 -36.5t103.5 -98.5l19 86h196q-20 -102 -59 -263q-45 -185 -68.5 -305.5t-23.5 -207.5q0 -64 19.5 -88.5t74.5 -24.5q97 0 160 62.5t92 159.5t29 204q0 186 -86 345t-248 255t-377 96q-216 0 -381.5 -95.5t-255.5 -260.5t-90 -365q0 -207 95.5 -360.5 t257.5 -234.5t357 -81q66 0 123.5 10t118.5 29l68 -182q-74 -27 -150 -40t-162 -13q-248 0 -453 107t-325.5 304t-120.5 457zM729 436q0 -198 168 -198q101 0 175.5 66t113.5 167t39 201q0 94 -40 144t-126 50q-102 0 -177 -65.5t-114 -165.5t-39 -199z" />
<glyph unicode="A" horiz-adv-x="1343" d="M12 0l566 1413h190l563 -1413h-274l-109 307h-549l-110 -307h-277zM485 524h377l-188 516z" />
<glyph unicode="B" horiz-adv-x="1274" d="M182 0v1413h490q117 0 219.5 -38.5t167.5 -123.5t65 -219q0 -91 -46 -166t-111 -110q63 -25 115 -80t82 -125.5t30 -140.5q0 -127 -63.5 -220t-169.5 -141.5t-228 -48.5h-551zM436 242h301q100 0 153.5 49t53.5 147q0 51 -27 93.5t-76 68t-114 25.5h-291v-383zM436 844 h260q86 0 140.5 39t54.5 135q0 80 -60 123t-155 43h-240v-340z" />
<glyph unicode="C" horiz-adv-x="1432" d="M82 707q0 200 75.5 365.5t229.5 264.5t377 99q211 0 372 -104.5t246 -301.5l-237 -94q-38 134 -137.5 196t-245.5 62q-144 0 -240 -63t-142 -170.5t-46 -243.5q0 -145 46 -256.5t143 -175.5t243 -64q140 0 233.5 61.5t149.5 200.5l235 -96q-83 -197 -244.5 -302 t-373.5 -105q-224 0 -378 98t-230 263.5t-76 365.5z" />
<glyph unicode="D" horiz-adv-x="1409" d="M182 0v1413h410q239 0 403.5 -83.5t248 -243.5t83.5 -390q0 -220 -85.5 -376t-250.5 -238t-401 -82h-408zM436 233h129q247 0 377.5 110t130.5 364q0 169 -49 272.5t-155 152t-281 48.5h-152v-947z" />
<glyph unicode="E" horiz-adv-x="1245" d="M182 0v1413h940v-233h-686v-357h639v-233h-639v-350h686v-240h-940z" />
<glyph unicode="F" horiz-adv-x="1235" d="M182 0v1413h1002v-233h-748v-357h660v-233h-660v-590h-254z" />
<glyph unicode="G" horiz-adv-x="1534" d="M82 707q0 201 75.5 366t229 264t377.5 99q210 0 370.5 -104.5t245.5 -301.5l-225 -94q-47 140 -150 209t-243 69q-143 0 -239.5 -67.5t-142.5 -180t-46 -249.5q0 -146 46 -261t143 -182t243 -67q101 0 186 43.5t140 123t69 185.5h-321v205h567v-764h-201l-22 199 q-58 -101 -168.5 -160t-249.5 -59q-224 0 -378 98t-230 263.5t-76 365.5z" />
<glyph unicode="H" horiz-adv-x="1491" d="M182 0v1413h254v-590h619v590h254v-1413h-254v590h-619v-590h-254z" />
<glyph unicode="I" horiz-adv-x="618" d="M182 0v1413h254v-1413h-254z" />
<glyph unicode="J" horiz-adv-x="1139" d="M31 440l250 29q8 -113 64 -183.5t163 -70.5q89 0 137.5 33.5t67 96t18.5 161.5v674h-532v233h786v-903q0 -242 -115.5 -386t-361.5 -144q-140 0 -244.5 61.5t-164 166.5t-68.5 232z" />
<glyph unicode="K" horiz-adv-x="1491" d="M182 0v1413h254v-737l688 737h340l-565 -579l576 -834h-316l-436 664l-287 -297v-367h-254z" />
<glyph unicode="L" horiz-adv-x="1063" d="M182 0v1413h254v-1173h604v-240h-858z" />
<glyph unicode="M" horiz-adv-x="1798" d="M182 0v1413h342l375 -1005l375 1005h342v-1413h-244v1057l-350 -934h-246l-350 934v-1057h-244z" />
<glyph unicode="N" horiz-adv-x="1454" d="M182 0v1413h252l594 -989v989h244v-1413h-254l-592 991v-991h-244z" />
<glyph unicode="O" horiz-adv-x="1528" d="M82 707q0 200 75.5 365t229 263.5t377.5 98.5t377.5 -98.5t229 -263.5t75.5 -365t-75.5 -365t-229 -263.5t-377.5 -98.5t-377.5 98.5t-229 263.5t-75.5 365zM350 707q0 -141 42 -254t134.5 -180.5t237.5 -67.5t237.5 67.5t134.5 180.5t42 254t-42 253.5t-134.5 180 t-237.5 67.5t-237.5 -67.5t-134.5 -180t-42 -253.5z" />
<glyph unicode="P" horiz-adv-x="1167" d="M182 0v1413h443q145 0 258 -49.5t177 -144t64 -224.5q0 -129 -64 -221t-177 -140t-258 -48h-191v-586h-252zM434 823h191q128 0 187.5 43t59.5 129q0 181 -247 181h-191v-353z" />
<glyph unicode="Q" horiz-adv-x="1573" d="M82 707q0 200 75.5 365t229 263.5t377.5 98.5t377.5 -99t229 -264.5t75.5 -365.5q0 -136 -36 -260.5t-103 -217.5l202 -192l-163 -154l-203 203q-158 -104 -379 -104q-224 0 -377.5 98.5t-229 263.5t-75.5 365zM336 707q0 -139 45 -249t141 -174.5t242 -64.5 q110 0 199 41l-193 176l164 150l188 -174q70 126 70 295q0 139 -45 248.5t-141 174t-242 64.5t-242 -64.5t-141 -174t-45 -248.5z" />
<glyph unicode="R" horiz-adv-x="1268" d="M182 -2v1415h457q134 0 245.5 -49.5t177.5 -144t66 -222.5q0 -87 -35 -160.5t-97.5 -126.5t-143.5 -81l393 -631h-291l-348 606h-170v-606h-254zM438 811h224q101 4 158 53t57 129q0 88 -64 140.5t-172 52.5h-203v-375z" />
<glyph unicode="S" horiz-adv-x="1137" d="M45 399l252 64q13 -126 93.5 -190t199.5 -64q73 0 126 23.5t80 64.5t27 92q0 61 -37.5 104t-93.5 71t-154 67q-128 51 -207 94.5t-135.5 121.5t-56.5 197q0 121 59.5 209.5t160 134.5t221.5 46q136 0 248 -61.5t182 -186.5l-211 -129q-37 72 -97 111.5t-131 39.5 q-50 0 -90.5 -19t-64 -53.5t-23.5 -78.5q0 -54 35 -92t88.5 -64t146.5 -62q132 -51 214 -96t141 -126t59 -205q0 -130 -65.5 -227t-177.5 -149t-248 -52q-129 0 -244.5 47t-195 140.5t-101.5 227.5z" />
<glyph unicode="T" horiz-adv-x="1180" d="M20 1186v227h1139v-227h-442v-1186h-254v1186h-443z" />
<glyph unicode="U" horiz-adv-x="1380" d="M150 551v862h253v-833q0 -121 25.5 -197.5t88 -117t173.5 -40.5t174 40t88 117t25 198v833h254v-852q0 -277 -132.5 -429t-408.5 -152q-275 0 -407.5 150.5t-132.5 420.5z" />
<glyph unicode="V" horiz-adv-x="1343" d="M12 1413h281l381 -1001l379 1001h278l-563 -1413h-190z" />
<glyph unicode="W" horiz-adv-x="2003" d="M25 1413h264l301 -1040l313 958h197l313 -958l301 1040h264l-424 -1413h-245l-308 930l-307 -930h-245z" />
<glyph unicode="X" horiz-adv-x="1343" d="M25 0l473 707l-471 706h303l342 -545l342 545h303l-471 -706l473 -707h-303l-346 537l-342 -537h-303z" />
<glyph unicode="Y" horiz-adv-x="1319" d="M-2 1413h307l352 -618l355 618h309l-528 -862v-551h-265v551z" />
<glyph unicode="Z" horiz-adv-x="1272" d="M59 0v176l789 1004h-744v233h1094v-184l-784 -1000h784v-229h-1139z" />
<glyph unicode="[" horiz-adv-x="641" d="M176 -164v1737h432v-162h-235v-1411h235v-164h-432z" />
<glyph unicode="\" horiz-adv-x="934" d="M-37 1516h227l781 -1946h-228z" />
<glyph unicode="]" horiz-adv-x="641" d="M33 0h235v1411h-235v162h432v-1737h-432v164z" />
<glyph unicode="^" horiz-adv-x="981" d="M63 805l426 692l429 -692h-242l-187 301l-184 -301h-242z" />
<glyph unicode="_" horiz-adv-x="1247" d="M199 0h850v-184h-850v184z" />
<glyph unicode="`" horiz-adv-x="532" d="M14 1413h260l226 -309h-178z" />
<glyph unicode="a" horiz-adv-x="1061" d="M55 307q0 153 107.5 221t290.5 68h260q0 97 -51 154t-146 57q-80 0 -139.5 -39.5t-95.5 -101.5l-187 135q77 105 178.5 162t241.5 57q134 0 231.5 -52t149 -146t51.5 -216v-606h-201l-16 143q-61 -89 -138 -126t-173 -37q-103 0 -185.5 38.5t-130 112.5t-47.5 176z M305 299q0 -51 39 -82t109 -31q68 0 127 32.5t95 86t38 115.5h-246q-79 0 -120.5 -35t-41.5 -86z" />
<glyph unicode="b" horiz-adv-x="1176" d="M147 0v1413h252v-514q50 62 123 91.5t158 29.5q136 0 233.5 -70.5t148 -189t50.5 -260.5q0 -141 -50.5 -260t-147 -189.5t-230.5 -70.5q-84 0 -159.5 29.5t-125.5 90.5v-100h-252zM377 500q0 -132 62.5 -213.5t183.5 -81.5t182 81.5t61 213.5t-61.5 215.5t-181.5 83.5 q-121 0 -183.5 -83t-62.5 -216z" />
<glyph unicode="c" horiz-adv-x="1004" d="M57 498q0 136 54.5 255.5t163 193t264.5 73.5q152 0 264 -74.5t168 -220.5l-232 -90q-20 74 -73.5 119t-126.5 45q-80 0 -132.5 -42.5t-77 -111t-24.5 -147.5q0 -81 24 -148t76.5 -108t133.5 -41q72 0 126 43.5t74 115.5l222 -84q-50 -140 -161 -218t-259 -78 q-156 0 -265.5 72t-164 190.5t-54.5 255.5z" />
<glyph unicode="d" horiz-adv-x="1171" d="M63 500q0 141 50.5 259.5t147.5 189.5t231 71q84 0 159.5 -30t124.5 -91v514h248v-1413h-227l-11 112q-49 -67 -125.5 -99.5t-164.5 -32.5q-136 0 -234 70.5t-148.5 189t-50.5 260.5zM311 500q0 -133 61.5 -216t182.5 -83t181.5 82t60.5 217q0 134 -61 216.5t-181 82.5 t-182 -83.5t-62 -215.5z" />
<glyph unicode="e" horiz-adv-x="1067" d="M55 496q0 136 54 256t164.5 194t271.5 74q164 0 268 -75.5t149.5 -190t45.5 -238.5q0 -30 -2.5 -57.5t-6.5 -38.5h-686q35 -219 250 -219q71 0 130 25t110 81l168 -147q-82 -91 -183 -135.5t-227 -44.5q-165 0 -279 71t-170.5 188.5t-56.5 256.5zM313 596h455 q-12 106 -70.5 162.5t-154.5 56.5q-190 0 -230 -219z" />
<glyph unicode="f" horiz-adv-x="688" d="M20 795v204h185v134q0 94 43.5 162t116.5 103.5t159 35.5q89 0 181 -41l-80 -201q-41 25 -78 25q-40 0 -66 -27t-26 -82v-109h233v-204h-233v-795h-252v795h-183z" />
<glyph unicode="g" horiz-adv-x="1049" d="M82 -117q0 23 4 43l104 94q-98 66 -98 197q0 65 23.5 115.5t69.5 90.5q-40 48 -61.5 106.5t-21.5 123.5q0 106 56 189.5t150 130.5t204 47q65 0 125 -16.5t111 -47.5l153 131l127 -155l-145 -117q43 -77 43 -174q0 -108 -55 -191t-148 -128.5t-203 -45.5q-101 0 -190 39 q-29 -19 -29 -53t27.5 -52.5t73 -27t135.5 -18.5q18 -3 34.5 -4.5t30.5 -3.5q118 -16 199.5 -41.5t135.5 -86t54 -167.5q0 -109 -57.5 -184.5t-157.5 -112.5t-227 -37q-144 0 -249.5 45.5t-161.5 126.5t-56 184zM287 -123q10 -77 81.5 -117.5t182.5 -40.5q96 0 152.5 30 t56.5 83q0 35 -26.5 54t-73.5 28t-144 20q-20 2 -30 4q-94 10 -148 23zM354 651q0 -79 43.5 -127.5t122.5 -48.5t121.5 48.5t42.5 127.5q0 81 -43 130.5t-121 49.5t-122 -49.5t-44 -130.5z" />
<glyph unicode="h" horiz-adv-x="1169" d="M147 0v1413h248v-530q57 70 133.5 103.5t155.5 33.5q125 0 208 -59t122 -154.5t39 -206.5v-600h-248v569q0 106 -39 168t-141 62q-113 0 -171.5 -81t-58.5 -212v-506h-248z" />
<glyph unicode="i" horiz-adv-x="532" d="M139 1188v225h254v-225h-254zM145 0v999h242v-999h-242z" />
<glyph unicode="j" horiz-adv-x="541" d="M-70 -406l62 211q55 -22 88 -22q70 0 70 94v1122h245v-1103q0 -95 -31.5 -170.5t-97 -119.5t-162.5 -44q-43 0 -92 9.5t-82 22.5zM143 1188v225h258v-225h-258z" />
<glyph unicode="k" horiz-adv-x="1118" d="M147 0v1413h244v-829l377 415h317l-374 -387l415 -612h-288l-293 463l-154 -170v-293h-244z" />
<glyph unicode="l" horiz-adv-x="573" d="M139 199v1214h244v-1147q0 -67 80 -67q28 0 67 6v-205q-102 -20 -182 -20q-97 0 -153 48.5t-56 170.5z" />
<glyph unicode="m" horiz-adv-x="1743" d="M145 0v999h246v-104q47 64 113 94.5t141 30.5q183 0 281 -176q56 89 143 132.5t188 43.5q122 0 205 -59t123.5 -154.5t40.5 -206.5v-600h-248v569q0 103 -36.5 163.5t-124.5 60.5q-64 0 -111.5 -32.5t-72.5 -88.5t-25 -123v-549h-248v573q0 102 -35.5 161t-122.5 59 q-65 0 -112.5 -32.5t-73 -88.5t-25.5 -123v-549h-246z" />
<glyph unicode="n" horiz-adv-x="1161" d="M145 0v999h242v-116q57 69 136 103t159 34q124 0 205.5 -59t119 -154.5t37.5 -206.5v-600h-241v569q0 101 -50 163.5t-141 62.5q-107 0 -166 -61t-59 -187v-547h-242z" />
<glyph unicode="o" horiz-adv-x="1128" d="M51 502q0 141 64 259.5t181 188.5t267 70t267 -70t181 -188.5t64 -259.5q0 -142 -64 -261.5t-181 -190t-267 -70.5t-267 70.5t-181 190t-64 261.5zM305 502q0 -86 27 -156.5t85 -113t146 -42.5t146 42.5t85 113t27 156.5q0 134 -63.5 220.5t-194.5 86.5q-88 0 -146 -41.5 t-85 -110.5t-27 -155z" />
<glyph unicode="p" horiz-adv-x="1171" d="M147 -438v1437h248v-100q50 62 123 91.5t158 29.5q135 0 233 -70.5t148.5 -189t50.5 -260.5q0 -141 -50.5 -260t-147.5 -189.5t-230 -70.5q-84 0 -159.5 29.5t-125.5 90.5v-538h-248zM373 500q0 -133 61.5 -214t181.5 -81q121 0 182.5 81t61.5 214t-62 217t-182 84 t-181.5 -84t-61.5 -217z" />
<glyph unicode="q" horiz-adv-x="1169" d="M63 500q0 141 50.5 259.5t147.5 189.5t231 71q84 0 159.5 -30t124.5 -91v100h246v-1437h-246v538q-49 -62 -122 -91t-158 -29q-136 0 -234 70.5t-148.5 189t-50.5 260.5zM311 500q0 -133 61.5 -214t182.5 -81t181.5 80.5t60.5 214.5t-61 216.5t-181 82.5t-182 -83.5 t-62 -215.5z" />
<glyph unicode="r" horiz-adv-x="815" d="M145 0v999h238v-168q31 88 106 138.5t162 50.5q51 0 99.5 -18t83.5 -54l-111 -200q-51 34 -109 34q-60 0 -113.5 -38.5t-86.5 -119.5t-33 -202v-422h-236z" />
<glyph unicode="s" horiz-adv-x="909" d="M27 260l194 86q26 -70 75 -117t138 -47q53 0 89.5 18t54.5 45.5t18 55.5q0 32 -23.5 53t-58.5 33.5t-101 29.5q-99 26 -162.5 53t-110 84.5t-46.5 154.5q0 101 51 171t135.5 105t184.5 35q127 0 224 -57t155 -160l-189 -103q-31 56 -77.5 91.5t-120.5 35.5 q-58 0 -93.5 -25t-35.5 -61q0 -28 22 -47t55.5 -31t94.5 -30q103 -29 170 -59.5t116.5 -93.5t49.5 -167q0 -110 -56 -185t-145 -111.5t-189 -36.5q-102 0 -188.5 37.5t-146 101t-84.5 141.5z" />
<glyph unicode="t" horiz-adv-x="754" d="M25 795v204h165v248l238 174v-422h252v-204h-252v-476q0 -68 30 -96t83 -28q35 0 72 10.5t67 25.5v-221q-31 -12 -81.5 -21t-98.5 -9q-98 0 -168.5 36t-108 102.5t-37.5 157.5v519h-161z" />
<glyph unicode="u" horiz-adv-x="1167" d="M115 473v526h247v-534q0 -88 15 -145t54.5 -88t111.5 -31q102 0 166.5 75.5t64.5 272.5v450h248v-999h-248v117q-53 -69 -128.5 -103t-166.5 -34q-184 0 -274 130t-90 363z" />
<glyph unicode="v" horiz-adv-x="999" d="M-8 999h266l242 -684l243 684h265l-408 -999h-201z" />
<glyph unicode="w" horiz-adv-x="1466" d="M10 999h260l170 -626l189 626h209l188 -624l172 624h260l-309 -999h-219l-197 655l-196 -659h-220z" />
<glyph unicode="x" horiz-adv-x="1030" d="M10 0l342 504l-342 495h297l207 -329l207 329h299l-344 -495l344 -504h-299l-207 336l-207 -336h-297z" />
<glyph unicode="y" horiz-adv-x="1032" d="M-6 999h268l252 -694l256 694h268l-571 -1429h-266l184 457z" />
<glyph unicode="z" horiz-adv-x="1004" d="M53 0v162l565 633h-536v204h852v-174l-542 -620h542v-205h-881z" />
<glyph unicode="{" horiz-adv-x="618" d="M53 594v160q48 17 75 33t41.5 41.5t14.5 66.5v426q0 127 59.5 192.5t186.5 65.5h51q32 0 84 -4v-164q-24 6 -57 10t-45 4q-43 0 -57.5 -7.5t-14.5 -26.5v-510q0 -77 -37.5 -126.5t-103.5 -86.5q65 -30 103 -75.5t38 -100.5v-361q0 -129 101 -129q30 0 73 10v-164 q-11 0 -41 -2t-45 -2h-71q-65 0 -109.5 28t-77.5 77q-37 56 -37 178v360q0 29 -18.5 48.5t-41 29.5t-71.5 29z" />
<glyph unicode="|" horiz-adv-x="623" d="M221 -512v2046h180v-2046h-180z" />
<glyph unicode="}" horiz-adv-x="618" d="M53 12q45 -10 74 -10q55 0 77.5 34.5t22.5 94.5v361q0 53 38 98.5t104 77.5q-67 35 -104.5 85t-37.5 128v510q0 19 -14 26.5t-57 7.5q-13 0 -46 -4t-57 -10v164q54 4 84 4h51q127 0 186.5 -65.5t59.5 -192.5v-426q0 -41 14.5 -66.5t41.5 -41.5t75 -33v-160 q-7 -3 -47.5 -18t-62 -37.5t-21.5 -51.5v-360q0 -62 -8.5 -105t-28.5 -73q-67 -105 -186 -105h-72q-14 0 -44 2q-28 2 -42 2v164z" />
<glyph unicode="~" horiz-adv-x="1157" d="M172 406q0 123 59.5 184t167.5 61q89 0 144.5 -18t113.5 -49q30 -16 47.5 -23.5t36.5 -7.5q30 0 43.5 9t18 27.5t4.5 55.5h178q0 -266 -250 -266q-76 0 -128.5 18t-108.5 49q-36 19 -56 27t-41 8q-27 0 -39.5 -7.5t-16 -22.5t-3.5 -45h-170z" />
<glyph unicode="&#xa1;" horiz-adv-x="635" d="M184 735v264h267v-264h-267zM197 -434l28 1005h185l28 -1005h-241z" />
<glyph unicode="&#xa2;" horiz-adv-x="1116" d="M115 498q0 124 42 233.5t127.5 185.5t209.5 99v184h180v-184q125 -21 207.5 -93t140.5 -200l-217 -84q-27 95 -78.5 139.5t-140.5 44.5q-84 0 -138.5 -45t-80 -118.5t-25.5 -161.5q0 -140 59.5 -233t184.5 -93q90 0 140.5 45.5t78.5 138.5l203 -80q-48 -130 -130 -202.5 t-204 -93.5v-185h-180v185q-125 23 -210.5 98.5t-127 185t-41.5 234.5z" />
<glyph unicode="&#xa3;" horiz-adv-x="1200" d="M137 0v207q0 -5 68.5 35.5t123 100t54.5 132.5q0 27 -4.5 55.5t-9.5 48.5t-7 25h-221v205h172q0 -4 -10.5 31.5t-18.5 86t-8 109.5q0 115 50.5 208t148 147.5t232.5 54.5q97 0 178.5 -41.5t139 -112t87.5 -157.5l-190 -70q-31 83 -87 129.5t-128 46.5q-109 0 -167.5 -52 t-58.5 -157q0 -55 9.5 -104.5t21.5 -85.5t12 -33h477v-205h-430q1 -5 4 -22.5t6 -45.5t3 -57q0 -96 -28 -156.5t-63.5 -92t-35.5 -25.5h721v-205h-1041z" />
<glyph unicode="&#xa4;" horiz-adv-x="1348" d="M174 264l107 105q-40 57 -60.5 124t-20.5 136q0 71 20.5 138.5t60.5 125.5l-105 102l129 135l107 -108q58 41 126.5 61.5t139.5 20.5q69 0 135 -20t123 -60l106 104l132 -129l-107 -104q41 -58 61.5 -126t20.5 -138q0 -71 -20.5 -138t-61.5 -126l107 -103l-130 -135 l-108 109q-58 -40 -125.5 -61t-137.5 -21q-69 0 -136.5 21t-126.5 61l-107 -109zM383 627q0 -56 21 -108.5t61 -92.5q44 -43 97.5 -65.5t110.5 -22.5q56 0 110 22.5t96 65.5t63.5 96.5t21.5 110.5q0 56 -21.5 109t-63.5 94t-95 62.5t-110 21.5t-110.5 -22t-96.5 -64 q-41 -42 -62.5 -96t-21.5 -111z" />
<glyph unicode="&#xa5;" horiz-adv-x="1323" d="M-2 1413h250l414 -670l413 670h250l-473 -733h213v-184h-299v-117h299v-184h-299v-195h-209v195h-299v184h299v117h-299v186h213z" />
<glyph unicode="&#xa6;" horiz-adv-x="643" d="M221 -307v727h201v-727h-201zM221 731v744h201v-744h-201z" />
<glyph unicode="&#xa7;" horiz-adv-x="1112" d="M123 276l233 70q20 -89 73.5 -128.5t148.5 -39.5q85 0 137.5 28.5t52.5 84.5q0 42 -30.5 68.5t-77 41.5t-128.5 33q-115 26 -187 53t-123.5 84.5t-51.5 155.5q0 62 22.5 112t63.5 95q-84 76 -84 190q0 97 55 167.5t144 106.5t190 36q87 0 163.5 -25.5t132 -69t83.5 -96.5 l-195 -113q-18 53 -68 84t-124 31q-57 0 -97.5 -18t-60.5 -47t-20 -60q0 -38 29 -61t73 -36.5t121 -29.5q118 -26 192.5 -53t128.5 -87.5t54 -164.5q0 -118 -80 -205q80 -74 80 -192q0 -106 -59.5 -175t-153 -101.5t-199.5 -32.5q-104 0 -196.5 31t-157 97.5t-84.5 165.5z M375 735q0 -44 34 -72t85.5 -44.5t143.5 -37.5q34 -7 46 -10q40 14 62 43.5t22 67.5q0 49 -35 80t-88.5 48t-152.5 40l-35 8q-41 -19 -61.5 -54t-20.5 -69z" />
<glyph unicode="&#xa8;" horiz-adv-x="842" d="M141 1188v225h205v-225h-205zM496 1188v225h204v-225h-204z" />
<glyph unicode="&#xa9;" horiz-adv-x="1739" d="M82 707q0 205 106 378.5t287 275t395 101.5t394.5 -101.5t286.5 -275t106 -378.5q0 -206 -106 -379.5t-286.5 -275t-394.5 -101.5t-395 101.5t-287 275t-106 379.5zM272 707q0 -151 81.5 -282t219 -208.5t297.5 -77.5q159 0 297 77.5t219.5 208.5t81.5 282t-81.5 281.5 t-219.5 208t-297 77.5q-160 0 -297.5 -77.5t-219 -208t-81.5 -281.5zM498 705q0 120 44 220t132 160t213 60q126 0 211.5 -61t142.5 -183l-174 -74q-34 70 -74 98.5t-106 28.5q-102 0 -152.5 -69t-50.5 -180q0 -112 49.5 -180t151.5 -68q70 0 108.5 29.5t71.5 97.5l176 -74 q-58 -125 -143.5 -185.5t-210.5 -60.5t-213 60t-132 160.5t-44 220.5z" />
<glyph unicode="&#xaa;" horiz-adv-x="954" d="M145 928q0 111 77 165t202 54h194q-3 76 -39.5 113.5t-115.5 37.5q-104 0 -178 -106l-119 80q63 86 133 124t168 38q92 0 158.5 -35.5t101.5 -100t35 -149.5v-426h-133l-4 84q-46 -51 -102.5 -74.5t-129.5 -23.5q-66 0 -123 27t-91 77t-34 115zM305 928q0 -33 36 -57.5 t79 -24.5q50 0 93.5 23.5t71 62.5t33.5 82h-184q-60 0 -94.5 -23t-34.5 -63z" />
<glyph unicode="&#xab;" horiz-adv-x="954" d="M16 510l428 356v-211l-180 -145l180 -143v-211zM379 510l428 356v-211l-180 -145l180 -143v-211z" />
<glyph unicode="&#xac;" horiz-adv-x="1300" d="M135 580v217h948v-506h-233v289h-715z" />
<glyph unicode="&#xad;" horiz-adv-x="1010" d="M141 508v184h727v-184h-727z" />
<glyph unicode="&#xae;" horiz-adv-x="1739" d="M82 709q0 205 106 378.5t287 275t395 101.5t394.5 -101.5t286.5 -275t106 -378.5q0 -206 -106 -379.5t-286.5 -275t-394.5 -101.5t-395 101.5t-287 275t-106 379.5zM262 709q0 -154 83 -286.5t222.5 -211t302.5 -78.5q162 0 302 78.5t222.5 211t82.5 286.5t-82.5 286 t-222.5 210.5t-302 78.5q-163 0 -302.5 -78.5t-222.5 -210.5t-83 -286zM602 289v825h322q137 0 210.5 -67t73.5 -187q0 -87 -39.5 -144.5t-101.5 -84.5l199 -342h-211l-172 315h-97v-315h-184zM776 778h148q63 0 86.5 19t23.5 63q0 31 -9.5 48t-33 24.5t-67.5 7.5h-148v-162 z" />
<glyph unicode="&#xaf;" horiz-adv-x="838" d="M139 1147v143h559v-143h-559z" />
<glyph unicode="&#xb0;" horiz-adv-x="877" d="M145 1141q0 79 40 146.5t107.5 107t145.5 39.5q80 0 147 -39.5t106.5 -106.5t39.5 -147t-39.5 -147t-106.5 -106.5t-147 -39.5q-78 0 -145.5 39.5t-107.5 107t-40 146.5zM309 1141q0 -35 17.5 -65t47 -47t64.5 -17q55 0 93 37.5t38 91.5q0 35 -17.5 64.5t-47.5 47 t-66 17.5q-35 0 -64.5 -17.5t-47 -47t-17.5 -64.5z" />
<glyph unicode="&#xb1;" horiz-adv-x="1331" d="M117 532v185h456v426h185v-426h456v-185h-456v-426h-185v426h-456zM119 0h1093v-184h-1093v184z" />
<glyph unicode="&#xb4;" horiz-adv-x="537" d="M33 1124l225 289h260l-307 -289h-178z" />
<glyph unicode="&#xb5;" horiz-adv-x="1294" d="M219 -266v1265h227v-581q0 -106 38 -168t132 -62q70 0 130.5 35t96.5 94t36 125v557h227v-999h-227v98q-53 -53 -125 -87t-154 -34q-88 0 -158 31l-18 -274h-205z" />
<glyph unicode="&#xb6;" horiz-adv-x="1262" d="M66 1018q0 120 63 210t166.5 137.5t222.5 47.5h170v-1659h-170v869q-119 0 -222.5 47.5t-166.5 137.5t-63 210zM868 -246v1659h172v-1659h-172z" />
<glyph unicode="&#xb7;" horiz-adv-x="616" d="M160 801q0 40 19.5 74t53.5 53.5t74 19.5q41 0 75 -19.5t54.5 -53t20.5 -74.5q0 -40 -20 -74.5t-54.5 -55t-75.5 -20.5t-74.5 20.5t-53 54.5t-19.5 75z" />
<glyph unicode="&#xb8;" horiz-adv-x="561" d="M59 -393l136 57q8 -20 26 -33.5t41 -13.5q35 0 57.5 22t22.5 56q0 48 -47 79t-121 31h-70l123 193h144l-76 -98q92 -13 141 -64.5t49 -132.5q0 -63 -30 -114.5t-82.5 -81t-116.5 -29.5q-63 0 -117.5 36t-79.5 93z" />
<glyph unicode="&#xba;" horiz-adv-x="991" d="M137 1073q0 98 45.5 181t127.5 131.5t186 48.5q103 0 184 -48.5t126.5 -131.5t45.5 -181q0 -99 -45.5 -182t-126.5 -131.5t-184 -48.5q-104 0 -186 48.5t-127.5 131.5t-45.5 182zM305 1073q0 -98 46.5 -157.5t144.5 -59.5q96 0 142 59.5t46 157.5t-46 157.5t-142 59.5 q-98 0 -144.5 -59.5t-46.5 -157.5z" />
<glyph unicode="&#xbb;" horiz-adv-x="956" d="M145 156v211l181 143l-181 145v211l428 -356zM508 156v211l180 143l-180 145v211l428 -356z" />
<glyph unicode="&#xbf;" horiz-adv-x="993" d="M63 -35q0 105 34 173.5t80.5 105.5t115.5 74q40 22 61 36.5t35 33.5t14 44v143h207v-145q0 -83 -26 -136t-63 -82t-98 -62q-50 -26 -79 -47.5t-48.5 -56t-19.5 -85.5q0 -96 62 -144t168 -48q103 0 166.5 54t64.5 154h215q-1 -125 -59.5 -218.5t-157.5 -143t-219 -49.5 q-124 0 -227 46t-164.5 136.5t-61.5 216.5zM371 735v264h266v-264h-266z" />
<glyph unicode="&#xc0;" horiz-adv-x="1343" d="M12 0l566 1413h190l563 -1413h-274l-109 307h-549l-110 -307h-277zM299 1825h260l226 -309h-178zM485 524h377l-188 516z" />
<glyph unicode="&#xc1;" horiz-adv-x="1343" d="M12 0l566 1413h190l563 -1413h-274l-109 307h-549l-110 -307h-277zM485 524h377l-188 516zM553 1536l225 289h260l-307 -289h-178z" />
<glyph unicode="&#xc2;" horiz-adv-x="1343" d="M12 0l566 1413h190l563 -1413h-274l-109 307h-549l-110 -307h-277zM354 1510l316 352l317 -352h-188l-129 145l-127 -145h-189zM485 524h377l-188 516z" />
<glyph unicode="&#xc3;" horiz-adv-x="1343" d="M12 0l566 1413h190l563 -1413h-274l-109 307h-549l-110 -307h-277zM334 1524q0 137 57 211.5t156 74.5q56 0 93.5 -23.5t79.5 -65.5q29 -28 45.5 -40t35.5 -12q27 0 44.5 35.5t17.5 99.5h145q0 -137 -55.5 -212t-153.5 -75q-43 0 -76 13.5t-55 31.5t-49 47 q-26 27 -43 39.5t-37 12.5q-31 0 -48 -35.5t-17 -101.5h-140zM485 524h377l-188 516z" />
<glyph unicode="&#xc4;" horiz-adv-x="1343" d="M12 0l566 1413h190l563 -1413h-274l-109 307h-549l-110 -307h-277zM391 1600v225h205v-225h-205zM485 524h377l-188 516zM746 1600v225h204v-225h-204z" />
<glyph unicode="&#xc5;" horiz-adv-x="1343" d="M12 0l531 1325q-47 31 -74 82t-27 109q0 62 31 114.5t84 83.5t115 31t115 -30.5t84.5 -83t31.5 -115.5q0 -59 -27 -109.5t-73 -81.5l528 -1325h-274l-109 307h-549l-110 -307h-277zM485 524h377l-188 516zM573 1518q0 -45 28.5 -74t70.5 -29q44 0 72 29t28 74 q0 42 -27 69t-73 27q-44 0 -71.5 -27t-27.5 -69z" />
<glyph unicode="&#xc6;" horiz-adv-x="1858" d="M12 0l559 1413h1186v-213h-747v-387h659v-213h-659v-381h747v-219h-981v307h-397l-111 -307h-256zM459 504h317v696h-47z" />
<glyph unicode="&#xc7;" horiz-adv-x="1432" d="M82 707q0 200 75.5 365.5t229.5 264.5t377 99q211 0 372 -104.5t246 -301.5l-237 -94q-38 134 -137.5 196t-245.5 62q-144 0 -240 -63t-142 -170.5t-46 -243.5q0 -145 46 -256.5t143 -175.5t243 -64q140 0 233.5 61.5t149.5 200.5l235 -96q-75 -178 -215 -281.5 t-324 -121.5l-65 -84q92 -13 141 -64.5t49 -132.5q0 -63 -30 -114.5t-82.5 -81t-116.5 -29.5q-63 0 -117.5 36t-79.5 93l136 57q8 -20 26 -33.5t41 -13.5q35 0 57.5 22t22.5 56q0 48 -47 79t-121 31h-70l113 177q-203 14 -342.5 115t-208.5 260t-69 350z" />
<glyph unicode="&#xc8;" horiz-adv-x="1245" d="M182 0v1413h940v-233h-686v-357h639v-233h-639v-350h686v-240h-940zM248 1825h260l226 -309h-178z" />
<glyph unicode="&#xc9;" horiz-adv-x="1245" d="M182 0v1413h940v-233h-686v-357h639v-233h-639v-350h686v-240h-940zM502 1536l225 289h260l-307 -289h-178z" />
<glyph unicode="&#xca;" horiz-adv-x="1245" d="M182 0v1413h940v-233h-686v-357h639v-233h-639v-350h686v-240h-940zM303 1510l316 352l317 -352h-188l-129 145l-127 -145h-189z" />
<glyph unicode="&#xcb;" horiz-adv-x="1245" d="M182 0v1413h940v-233h-686v-357h639v-233h-639v-350h686v-240h-940zM340 1600v225h205v-225h-205zM695 1600v225h204v-225h-204z" />
<glyph unicode="&#xcc;" horiz-adv-x="618" d="M-64 1825h260l226 -309h-178zM182 0v1413h254v-1413h-254z" />
<glyph unicode="&#xcd;" horiz-adv-x="618" d="M182 0v1413h254v-1413h-254zM190 1536l225 289h260l-307 -289h-178z" />
<glyph unicode="&#xce;" horiz-adv-x="618" d="M-9 1510l316 352l317 -352h-188l-129 145l-127 -145h-189zM182 0v1413h254v-1413h-254z" />
<glyph unicode="&#xcf;" horiz-adv-x="618" d="M28 1600v225h205v-225h-205zM182 0v1413h254v-1413h-254zM383 1600v225h204v-225h-204z" />
<glyph unicode="&#xd0;" horiz-adv-x="1430" d="M92 621v184h113v608h399q237 0 404 -83t254.5 -244t87.5 -390q0 -220 -88.5 -376t-256.5 -238t-403 -82h-397v621h-113zM438 219h140q249 0 392.5 119t143.5 369q0 246 -125.5 367.5t-388.5 121.5h-162v-391h381v-184h-381v-402z" />
<glyph unicode="&#xd1;" horiz-adv-x="1454" d="M182 0v1413h252l594 -989v989h244v-1413h-254l-592 991v-991h-244zM389 1524q0 137 57 211.5t156 74.5q56 0 93.5 -23.5t79.5 -65.5q29 -28 45.5 -40t35.5 -12q27 0 44.5 35.5t17.5 99.5h145q0 -137 -55.5 -212t-153.5 -75q-43 0 -76 13.5t-55 31.5t-49 47 q-26 27 -43 39.5t-37 12.5q-31 0 -48 -35.5t-17 -101.5h-140z" />
<glyph unicode="&#xd2;" horiz-adv-x="1528" d="M82 707q0 200 75.5 365t229 263.5t377.5 98.5t377.5 -98.5t229 -263.5t75.5 -365t-75.5 -365t-229 -263.5t-377.5 -98.5t-377.5 98.5t-229 263.5t-75.5 365zM350 707q0 -141 42 -254t134.5 -180.5t237.5 -67.5t237.5 67.5t134.5 180.5t42 254t-42 253.5t-134.5 180 t-237.5 67.5t-237.5 -67.5t-134.5 -180t-42 -253.5zM391 1825h260l226 -309h-178z" />
<glyph unicode="&#xd3;" horiz-adv-x="1528" d="M82 707q0 200 75.5 365t229 263.5t377.5 98.5t377.5 -98.5t229 -263.5t75.5 -365t-75.5 -365t-229 -263.5t-377.5 -98.5t-377.5 98.5t-229 263.5t-75.5 365zM350 707q0 -141 42 -254t134.5 -180.5t237.5 -67.5t237.5 67.5t134.5 180.5t42 254t-42 253.5t-134.5 180 t-237.5 67.5t-237.5 -67.5t-134.5 -180t-42 -253.5zM645 1536l225 289h260l-307 -289h-178z" />
<glyph unicode="&#xd4;" horiz-adv-x="1528" d="M82 707q0 200 75.5 365t229 263.5t377.5 98.5t377.5 -98.5t229 -263.5t75.5 -365t-75.5 -365t-229 -263.5t-377.5 -98.5t-377.5 98.5t-229 263.5t-75.5 365zM350 707q0 -141 42 -254t134.5 -180.5t237.5 -67.5t237.5 67.5t134.5 180.5t42 254t-42 253.5t-134.5 180 t-237.5 67.5t-237.5 -67.5t-134.5 -180t-42 -253.5zM446 1510l316 352l317 -352h-188l-129 145l-127 -145h-189z" />
<glyph unicode="&#xd5;" horiz-adv-x="1528" d="M82 707q0 200 75.5 365t229 263.5t377.5 98.5t377.5 -98.5t229 -263.5t75.5 -365t-75.5 -365t-229 -263.5t-377.5 -98.5t-377.5 98.5t-229 263.5t-75.5 365zM350 707q0 -141 42 -254t134.5 -180.5t237.5 -67.5t237.5 67.5t134.5 180.5t42 254t-42 253.5t-134.5 180 t-237.5 67.5t-237.5 -67.5t-134.5 -180t-42 -253.5zM426 1524q0 137 57 211.5t156 74.5q56 0 93.5 -23.5t79.5 -65.5q29 -28 45.5 -40t35.5 -12q27 0 44.5 35.5t17.5 99.5h145q0 -137 -55.5 -212t-153.5 -75q-43 0 -76 13.5t-55 31.5t-49 47q-26 27 -43 39.5t-37 12.5 q-31 0 -48 -35.5t-17 -101.5h-140z" />
<glyph unicode="&#xd6;" horiz-adv-x="1528" d="M82 707q0 200 75.5 365t229 263.5t377.5 98.5t377.5 -98.5t229 -263.5t75.5 -365t-75.5 -365t-229 -263.5t-377.5 -98.5t-377.5 98.5t-229 263.5t-75.5 365zM350 707q0 -141 42 -254t134.5 -180.5t237.5 -67.5t237.5 67.5t134.5 180.5t42 254t-42 253.5t-134.5 180 t-237.5 67.5t-237.5 -67.5t-134.5 -180t-42 -253.5zM483 1600v225h205v-225h-205zM838 1600v225h204v-225h-204z" />
<glyph unicode="&#xd7;" horiz-adv-x="1090" d="M92 301l322 324l-301 301l131 131l301 -301l323 321l129 -129l-321 -323l301 -301l-131 -131l-301 301l-324 -322z" />
<glyph unicode="&#xd8;" horiz-adv-x="1528" d="M82 707q0 200 75.5 365t229 263.5t377.5 98.5q172 0 311 -63l25 42h182l-75 -125q118 -99 178.5 -250.5t60.5 -330.5q0 -200 -75.5 -365t-229 -263.5t-377.5 -98.5q-173 0 -312 63l-26 -43h-182l77 126q-118 99 -178.5 251t-60.5 330zM350 707q0 -109 25 -202.5 t77 -160.5l500 825q-81 39 -188 39q-145 0 -237.5 -67.5t-134.5 -180t-42 -253.5zM574 245q82 -40 190 -40q145 0 237.5 67.5t134.5 180.5t42 254q0 109 -25.5 202.5t-77.5 161.5z" />
<glyph unicode="&#xd9;" horiz-adv-x="1380" d="M150 551v862h253v-833q0 -121 25.5 -197.5t88 -117t173.5 -40.5t174 40t88 117t25 198v833h254v-852q0 -277 -132.5 -429t-408.5 -152q-275 0 -407.5 150.5t-132.5 420.5zM313 1825h260l226 -309h-178z" />
<glyph unicode="&#xda;" horiz-adv-x="1380" d="M150 551v862h253v-833q0 -121 25.5 -197.5t88 -117t173.5 -40.5t174 40t88 117t25 198v833h254v-852q0 -277 -132.5 -429t-408.5 -152q-275 0 -407.5 150.5t-132.5 420.5zM567 1536l225 289h260l-307 -289h-178z" />
<glyph unicode="&#xdb;" horiz-adv-x="1380" d="M150 551v862h253v-833q0 -121 25.5 -197.5t88 -117t173.5 -40.5t174 40t88 117t25 198v833h254v-852q0 -277 -132.5 -429t-408.5 -152q-275 0 -407.5 150.5t-132.5 420.5zM368 1510l316 352l317 -352h-188l-129 145l-127 -145h-189z" />
<glyph unicode="&#xdc;" horiz-adv-x="1380" d="M150 551v862h253v-833q0 -121 25.5 -197.5t88 -117t173.5 -40.5t174 40t88 117t25 198v833h254v-852q0 -277 -132.5 -429t-408.5 -152q-275 0 -407.5 150.5t-132.5 420.5zM405 1600v225h205v-225h-205zM760 1600v225h204v-225h-204z" />
<glyph unicode="&#xdd;" horiz-adv-x="1319" d="M-2 1413h307l352 -618l355 618h309l-528 -862v-551h-265v551zM538 1536l225 289h260l-307 -289h-178z" />
<glyph unicode="&#xde;" horiz-adv-x="1151" d="M182 0v1413h232v-194h256q140 0 237.5 -49t147 -139t49.5 -212q0 -138 -62 -233t-172.5 -142t-255.5 -47h-200v-397h-232zM414 608h200q131 0 194.5 51t63.5 152q0 102 -64 155.5t-194 53.5h-200v-412z" />
<glyph unicode="&#xdf;" horiz-adv-x="1186" d="M147 0v1020q0 127 60 221t159.5 143.5t215.5 49.5q111 0 213 -46t165.5 -130t63.5 -193q0 -68 -24 -114t-55.5 -71.5t-80.5 -54.5q-39 -23 -56 -38t-17 -35q0 -24 22.5 -45.5t74.5 -57.5q65 -44 109 -84t76.5 -101t32.5 -142q0 -99 -49.5 -176.5t-135.5 -120.5t-192 -43 q-98 0 -203 36l84 207q56 -22 113 -22q63 0 100 33t37 83q0 34 -17 64t-42 54.5t-69 61.5q-54 45 -87 79t-56.5 80.5t-23.5 103.5q0 49 17 84t41.5 57t63.5 49q49 33 72 59.5t23 69.5q0 36 -19.5 69t-61.5 54t-105 21q-102 0 -154.5 -55t-52.5 -150v-1020h-242z" />
<glyph unicode="&#xe0;" horiz-adv-x="1061" d="M55 307q0 153 107.5 221t290.5 68h260q0 97 -51 154t-146 57q-80 0 -139.5 -39.5t-95.5 -101.5l-187 135q77 105 178.5 162t241.5 57q134 0 231.5 -52t149 -146t51.5 -216v-606h-201l-16 143q-61 -89 -138 -126t-173 -37q-103 0 -185.5 38.5t-130 112.5t-47.5 176z M131 1413h260l226 -309h-178zM305 299q0 -51 39 -82t109 -31q68 0 127 32.5t95 86t38 115.5h-246q-79 0 -120.5 -35t-41.5 -86z" />
<glyph unicode="&#xe1;" horiz-adv-x="1061" d="M55 307q0 153 107.5 221t290.5 68h260q0 97 -51 154t-146 57q-80 0 -139.5 -39.5t-95.5 -101.5l-187 135q77 105 178.5 162t241.5 57q134 0 231.5 -52t149 -146t51.5 -216v-606h-201l-16 143q-61 -89 -138 -126t-173 -37q-103 0 -185.5 38.5t-130 112.5t-47.5 176z M305 299q0 -51 39 -82t109 -31q68 0 127 32.5t95 86t38 115.5h-246q-79 0 -120.5 -35t-41.5 -86zM385 1124l225 289h260l-307 -289h-178z" />
<glyph unicode="&#xe2;" horiz-adv-x="1061" d="M55 307q0 153 107.5 221t290.5 68h260q0 97 -51 154t-146 57q-80 0 -139.5 -39.5t-95.5 -101.5l-187 135q77 105 178.5 162t241.5 57q134 0 231.5 -52t149 -146t51.5 -216v-606h-201l-16 143q-61 -89 -138 -126t-173 -37q-103 0 -185.5 38.5t-130 112.5t-47.5 176z M186 1098l316 352l317 -352h-188l-129 145l-127 -145h-189zM305 299q0 -51 39 -82t109 -31q68 0 127 32.5t95 86t38 115.5h-246q-79 0 -120.5 -35t-41.5 -86z" />
<glyph unicode="&#xe3;" horiz-adv-x="1061" d="M55 307q0 153 107.5 221t290.5 68h260q0 97 -51 154t-146 57q-80 0 -139.5 -39.5t-95.5 -101.5l-187 135q77 105 178.5 162t241.5 57q134 0 231.5 -52t149 -146t51.5 -216v-606h-201l-16 143q-61 -89 -138 -126t-173 -37q-103 0 -185.5 38.5t-130 112.5t-47.5 176z M166 1112q0 137 57 211.5t156 74.5q56 0 93.5 -23.5t79.5 -65.5q29 -28 45.5 -40t35.5 -12q27 0 44.5 35.5t17.5 99.5h145q0 -137 -55.5 -212t-153.5 -75q-43 0 -76 13.5t-55 31.5t-49 47q-26 27 -43 39.5t-37 12.5q-31 0 -48 -35.5t-17 -101.5h-140zM305 299q0 -51 39 -82 t109 -31q68 0 127 32.5t95 86t38 115.5h-246q-79 0 -120.5 -35t-41.5 -86z" />
<glyph unicode="&#xe4;" horiz-adv-x="1061" d="M55 307q0 153 107.5 221t290.5 68h260q0 97 -51 154t-146 57q-80 0 -139.5 -39.5t-95.5 -101.5l-187 135q77 105 178.5 162t241.5 57q134 0 231.5 -52t149 -146t51.5 -216v-606h-201l-16 143q-61 -89 -138 -126t-173 -37q-103 0 -185.5 38.5t-130 112.5t-47.5 176z M223 1188v225h205v-225h-205zM305 299q0 -51 39 -82t109 -31q68 0 127 32.5t95 86t38 115.5h-246q-79 0 -120.5 -35t-41.5 -86zM578 1188v225h204v-225h-204z" />
<glyph unicode="&#xe5;" horiz-adv-x="1061" d="M55 307q0 153 107.5 221t290.5 68h260q0 97 -51 154t-146 57q-80 0 -139.5 -39.5t-95.5 -101.5l-187 135q77 105 178.5 162t241.5 57q134 0 231.5 -52t149 -146t51.5 -216v-606h-201l-16 143q-61 -89 -138 -126t-173 -37q-103 0 -185.5 38.5t-130 112.5t-47.5 176z M273 1300q0 63 30.5 115.5t83.5 83.5t115 31t115.5 -30.5t85 -83t31.5 -116.5q0 -63 -31 -116t-84 -84t-117 -31q-63 0 -115.5 31.5t-83 85t-30.5 114.5zM305 299q0 -51 39 -82t109 -31q68 0 127 32.5t95 86t38 115.5h-246q-79 0 -120.5 -35t-41.5 -86zM404 1303 q0 -45 28 -74t70 -29q45 0 73 29t28 74q0 42 -27 69t-74 27q-44 0 -71 -27t-27 -69z" />
<glyph unicode="&#xe6;" horiz-adv-x="1677" d="M45 293q0 159 108.5 231t290.5 72h271q0 110 -51 161.5t-166 51.5q-74 0 -136.5 -36.5t-99.5 -90.5l-172 125q77 105 177.5 157t238.5 52q110 0 196 -43t138 -121q59 75 141.5 117.5t185.5 42.5q162 0 263 -72t144.5 -188t43.5 -256q0 -20 -2.5 -37.5t-4.5 -27t-3 -11.5 h-686q14 -96 75 -150.5t166 -54.5q85 0 141.5 19.5t106.5 72.5l170 -147q-87 -92 -187.5 -132t-228.5 -40q-239 0 -350 162q-160 -170 -416 -170q-95 0 -176 38.5t-129.5 110t-48.5 164.5zM274 295q0 -57 44 -86t120 -29q71 0 131.5 35t98.5 90t47 115h-256q-85 0 -135 -35 t-50 -90zM924 596h454q-14 104 -70 157.5t-161 53.5q-98 0 -153.5 -57t-69.5 -154z" />
<glyph unicode="&#xe7;" horiz-adv-x="1004" d="M57 498q0 136 54.5 255.5t163 193t264.5 73.5q152 0 264 -74.5t168 -220.5l-232 -90q-20 74 -73.5 119t-126.5 45q-80 0 -132.5 -42.5t-77 -111t-24.5 -147.5q0 -81 24 -148t76.5 -108t133.5 -41q72 0 126 43.5t74 115.5l222 -84q-44 -125 -138.5 -201.5t-222.5 -91.5 l-65 -83q92 -13 141 -64.5t49 -132.5q0 -63 -30 -114.5t-82.5 -81t-116.5 -29.5q-63 0 -117.5 36t-79.5 93l136 57q8 -20 26 -33.5t41 -13.5q35 0 57.5 22t22.5 56q0 48 -47 79t-121 31h-70l115 181q-130 18 -220.5 92.5t-136 184.5t-45.5 235z" />
<glyph unicode="&#xe8;" horiz-adv-x="1067" d="M55 496q0 136 54 256t164.5 194t271.5 74q164 0 268 -75.5t149.5 -190t45.5 -238.5q0 -30 -2.5 -57.5t-6.5 -38.5h-686q35 -219 250 -219q71 0 130 25t110 81l168 -147q-82 -91 -183 -135.5t-227 -44.5q-165 0 -279 71t-170.5 188.5t-56.5 256.5zM153 1413h260l226 -309 h-178zM313 596h455q-12 106 -70.5 162.5t-154.5 56.5q-190 0 -230 -219z" />
<glyph unicode="&#xe9;" horiz-adv-x="1067" d="M55 496q0 136 54 256t164.5 194t271.5 74q164 0 268 -75.5t149.5 -190t45.5 -238.5q0 -30 -2.5 -57.5t-6.5 -38.5h-686q35 -219 250 -219q71 0 130 25t110 81l168 -147q-82 -91 -183 -135.5t-227 -44.5q-165 0 -279 71t-170.5 188.5t-56.5 256.5zM313 596h455 q-12 106 -70.5 162.5t-154.5 56.5q-190 0 -230 -219zM407 1124l225 289h260l-307 -289h-178z" />
<glyph unicode="&#xea;" horiz-adv-x="1067" d="M55 496q0 136 54 256t164.5 194t271.5 74q164 0 268 -75.5t149.5 -190t45.5 -238.5q0 -30 -2.5 -57.5t-6.5 -38.5h-686q35 -219 250 -219q71 0 130 25t110 81l168 -147q-82 -91 -183 -135.5t-227 -44.5q-165 0 -279 71t-170.5 188.5t-56.5 256.5zM208 1098l316 352 l317 -352h-188l-129 145l-127 -145h-189zM313 596h455q-12 106 -70.5 162.5t-154.5 56.5q-190 0 -230 -219z" />
<glyph unicode="&#xeb;" horiz-adv-x="1067" d="M55 496q0 136 54 256t164.5 194t271.5 74q164 0 268 -75.5t149.5 -190t45.5 -238.5q0 -30 -2.5 -57.5t-6.5 -38.5h-686q35 -219 250 -219q71 0 130 25t110 81l168 -147q-82 -91 -183 -135.5t-227 -44.5q-165 0 -279 71t-170.5 188.5t-56.5 256.5zM245 1188v225h205v-225 h-205zM313 596h455q-12 106 -70.5 162.5t-154.5 56.5q-190 0 -230 -219zM600 1188v225h204v-225h-204z" />
<glyph unicode="&#xec;" horiz-adv-x="516" d="M-115 1413h260l226 -309h-178zM145 0v999h226v-999h-226z" />
<glyph unicode="&#xed;" horiz-adv-x="516" d="M139 1124l225 289h260l-307 -289h-178zM145 0v999h226v-999h-226z" />
<glyph unicode="&#xee;" horiz-adv-x="516" d="M-60 1098l316 352l317 -352h-188l-129 145l-127 -145h-189zM145 0v999h226v-999h-226z" />
<glyph unicode="&#xef;" horiz-adv-x="516" d="M-23 1188v225h205v-225h-205zM145 0v999h226v-999h-226zM332 1188v225h204v-225h-204z" />
<glyph unicode="&#xf0;" horiz-adv-x="1178" d="M55 516q0 141 58.5 255.5t169 181.5t258.5 67q81 0 142.5 -19.5t113.5 -58.5q-65 183 -273 288l-80 -116l-102 66l69 100q-59 21 -135 45l111 191q76 -28 145 -62l68 98l105 -61l-65 -94q230 -135 341 -336.5t111 -493.5q0 -184 -59.5 -315t-173 -199.5t-273.5 -68.5 q-170 0 -290 73t-180.5 194.5t-60.5 264.5zM301 516q0 -83 31 -153t92.5 -112t148.5 -42q88 0 149.5 42t92.5 112.5t31 154.5q0 85 -32 154.5t-93.5 110t-147.5 40.5q-87 0 -148.5 -42t-92.5 -112t-31 -153z" />
<glyph unicode="&#xf1;" horiz-adv-x="1161" d="M145 0v999h242v-116q57 69 136 103t159 34q124 0 205.5 -59t119 -154.5t37.5 -206.5v-600h-241v569q0 101 -50 163.5t-141 62.5q-107 0 -166 -61t-59 -187v-547h-242zM250 1112q0 137 57 211.5t156 74.5q56 0 93.5 -23.5t79.5 -65.5q29 -28 45.5 -40t35.5 -12 q27 0 44.5 35.5t17.5 99.5h145q0 -137 -55.5 -212t-153.5 -75q-43 0 -76 13.5t-55 31.5t-49 47q-26 27 -43 39.5t-37 12.5q-31 0 -48 -35.5t-17 -101.5h-140z" />
<glyph unicode="&#xf2;" horiz-adv-x="1128" d="M51 502q0 141 64 259.5t181 188.5t267 70t267 -70t181 -188.5t64 -259.5q0 -142 -64 -261.5t-181 -190t-267 -70.5t-267 70.5t-181 190t-64 261.5zM190 1413h260l226 -309h-178zM305 502q0 -86 27 -156.5t85 -113t146 -42.5t146 42.5t85 113t27 156.5q0 134 -63.5 220.5 t-194.5 86.5q-88 0 -146 -41.5t-85 -110.5t-27 -155z" />
<glyph unicode="&#xf3;" horiz-adv-x="1128" d="M51 502q0 141 64 259.5t181 188.5t267 70t267 -70t181 -188.5t64 -259.5q0 -142 -64 -261.5t-181 -190t-267 -70.5t-267 70.5t-181 190t-64 261.5zM305 502q0 -86 27 -156.5t85 -113t146 -42.5t146 42.5t85 113t27 156.5q0 134 -63.5 220.5t-194.5 86.5q-88 0 -146 -41.5 t-85 -110.5t-27 -155zM444 1124l225 289h260l-307 -289h-178z" />
<glyph unicode="&#xf4;" horiz-adv-x="1128" d="M51 502q0 141 64 259.5t181 188.5t267 70t267 -70t181 -188.5t64 -259.5q0 -142 -64 -261.5t-181 -190t-267 -70.5t-267 70.5t-181 190t-64 261.5zM245 1098l316 352l317 -352h-188l-129 145l-127 -145h-189zM305 502q0 -86 27 -156.5t85 -113t146 -42.5t146 42.5t85 113 t27 156.5q0 134 -63.5 220.5t-194.5 86.5q-88 0 -146 -41.5t-85 -110.5t-27 -155z" />
<glyph unicode="&#xf5;" horiz-adv-x="1128" d="M51 502q0 141 64 259.5t181 188.5t267 70t267 -70t181 -188.5t64 -259.5q0 -142 -64 -261.5t-181 -190t-267 -70.5t-267 70.5t-181 190t-64 261.5zM225 1112q0 137 57 211.5t156 74.5q56 0 93.5 -23.5t79.5 -65.5q29 -28 45.5 -40t35.5 -12q27 0 44.5 35.5t17.5 99.5h145 q0 -137 -55.5 -212t-153.5 -75q-43 0 -76 13.5t-55 31.5t-49 47q-26 27 -43 39.5t-37 12.5q-31 0 -48 -35.5t-17 -101.5h-140zM305 502q0 -86 27 -156.5t85 -113t146 -42.5t146 42.5t85 113t27 156.5q0 134 -63.5 220.5t-194.5 86.5q-88 0 -146 -41.5t-85 -110.5t-27 -155z " />
<glyph unicode="&#xf6;" horiz-adv-x="1128" d="M51 502q0 141 64 259.5t181 188.5t267 70t267 -70t181 -188.5t64 -259.5q0 -142 -64 -261.5t-181 -190t-267 -70.5t-267 70.5t-181 190t-64 261.5zM282 1188v225h205v-225h-205zM305 502q0 -86 27 -156.5t85 -113t146 -42.5t146 42.5t85 113t27 156.5q0 134 -63.5 220.5 t-194.5 86.5q-88 0 -146 -41.5t-85 -110.5t-27 -155zM637 1188v225h204v-225h-204z" />
<glyph unicode="&#xf7;" horiz-adv-x="1266" d="M84 537v184h1098v-184h-1098zM500 143v265h266v-265h-266zM500 834v264h266v-264h-266z" />
<glyph unicode="&#xf8;" horiz-adv-x="1128" d="M51 502q0 141 64 259.5t181 188.5t267 70q117 0 222 -46l15 25h129l-50 -82q93 -71 144.5 -180t51.5 -235q0 -142 -64 -261.5t-181 -190t-267 -70.5q-120 0 -223 47l-17 -28h-129l52 86q-92 72 -143.5 181.5t-51.5 235.5zM305 502q0 -64 15 -120.5t46 -98.5l306 505 q-46 21 -109 21q-88 0 -146 -41.5t-85 -110.5t-27 -155zM452 212q50 -22 111 -22q88 0 146 42.5t85 113t27 156.5q0 64 -15 120t-46 97z" />
<glyph unicode="&#xf9;" horiz-adv-x="1167" d="M115 473v526h247v-534q0 -88 15 -145t54.5 -88t111.5 -31q102 0 166.5 75.5t64.5 272.5v450h248v-999h-248v117q-53 -69 -128.5 -103t-166.5 -34q-184 0 -274 130t-90 363zM202 1413h260l226 -309h-178z" />
<glyph unicode="&#xfa;" horiz-adv-x="1167" d="M115 473v526h247v-534q0 -88 15 -145t54.5 -88t111.5 -31q102 0 166.5 75.5t64.5 272.5v450h248v-999h-248v117q-53 -69 -128.5 -103t-166.5 -34q-184 0 -274 130t-90 363zM456 1124l225 289h260l-307 -289h-178z" />
<glyph unicode="&#xfb;" horiz-adv-x="1167" d="M115 473v526h247v-534q0 -88 15 -145t54.5 -88t111.5 -31q102 0 166.5 75.5t64.5 272.5v450h248v-999h-248v117q-53 -69 -128.5 -103t-166.5 -34q-184 0 -274 130t-90 363zM257 1098l316 352l317 -352h-188l-129 145l-127 -145h-189z" />
<glyph unicode="&#xfc;" horiz-adv-x="1167" d="M115 473v526h247v-534q0 -88 15 -145t54.5 -88t111.5 -31q102 0 166.5 75.5t64.5 272.5v450h248v-999h-248v117q-53 -69 -128.5 -103t-166.5 -34q-184 0 -274 130t-90 363zM294 1188v225h205v-225h-205zM649 1188v225h204v-225h-204z" />
<glyph unicode="&#xfd;" horiz-adv-x="1032" d="M-6 999h268l252 -694l256 694h268l-571 -1429h-266l184 457zM397 1124l225 289h260l-307 -289h-178z" />
<glyph unicode="&#xfe;" horiz-adv-x="1155" d="M147 -438v1851h232v-495q110 102 276 102q138 0 236.5 -70.5t149.5 -189t51 -260.5t-51 -260.5t-149.5 -189t-236.5 -70.5q-84 0 -154.5 26.5t-121.5 75.5v-520h-232zM362 500q0 -90 28 -160t85 -110t139 -40t139 40t85 110t28 160q0 89 -28 158.5t-85 109t-139 39.5 t-139 -39.5t-85 -109t-28 -158.5z" />
<glyph unicode="&#xff;" horiz-adv-x="1032" d="M-6 999h268l252 -694l256 694h268l-571 -1429h-266l184 457zM235 1188v225h205v-225h-205zM590 1188v225h204v-225h-204z" />
<glyph unicode="&#x152;" horiz-adv-x="2255" d="M82 707q0 200 75.5 365t229 263.5t377.5 98.5q141 0 248.5 -44t179.5 -124v147h940v-233h-686v-357h639v-233h-639v-350h686v-240h-940v147q-154 -167 -428 -167q-224 0 -377.5 98.5t-229 263.5t-75.5 365zM336 707q0 -139 45 -249t141 -174.5t242 -64.5t242 64.5 t141 174.5t45 249t-45 248.5t-141 174t-242 64.5t-242 -64.5t-141 -174t-45 -248.5z" />
<glyph unicode="&#x153;" horiz-adv-x="1829" d="M51 496q0 141 63.5 259t180 187.5t268.5 69.5q114 0 209.5 -46t161.5 -124q132 170 354 170q173 0 279 -72t151 -187.5t45 -254.5q0 -23 -2 -41.5t-3.5 -27.5t-2.5 -11h-686q14 -88 79 -140.5t169 -52.5q80 0 141 25.5t115 81.5l176 -156q-179 -188 -430 -188 q-123 0 -222 44.5t-159 121.5q-68 -84 -163 -129t-212 -45q-151 0 -267.5 69.5t-180.5 187.5t-64 259zM305 494q0 -141 61.5 -224.5t190.5 -83.5t193.5 85t64.5 225t-61.5 223.5t-190.5 83.5t-193.5 -84.5t-64.5 -224.5zM1071 596h442q-14 101 -68.5 152t-156.5 51 q-93 0 -146.5 -55t-70.5 -148z" />
<glyph unicode="&#x178;" horiz-adv-x="1319" d="M-2 1413h307l352 -618l355 618h309l-528 -862v-551h-265v551zM376 1600v225h205v-225h-205zM731 1600v225h204v-225h-204z" />
<glyph unicode="&#x2c6;" horiz-adv-x="653" d="M10 1098l316 352l317 -352h-188l-129 145l-127 -145h-189z" />
<glyph unicode="&#x2dc;" horiz-adv-x="872" d="M133 1133q0 137 57 211.5t156 74.5q56 0 93.5 -23.5t79.5 -65.5q29 -28 45.5 -40t35.5 -12q27 0 44.5 35.5t17.5 99.5h145q0 -137 -55.5 -212t-153.5 -75q-43 0 -76 13.5t-55 31.5t-49 47q-26 27 -43 39.5t-37 12.5q-31 0 -48 -35.5t-17 -101.5h-140z" />
<glyph unicode="&#x2000;" horiz-adv-x="931" />
<glyph unicode="&#x2001;" horiz-adv-x="1862" />
<glyph unicode="&#x2002;" horiz-adv-x="931" />
<glyph unicode="&#x2003;" horiz-adv-x="1862" />
<glyph unicode="&#x2004;" horiz-adv-x="620" />
<glyph unicode="&#x2005;" horiz-adv-x="465" />
<glyph unicode="&#x2006;" horiz-adv-x="310" />
<glyph unicode="&#x2007;" horiz-adv-x="310" />
<glyph unicode="&#x2008;" horiz-adv-x="232" />
<glyph unicode="&#x2009;" horiz-adv-x="372" />
<glyph unicode="&#x200a;" horiz-adv-x="103" />
<glyph unicode="&#x2010;" horiz-adv-x="866" d="M141 508v184h584v-184h-584z" />
<glyph unicode="&#x2011;" horiz-adv-x="866" d="M141 508v184h584v-184h-584z" />
<glyph unicode="&#x2012;" horiz-adv-x="866" d="M141 508v184h584v-184h-584z" />
<glyph unicode="&#x2013;" horiz-adv-x="1051" d="M141 508v184h768v-184h-768z" />
<glyph unicode="&#x2014;" horiz-adv-x="2048" d="M0 508v184h2048v-184h-2048z" />
<glyph unicode="&#x2018;" horiz-adv-x="573" d="M55 1413h277l137 -557h-162z" />
<glyph unicode="&#x2019;" horiz-adv-x="573" d="M104 856l138 557h276l-252 -557h-162z" />
<glyph unicode="&#x201a;" horiz-adv-x="553" d="M106 -225l134 489h254l-246 -489h-142z" />
<glyph unicode="&#x201c;" horiz-adv-x="963" d="M55 1413h277l137 -557h-162zM444 1413h277l137 -557h-162z" />
<glyph unicode="&#x201d;" horiz-adv-x="963" d="M104 856l138 557h276l-252 -557h-162zM494 856l137 557h276l-252 -557h-161z" />
<glyph unicode="&#x201e;" horiz-adv-x="901" d="M106 -225l134 489h254l-246 -489h-142zM455 -225l133 489h254l-246 -489h-141z" />
<glyph unicode="&#x2022;" horiz-adv-x="758" d="M141 481q0 64 32 119t87 87t119 32t118.5 -32t86.5 -87t32 -119t-32 -118.5t-86.5 -86.5t-118.5 -32t-119 32t-87 86.5t-32 118.5z" />
<glyph unicode="&#x2026;" horiz-adv-x="1475" d="M201 0v264h245v-264h-245zM614 0v264h246v-264h-246zM1028 0v264h246v-264h-246z" />
<glyph unicode="&#x202f;" horiz-adv-x="372" />
<glyph unicode="&#x2039;" horiz-adv-x="592" d="M16 510l428 356v-211l-180 -145l180 -143v-211z" />
<glyph unicode="&#x203a;" horiz-adv-x="594" d="M145 156v211l181 143l-181 145v211l428 -356z" />
<glyph unicode="&#x205f;" horiz-adv-x="465" />
<glyph unicode="&#x20ac;" horiz-adv-x="1266" d="M96 453l78 180h72q-2 26 -2 74l1 45q1 15 1 41h-150l78 186h98q52 210 181 333.5t333 123.5q121 0 222 -52.5t174 -152.5l-156 -123q-42 55 -103.5 82t-136.5 27q-116 0 -192.5 -63t-116.5 -175h531l-78 -182h-486q-4 -54 -4 -74q0 -32 4 -82h564l-78 -180h-453 q40 -126 117 -194t194 -68q76 0 133.5 26.5t100.5 85.5l147 -145q-72 -91 -169.5 -138.5t-211.5 -47.5q-207 0 -338 129t-180 344h-174z" />
<glyph unicode="&#x2122;" horiz-adv-x="1405" d="M133 1274v139h442v-139h-145v-397h-151v397h-146zM662 877v536h149l115 -315l114 315h148v-536h-152v266l-61 -185h-96l-66 189v-270h-151z" />
<glyph unicode="&#x25fc;" horiz-adv-x="1000" d="M0 0v1000h1000v-1000h-1000z" />
<glyph unicode="&#xfb03;" horiz-adv-x="1780" d="M20 795v204h164v72q0 111 57.5 193.5t154 126t210.5 43.5q86 0 169.5 -25.5t148.5 -77.5q63 53 150.5 78t170.5 25q184 0 367 -123l-129 -187q-40 40 -92 68.5t-138 28.5q-206 0 -206 -154v-68h593v-999h-235v795h-358v-795h-246v795h-373v-795h-244v795h-164zM428 999 h375v72q0 45 6 82q-38 40 -82.5 60t-108.5 20q-95 0 -142.5 -44t-47.5 -122v-68z" />
<glyph unicode="&#xfb04;" horiz-adv-x="1812" d="M20 795v204h164v93q0 116 56.5 193t150 113t205.5 36q92 0 173.5 -27.5t154.5 -91.5q51 64 139.5 91.5t185.5 27.5q140 0 231 -44t158 -114v-1010q0 -39 19 -53t51 -14q34 0 61 6v-205q-102 -20 -167 -20q-87 0 -144 48.5t-57 170.5v970q-27 18 -65 30.5t-99 12.5 q-197 0 -197 -155v-58h197v-204h-197v-795h-245v795h-367v-795h-246v795h-162zM428 999h369q0 93 2 142q-30 28 -72 49.5t-119 21.5q-93 0 -136.5 -38.5t-43.5 -102.5v-72z" />
</font>
</defs>
</svg>
