<?xml version="1.0" encoding="UTF-8"?>
<svg width="142px" height="39px" viewBox="0 0 142 39" version="1.1" xmlns="http://www.w3.org/2000/svg" xmlns:xlink="http://www.w3.org/1999/xlink">
    <!-- Generator: sketchtool 56.2 (101010) - https://sketch.com -->
    <title>F24CC48F-AEA9-41E8-A8D0-3AD1895F334C</title>
    <desc>Created with sketchtool.</desc>
    <g id="Page-1" stroke="none" stroke-width="1" fill="none" fill-rule="evenodd">
        <g id="Home" transform="translate(-327.000000, -2561.000000)" fill="#FFFFFF" fill-rule="nonzero">
            <g id="Footer" transform="translate(0.000000, 2463.000000)">
                <g id="Logos" transform="translate(110.000000, 80.000000)">
                    <g id="Footer-Matrix-Logo-White" transform="translate(217.273523, 17.647059)">
                        <polygon id="Path" points="22.8122535 39.1386555 22.4603936 23.0435924 14.0861266 35.9480042 13.5231507 35.9480042 5.07851174 23.1144958 4.79702378 39.1386555 0.293216337 39.1386555 1.4191682 11.982668 2.12288811 11.9117647 13.9453826 29.7085084 25.4863892 11.9117647 26.1901091 11.982668 27.316061 39.1386555"></polygon>
                        <path d="M50.1165861,39.1386555 L47.5128225,32.970063 L36.9570238,32.970063 L34.3532601,39.1386555 L29.6383367,39.1386555 L41.8830632,11.9117647 L42.5164111,11.9117647 L54.7611376,39.1386555 L50.1165861,39.1386555 Z M42.2349231,20.420168 L38.4348356,29.3539916 L46.0350106,29.3539916 L42.2349231,20.420168 Z" id="Shape"></path>
                        <polygon id="Path" points="64.3317284 16.5204832 64.3317284 39.2095588 59.7575489 39.2095588 59.7575489 16.5204832 51.31291 16.5204832 51.31291 12.3371849 72.7763673 12.3371849 72.7763673 16.5204832"></polygon>
                        <path d="M90.2989931,39.1386555 L84.4581179,29.4957983 C84.2470019,29.4957983 83.9655139,29.5667017 83.754398,29.5667017 C83.543282,29.5667017 83.261794,29.5667017 83.050678,29.5667017 C82.6284461,29.5667017 82.2062141,29.5667017 81.7136102,29.5667017 C81.2913783,29.5667017 80.7987743,29.5667017 80.3765424,29.4957983 L80.3765424,39.2095588 L75.8023629,39.2095588 L75.8023629,12.6207983 C76.8579428,12.4789916 77.9838947,12.4080882 79.1098465,12.3371849 C80.2357984,12.2662815 81.5024942,12.1953782 82.8395621,12.1953782 C84.7396058,12.1953782 86.3581616,12.4080882 87.6952295,12.8335084 C89.0322973,13.2589286 90.2286212,13.8970588 91.073085,14.6060924 C91.9879209,15.3860294 92.6212689,16.2368697 93.0435008,17.3004202 C93.4657327,18.2930673 93.6768487,19.427521 93.6768487,20.6328782 C93.6768487,22.4054621 93.2546168,23.9653361 92.3397809,25.3125 C91.424945,26.6596639 90.1582492,27.7232143 88.4693214,28.4322479 L95.4361485,39.2095588 L90.2989931,39.2095588 L90.2989931,39.1386555 Z M89.0322973,20.8455882 C89.0322973,19.4984244 88.5396934,18.3639706 87.5544855,17.5131303 C86.5692776,16.6622899 85.2322098,16.2368697 83.47291,16.2368697 C82.9099341,16.2368697 82.4173301,16.2368697 81.8543542,16.3077731 C81.3617503,16.3077731 80.8691463,16.3786765 80.3765424,16.5204832 L80.3765424,25.6670168 C80.7987743,25.7379202 81.2210063,25.7379202 81.6432382,25.8088235 C82.0654702,25.8088235 82.5580741,25.8797269 82.9803061,25.8797269 C84.9507218,25.8797269 86.4285336,25.4543067 87.4137415,24.532563 C88.4693214,23.6108194 89.0322973,22.4054621 89.0322973,20.8455882 Z" id="Shape"></path>
                        <polygon id="Path" points="99.72884 39.1386555 99.72884 12.3371849 104.232647 12.3371849 104.232647 39.1386555"></polygon>
                        <polygon id="Path" points="108.103107 12.3371849 113.52175 12.3371849 131.677724 39.1386555 126.259081 39.1386555"></polygon>
                        <g id="Group" opacity="0.7" transform="translate(107.962363, 0.000000)">
                            <polygon id="Path" points="32.9340919 0.709033614 28.0080525 0.709033614 27.5858206 1.34716386 32.441488 1.34716386"></polygon>
                            <polygon id="Path" points="26.6709847 2.55252101 31.5970241 2.55252101 32.019256 1.91439076 27.1635886 1.91439076"></polygon>
                            <polygon id="Path" points="25.8265208 3.75787815 30.6821882 3.75787815 31.1747921 3.1197479 26.2487527 3.1197479"></polygon>
                            <polygon id="Path" points="24.9820569 5.03413865 29.8377243 5.03413865 30.3303282 4.39600841 25.4042888 4.39600841"></polygon>
                            <polygon id="Path" points="24.067221 6.2394958 28.9932604 6.2394958 29.4154923 5.60136555 24.5598249 5.60136555"></polygon>
                            <polygon id="Path" points="23.2227571 7.44485294 28.0784245 7.44485294 28.5710284 6.80672269 23.6449891 6.80672269"></polygon>
                            <polygon id="Path" points="22.3782932 8.65021009 27.2339606 8.65021009 27.7265646 8.01207983 22.8005252 8.01207983"></polygon>
                            <polygon id="Path" points="21.4634573 9.85556726 26.3894967 9.85556726 26.8117287 9.217437 21.9560613 9.217437"></polygon>
                            <polygon id="Path" points="20.6189934 11.1318277 25.4746608 11.1318277 25.9672648 10.4936974 21.0412254 10.4936974"></polygon>
                            <polygon id="Path" points="19.7745295 12.3371849 24.6301969 12.3371849 25.1228009 11.6990546 20.1967615 11.6990546"></polygon>
                            <polygon id="Path" points="18.8596937 13.542542 23.785733 13.542542 24.207965 12.9044118 19.3522976 12.9044118"></polygon>
                            <polygon id="Path" points="18.0152298 14.7478991 22.8708972 14.7478991 23.3635011 14.1097689 18.4374617 14.1097689"></polygon>
                            <polygon id="Path" points="17.1707659 15.9532563 22.0264333 15.9532563 22.5190372 15.3151261 17.5929978 15.3151261"></polygon>
                            <polygon id="Path" points="16.25593 17.2295168 21.1819694 17.2295168 21.6042013 16.5913865 16.7485339 16.5913865"></polygon>
                            <polygon id="Path" points="15.4114661 18.4348739 20.2671335 18.4348739 20.7597374 17.7967437 15.833698 17.7967437"></polygon>
                            <polygon id="Path" points="14.5670022 19.6402311 19.4226696 19.6402311 19.9152735 19.0021009 14.9892341 19.0021009"></polygon>
                            <polygon id="Path" points="13.6521663 20.8455882 18.5782057 20.8455882 19.0004376 20.207458 14.1447702 20.207458"></polygon>
                            <polygon id="Path" points="12.8077024 22.0509454 17.7337418 22.0509454 18.1559737 21.4128151 13.2299344 21.4128151"></polygon>
                            <polygon id="Path" points="11.9632385 23.3272059 16.8189059 23.3272059 17.3115098 22.6890756 12.3854705 22.6890756"></polygon>
                            <polygon id="Path" points="11.0484026 24.532563 15.974442 24.532563 16.396674 23.8944327 11.5410066 23.8944327"></polygon>
                            <polygon id="Path" points="10.2039387 25.7379202 15.0596061 25.7379202 15.5522101 25.0997899 10.6261707 25.0997899"></polygon>
                            <polygon id="Path" points="9.35947484 26.9432773 14.2151422 26.9432773 14.7077462 26.3051471 9.78170678 26.3051471"></polygon>
                            <polygon id="Path" points="8.44463895 28.1486344 13.3706783 28.1486344 13.7929103 27.5105042 8.93724289 27.5105042"></polygon>
                            <polygon id="Path" points="7.60017505 29.424895 12.5262144 29.424895 12.9484464 28.7867647 8.022407 28.7867647"></polygon>
                            <polygon id="Path" points="6.75571116 30.6302521 11.6113786 30.6302521 12.1039825 29.9921218 7.17794311 29.9921218"></polygon>
                            <polygon id="Path" points="5.84087527 31.8356092 10.7669147 31.8356092 11.1891466 31.197479 6.33347921 31.197479"></polygon>
                            <polygon id="Path" points="4.99641138 33.0409664 9.92245077 33.0409664 10.3446827 32.4028361 5.41864333 32.4028361"></polygon>
                            <polygon id="Path" points="4.15194748 34.2463235 9.00761488 34.2463235 9.50021882 33.6081933 4.57417943 33.6081933"></polygon>
                            <polygon id="Path" points="3.2371116 35.5225841 8.16315098 35.5225841 8.58538293 34.8844538 3.72971554 34.8844538"></polygon>
                            <polygon id="Path" points="2.3926477 36.7279412 7.31868709 36.7279412 7.74091904 36.0898109 2.81487965 36.0898109"></polygon>
                            <polygon id="Path" points="1.54818381 37.9332983 6.4038512 37.9332983 6.89645514 37.295168 1.97041575 37.295168"></polygon>
                            <polygon id="Path" points="0.633347921 39.1386555 5.55938731 39.1386555 5.98161926 38.5005252 1.12595186 38.5005252"></polygon>
                        </g>
                    </g>
                </g>
            </g>
        </g>
    </g>
</svg>