<?xml version="1.0" encoding="UTF-8"?>
<svg width="188px" height="41px" viewBox="0 0 188 41" version="1.1" xmlns="http://www.w3.org/2000/svg" xmlns:xlink="http://www.w3.org/1999/xlink">
    <!-- Generator: sketchtool 56.2 (101010) - https://sketch.com -->
    <title>82EB94D2-B44D-4DF5-A9C5-FCBB76043897</title>
    <desc>Created with sketchtool.</desc>
    <defs>
        <polygon id="path-1" points="0.012643326 30.5247093 0.012643326 0.206127674 26.0305011 0.206127674 26.0305011 30.5247093"></polygon>
        <polygon id="path-3" points="0.012643326 30.5247093 0.012643326 0.206127674 26.0305011 0.206127674 26.0305011 30.5247093"></polygon>
    </defs>
    <g id="Page-1" stroke="none" stroke-width="1" fill="none" fill-rule="evenodd">
        <g id="Mobile" transform="translate(-65.000000, -3737.000000)">
            <g id="Footer" transform="translate(0.000000, 3375.000000)">
                <g id="Logos" transform="translate(65.000000, 70.000000)">
                    <g id="Footer-collegeSocialScience" transform="translate(0.000000, 292.000000)">
                        <polygon id="Line-3" fill="#FFFFFF" fill-rule="nonzero" points="33.6921225 0.188502674 33.6921225 40.5370979 34.1603939 40.5370979 34.1603939 0.188502674"></polygon>
                        <path d="M47.9552928,18.8985241 C49.418547,18.8985241 50.3625821,18.3166164 51.2358144,17.4496924 L50.8227992,17.0459198 C49.9849681,17.8772166 49.1707378,18.3403676 47.9788936,18.3403676 C46.0082206,18.3403676 44.4859642,16.7015254 44.4859642,14.5995321 L44.4859642,14.5757807 C44.4859642,12.485663 45.9846196,10.8586965 47.9670932,10.8586965 C49.2061392,10.8586965 50.0321698,11.3812259 50.7519965,12.0818904 L51.1886127,11.6306149 C50.3389812,10.8468208 49.4539483,10.3005401 47.9788936,10.3005401 C45.5952052,10.3005401 43.8487405,12.2481498 43.8487405,14.5995321 L43.8487405,14.6232834 C43.8487405,17.0102929 45.5952052,18.8985241 47.9552928,18.8985241 Z M55.3423668,18.8985241 C53.5605007,18.8985241 52.2624526,17.4496924 52.2624526,15.7514719 L52.2624526,15.7277206 C52.2624526,14.0295 53.5723011,12.5569171 55.3659676,12.5569171 C57.1478337,12.5569171 58.4458819,14.0057487 58.4458819,15.7039693 L58.4458819,15.7277206 C58.4458819,17.4259412 57.1360333,18.8985241 55.3423668,18.8985241 Z M55.3659676,18.3522433 C56.7938206,18.3522433 57.8204587,17.1765521 57.8204587,15.7514719 L57.8204587,15.7277206 C57.8204587,14.2670134 56.7348184,13.1031979 55.3423668,13.1031979 C53.9145138,13.1031979 52.8878757,14.278889 52.8878757,15.7039693 L52.8878757,15.7277206 C52.8878757,17.1884277 53.973516,18.3522433 55.3659676,18.3522433 Z M60.310351,18.756016 L60.8885724,18.756016 L60.8885724,10.0867781 L60.310351,10.0867781 L60.310351,18.756016 Z M63.24866,18.756016 L63.8268814,18.756016 L63.8268814,10.0867781 L63.24866,10.0867781 L63.24866,18.756016 Z M68.6414599,18.8985241 C67.0602012,18.8985241 65.6913506,17.6278275 65.6913506,15.7395963 L65.6913506,15.7158449 C65.6913506,13.958246 66.918596,12.5569171 68.5470565,12.5569171 C70.234519,12.5569171 71.3083589,13.9344947 71.3083589,15.7277206 C71.3083589,15.8346017 71.3083589,15.8702286 71.2965584,15.965234 L66.3049733,15.965234 C66.4111773,17.4734439 67.4850171,18.3522433 68.6650608,18.3522433 C69.5972954,18.3522433 70.234519,17.9365949 70.7301374,17.4021899 L71.1313523,17.7584599 C70.5177295,18.4234973 69.7979029,18.8985241 68.6414599,18.8985241 Z M66.3049733,15.4427046 L70.6829357,15.4427046 C70.6003325,14.2195107 69.9041068,13.0913223 68.5234556,13.0913223 C67.3316113,13.0913223 66.4111773,14.100754 66.3049733,15.4427046 Z M75.6391195,20.6798743 C74.6360823,20.6798743 73.7038477,20.3711069 72.8778171,19.7535723 L73.2200298,19.2785454 C73.9398565,19.8367019 74.7658871,20.1335936 75.6509199,20.1335936 C77.0315711,20.1335936 78.0110074,19.3379238 78.0110074,17.7822112 L78.0110074,16.9034118 C77.4917882,17.6515789 76.6893584,18.3047406 75.4975142,18.3047406 C74.0460604,18.3047406 72.606407,17.1884277 72.606407,15.4545802 L72.606407,15.4308289 C72.606407,13.6851056 74.0460604,12.5569171 75.4975142,12.5569171 C76.7011589,12.5569171 77.5153891,13.1982032 78.0110074,13.9107433 L78.0110074,12.6994252 L78.5892289,12.6994252 L78.5892289,17.8178382 C78.5892289,18.6966377 78.3060184,19.3854265 77.8222004,19.8723289 C77.3029812,20.3948583 76.5241524,20.6798743 75.6391195,20.6798743 Z M75.5565165,17.7465843 C76.8073628,17.7465843 78.0464088,16.8202821 78.0464088,15.4427046 L78.0464088,15.4189532 C78.0464088,14.0176243 76.8073628,13.1150735 75.5565165,13.1150735 C74.2938696,13.1150735 73.2318302,13.993873 73.2318302,15.4070775 L73.2318302,15.4308289 C73.2318302,16.7965307 74.3174705,17.7465843 75.5565165,17.7465843 Z M83.3212043,18.8985241 C81.7399457,18.8985241 80.371095,17.6278275 80.371095,15.7395963 L80.371095,15.7158449 C80.371095,13.958246 81.5983404,12.5569171 83.2268009,12.5569171 C84.9142635,12.5569171 85.9881033,13.9344947 85.9881033,15.7277206 C85.9881033,15.8346017 85.9881033,15.8702286 85.9763029,15.965234 L80.9847177,15.965234 C81.0909217,17.4734439 82.1647615,18.3522433 83.3448053,18.3522433 C84.2770398,18.3522433 84.9142635,17.9365949 85.4098818,17.4021899 L85.8110967,17.7584599 C85.197474,18.4234973 84.4776472,18.8985241 83.3212043,18.8985241 Z M80.9847177,15.4427046 L85.3626801,15.4427046 C85.280077,14.2195107 84.5838512,13.0913223 83.2032,13.0913223 C82.0113558,13.0913223 81.0909217,14.100754 80.9847177,15.4427046 Z M93.8825962,18.8985241 C92.1007299,18.8985241 90.8026815,17.4496924 90.8026815,15.7514719 L90.8026815,15.7277206 C90.8026815,14.0295 92.1125304,12.5569171 93.9061972,12.5569171 C95.6880626,12.5569171 96.986111,14.0057487 96.986111,15.7039693 L96.986111,15.7277206 C96.986111,17.4259412 95.676263,18.8985241 93.8825962,18.8985241 Z M93.9061972,18.3522433 C95.3340502,18.3522433 96.3606878,17.1765521 96.3606878,15.7514719 L96.3606878,15.7277206 C96.3606878,14.2670134 95.2750477,13.1031979 93.8825962,13.1031979 C92.4547432,13.1031979 91.4281047,14.278889 91.4281047,15.7039693 L91.4281047,15.7277206 C91.4281047,17.1884277 92.5137457,18.3522433 93.9061972,18.3522433 Z M99.1219906,18.756016 L99.7002118,18.756016 L99.7002118,13.2338302 L101.800689,13.2338302 L101.800689,12.6994252 L99.7002118,12.6994252 L99.7002118,12.1175174 C99.7002118,11.0843343 100.089627,10.5855561 100.915657,10.5855561 C101.222469,10.5855561 101.470278,10.6330588 101.81249,10.7399399 L101.81249,10.1936591 C101.54108,10.0986537 101.28147,10.051151 100.915657,10.051151 C100.384637,10.051151 99.9598211,10.2174105 99.6530098,10.5261777 C99.3107969,10.8705723 99.1219906,11.4168529 99.1219906,12.1056417 L99.1219906,12.6994252 L98.2487578,12.6994252 L98.2487578,13.2338302 L99.1219906,13.2338302 L99.1219906,18.756016 Z M109.506375,18.8747727 C111.099435,18.8747727 112.244076,17.9484706 112.244076,16.60652 L112.244076,16.5827687 C112.244076,15.3714506 111.441647,14.6826618 109.529976,14.2907647 C107.571103,13.886992 107.122687,13.352587 107.122687,12.4737874 L107.122687,12.4500361 C107.122687,11.5831123 107.925117,10.8824479 109.140562,10.8824479 C110.049195,10.8824479 110.828025,11.1437126 111.606854,11.8206257 L111.996268,11.3337233 C111.158437,10.6568101 110.367808,10.3242914 109.164163,10.3242914 C107.630106,10.3242914 106.509064,11.2743449 106.509064,12.5094145 L106.509064,12.5331657 C106.509064,13.7919866 107.311494,14.4688998 109.293968,14.8726725 C111.170237,15.2526939 111.630454,15.7633476 111.630454,16.6421471 L111.630454,16.6658983 C111.630454,17.6159519 110.780823,18.3166164 109.541777,18.3166164 C108.326332,18.3166164 107.488501,17.9247193 106.579867,17.0815468 L106.178652,17.5446979 C107.169889,18.435373 108.184726,18.8747727 109.506375,18.8747727 Z M116.799046,18.8985241 C115.01718,18.8985241 113.719131,17.4496924 113.719131,15.7514719 L113.719131,15.7277206 C113.719131,14.0295 115.02898,12.5569171 116.822646,12.5569171 C118.604513,12.5569171 119.902561,14.0057487 119.902561,15.7039693 L119.902561,15.7277206 C119.902561,17.4259412 118.592713,18.8985241 116.799046,18.8985241 Z M116.822646,18.3522433 C118.2505,18.3522433 119.277138,17.1765521 119.277138,15.7514719 L119.277138,15.7277206 C119.277138,14.2670134 118.191497,13.1031979 116.799046,13.1031979 C115.371193,13.1031979 114.344555,14.278889 114.344555,15.7039693 L114.344555,15.7277206 C114.344555,17.1884277 115.430196,18.3522433 116.822646,18.3522433 Z M124.339525,18.8985241 C125.448767,18.8985241 126.180394,18.399746 126.794017,17.6990816 L126.392802,17.3428115 C125.885383,17.9128436 125.224559,18.3522433 124.374927,18.3522433 C122.994276,18.3522433 121.896835,17.1884277 121.896835,15.7277206 L121.896835,15.7039693 C121.896835,14.2551377 122.958874,13.1031979 124.327725,13.1031979 C125.224559,13.1031979 125.81458,13.566349 126.3338,14.100754 L126.746815,13.67323 C126.180394,13.0794465 125.472368,12.5569171 124.339525,12.5569171 C122.616662,12.5569171 121.271412,14.0295 121.271412,15.7277206 L121.271412,15.7514719 C121.271412,17.4496924 122.604861,18.8985241 124.339525,18.8985241 Z M128.434278,11.1199612 L129.154104,11.1199612 L129.154104,10.3242914 L128.434278,10.3242914 L128.434278,11.1199612 Z M128.505079,18.756016 L129.083301,18.756016 L129.083301,12.6994252 L128.505079,12.6994252 L128.505079,18.756016 Z M133.189854,18.8985241 C132.068812,18.8985241 130.865168,18.257238 130.865168,16.9984171 L130.865168,16.9746657 C130.865168,15.7158449 131.939007,15.0033049 133.496665,15.0033049 C134.334496,15.0033049 134.912717,15.1101859 135.490939,15.2645696 L135.490939,15.0033049 C135.490939,13.780111 134.747511,13.1507006 133.508465,13.1507006 C132.776839,13.1507006 132.175016,13.352587 131.620395,13.6376029 L131.407987,13.1269492 C132.068812,12.8181818 132.717836,12.6044198 133.543867,12.6044198 C134.358097,12.6044198 135.007121,12.8300576 135.443737,13.2694571 C135.844953,13.67323 136.05736,14.2313863 136.05736,14.9795535 L136.05736,18.756016 L135.490939,18.756016 L135.490939,17.7465843 C135.077924,18.328492 134.334496,18.8985241 133.189854,18.8985241 Z M133.225255,18.3522433 C134.4525,18.3522433 135.50274,17.5922006 135.50274,16.4877634 L135.50274,15.7989746 C134.995321,15.6683422 134.322697,15.5258343 133.461264,15.5258343 C132.186816,15.5258343 131.47879,16.0958664 131.47879,16.9390388 L131.47879,16.9627901 C131.47879,17.8415895 132.304821,18.3522433 133.225255,18.3522433 Z M138.216841,18.756016 L138.795062,18.756016 L138.795062,10.0867781 L138.216841,10.0867781 L138.216841,18.756016 Z M147.539186,18.8747727 C149.132245,18.8747727 150.276887,17.9484706 150.276887,16.60652 L150.276887,16.5827687 C150.276887,15.3714506 149.474458,14.6826618 147.562787,14.2907647 C145.603914,13.886992 145.155498,13.352587 145.155498,12.4737874 L145.155498,12.4500361 C145.155498,11.5831123 145.957927,10.8824479 147.173373,10.8824479 C148.082006,10.8824479 148.860835,11.1437126 149.639664,11.8206257 L150.029078,11.3337233 C149.191247,10.6568101 148.400618,10.3242914 147.196974,10.3242914 C145.662917,10.3242914 144.541875,11.2743449 144.541875,12.5094145 L144.541875,12.5331657 C144.541875,13.7919866 145.344304,14.4688998 147.326778,14.8726725 C149.203048,15.2526939 149.663265,15.7633476 149.663265,16.6421471 L149.663265,16.6658983 C149.663265,17.6159519 148.813634,18.3166164 147.574587,18.3166164 C146.359142,18.3166164 145.521311,17.9247193 144.612677,17.0815468 L144.211462,17.5446979 C145.202699,18.435373 146.217537,18.8747727 147.539186,18.8747727 Z M154.820056,18.8985241 C155.929298,18.8985241 156.660924,18.399746 157.274547,17.6990816 L156.873332,17.3428115 C156.365914,17.9128436 155.705089,18.3522433 154.855457,18.3522433 C153.474806,18.3522433 152.377365,17.1884277 152.377365,15.7277206 L152.377365,15.7039693 C152.377365,14.2551377 153.439405,13.1031979 154.808256,13.1031979 C155.705089,13.1031979 156.295111,13.566349 156.81433,14.100754 L157.227345,13.67323 C156.660924,13.0794465 155.952898,12.5569171 154.820056,12.5569171 C153.097192,12.5569171 151.751942,14.0295 151.751942,15.7277206 L151.751942,15.7514719 C151.751942,17.4496924 153.085391,18.8985241 154.820056,18.8985241 Z M158.914808,11.1199612 L159.634635,11.1199612 L159.634635,10.3242914 L158.914808,10.3242914 L158.914808,11.1199612 Z M158.98561,18.756016 L159.563832,18.756016 L159.563832,12.6994252 L158.98561,12.6994252 L158.98561,18.756016 Z M164.37841,18.8985241 C162.797152,18.8985241 161.428301,17.6278275 161.428301,15.7395963 L161.428301,15.7158449 C161.428301,13.958246 162.655547,12.5569171 164.284007,12.5569171 C165.97147,12.5569171 167.045309,13.9344947 167.045309,15.7277206 C167.045309,15.8346017 167.045309,15.8702286 167.033509,15.965234 L162.041924,15.965234 C162.148128,17.4734439 163.221968,18.3522433 164.402011,18.3522433 C165.334246,18.3522433 165.97147,17.9365949 166.467088,17.4021899 L166.868303,17.7584599 C166.25468,18.4234973 165.534854,18.8985241 164.37841,18.8985241 Z M162.041924,15.4427046 L166.419886,15.4427046 C166.337283,14.2195107 165.641057,13.0913223 164.260405,13.0913223 C163.068562,13.0913223 162.148128,14.100754 162.041924,15.4427046 Z M168.732772,18.756016 L169.310994,18.756016 L169.310994,15.2526939 C169.310994,13.993873 170.219627,13.0913223 171.399671,13.0913223 C172.615116,13.0913223 173.311341,13.9107433 173.311341,15.1576885 L173.311341,18.756016 L173.889563,18.756016 L173.889563,15.0508076 C173.889563,13.6019759 173.004531,12.5569171 171.482275,12.5569171 C170.384833,12.5569171 169.712208,13.1150735 169.310994,13.8276137 L169.310994,12.6994252 L168.732772,12.6994252 L168.732772,18.756016 Z M178.621539,18.8985241 C179.73078,18.8985241 180.462407,18.399746 181.07603,17.6990816 L180.674815,17.3428115 C180.167396,17.9128436 179.506571,18.3522433 178.656939,18.3522433 C177.276289,18.3522433 176.178848,17.1884277 176.178848,15.7277206 L176.178848,15.7039693 C176.178848,14.2551377 177.240888,13.1031979 178.609738,13.1031979 C179.506571,13.1031979 180.096594,13.566349 180.615813,14.100754 L181.028827,13.67323 C180.462407,13.0794465 179.754381,12.5569171 178.621539,12.5569171 C176.898675,12.5569171 175.553425,14.0295 175.553425,15.7277206 L175.553425,15.7514719 C175.553425,17.4496924 176.886874,18.8985241 178.621539,18.8985241 Z M185.064577,18.8985241 C183.483319,18.8985241 182.114468,17.6278275 182.114468,15.7395963 L182.114468,15.7158449 C182.114468,13.958246 183.341715,12.5569171 184.970174,12.5569171 C186.657637,12.5569171 187.731477,13.9344947 187.731477,15.7277206 C187.731477,15.8346017 187.731477,15.8702286 187.719676,15.965234 L182.728091,15.965234 C182.834295,17.4734439 183.908134,18.3522433 185.088179,18.3522433 C186.020413,18.3522433 186.657637,17.9365949 187.153255,17.4021899 L187.55447,17.7584599 C186.940848,18.4234973 186.22102,18.8985241 185.064577,18.8985241 Z M182.728091,15.4427046 L187.106053,15.4427046 C187.02345,14.2195107 186.327225,13.0913223 184.946573,13.0913223 C183.754729,13.0913223 182.834295,14.100754 182.728091,15.4427046 Z" id="College-of-Social-Sc" fill="#FFFFFF" fill-rule="nonzero"></path>
                        <g id="MSU_typegraphic" transform="translate(43.830197, 22.903076)" fill="#FFFFFF" fill-rule="nonzero">
                            <path d="M78.1028997,0.814967748 L78.1028997,5.12456299 C78.1028997,5.84410127 78.3181327,6.86424239 79.5010249,6.86424239 C80.5860838,6.86424239 80.9774165,6.06168049 80.9774165,5.04058505 L80.9587394,0.814967748 C80.9587394,0.577348346 80.8475652,0.432295539 80.7123776,0.352134776 L81.7698653,0.352134776 C81.6302307,0.432295539 81.5323975,0.577348346 81.5323975,0.814967748 L81.503937,5.02149917 C81.503937,6.76976721 80.5860838,7.4492251 79.3480493,7.4492251 C78.2852253,7.4492251 76.9289015,6.91386573 76.9289015,5.09211698 L76.9289015,0.814967748 C76.9289015,0.577348346 76.7848199,0.432295539 76.6354019,0.352134776 L78.3839477,0.352134776 C78.2380874,0.432295539 78.1028997,0.577348346 78.1028997,0.814967748" id="Fill-1"></path>
                            <path d="M87.7190124,0.814967748 C87.7190124,0.577348346 87.6291838,0.432295539 87.4815447,0.352134776 L88.4927843,0.352134776 C88.3531495,0.432295539 88.2544264,0.577348346 88.2544264,0.814967748 L88.2544264,7.63435829 C88.2544264,7.63435829 83.8883985,1.81411439 83.8883985,1.72822786 L83.8883985,6.88714548 C83.8883985,7.10854186 83.9880104,7.25550326 84.1445435,7.34711555 L83.1315254,7.34711555 C83.2693813,7.25550326 83.3716614,7.10854186 83.3716614,6.88714548 L83.3716614,1.38849891 C83.3716614,0.987695109 83.3805554,0.977197862 83.205345,0.742441344 C83.1155163,0.618383021 82.9901119,0.477147393 82.7980032,0.352134776 L84.3606659,0.352134776 L87.7190124,4.87549206 L87.7190124,0.814967748" id="Fill-2"></path>
                            <path d="M91.4224433,0.352134776 C91.2676891,0.432295539 91.185865,0.577348346 91.185865,0.814967748 L91.185865,6.88714548 C91.185865,7.10854186 91.2676891,7.25550326 91.4224433,7.34711555 L89.777067,7.34711555 C89.922927,7.25550326 90.0145346,7.10854186 90.0145346,6.88714548 L90.0145346,0.814967748 C90.0145346,0.577348346 89.922927,0.432295539 89.777067,0.352134776 L91.4224433,0.352134776" id="Fill-3"></path>
                            <path d="M96.952686,0.865545371 C97.0362888,0.597388536 96.9989345,0.451381434 96.7623562,0.352134776 L97.8740973,0.352134776 C97.6401831,0.526770723 97.6188414,0.597388536 97.5290124,0.845505181 C97.3760369,1.24630899 95.1810166,7.56278618 95.1810166,7.56278618 C95.1810166,7.56278618 92.8063384,1.2253145 92.6337959,0.845505181 C92.5252903,0.637468917 92.4141157,0.477147393 92.1401831,0.352134776 L94.1528783,0.352134776 C93.9180786,0.451381434 93.9002912,0.668006351 93.9607698,0.916122997 C93.9803359,1.00678099 95.4994191,5.23907838 95.4994191,5.23907838 C95.4994191,5.23907838 96.9473501,0.938071774 96.952686,0.865545371" id="Fill-4"></path>
                            <path d="M102.437571,1.25776054 C102.265028,0.987695109 102.077366,0.908488632 101.727836,0.886539856 C101.45835,0.865545371 100.185628,0.865545371 100.185628,0.865545371 L100.185628,3.23124215 L101.55885,3.23124215 C101.685144,3.23124215 101.839899,3.06519485 101.885258,2.94304512 L101.885258,4.03571265 C101.839899,3.89065984 101.685144,3.7341555 101.55885,3.7341555 L100.185628,3.7341555 L100.185628,6.75926996 C100.363507,6.78980741 100.918488,6.83179638 101.364963,6.81271048 C102.156522,6.78980741 102.520284,6.81271048 102.859142,6.16283573 L102.665255,7.34711555 L98.7554854,7.34711555 C98.9093502,7.24214313 99.029418,7.12953634 99.029418,6.88714548 L99.029418,0.814967748 C99.029418,0.577348346 98.9004552,0.432295539 98.7554854,0.352134776 L102.40911,0.352134776 L102.437571,1.25776054" id="Fill-5"></path>
                            <path d="M105.105748,0.865545371 L105.105748,3.54806801 C105.105748,3.54806801 105.361893,3.57287968 105.515758,3.57287968 C106.134775,3.57287968 106.790258,3.17780164 106.790258,2.1423918 C106.790258,1.66715299 106.532334,0.845505181 105.632269,0.845505181 C105.361893,0.845505181 105.105748,0.865545371 105.105748,0.865545371 Z M106.454957,3.79904754 C107.071306,3.86680248 107.345239,4.34299557 107.481316,4.57011773 C107.481316,4.57011773 108.571711,6.52260486 108.889225,6.93486021 C109.061766,7.18106827 109.471777,7.34711555 109.471777,7.34711555 L108.291552,7.36811004 C107.946469,7.36811004 107.647633,7.12953634 107.481316,6.88714548 C107.071306,6.23727071 106.673747,5.48337784 106.343783,4.90793809 C106.107204,4.49663704 105.897307,4.05193566 105.509532,4.05193566 C105.399247,4.05193566 105.105748,4.07579303 105.105748,4.07579303 L105.105748,6.88714548 C105.105748,7.10854186 105.207139,7.25550326 105.361893,7.34711555 L103.716516,7.34711555 C103.860599,7.25550326 103.953096,7.10854186 103.953096,6.88714548 L103.953096,0.814967748 C103.953096,0.577348346 103.860599,0.432295539 103.716516,0.352134776 L105.682074,0.352134776 C107.56492,0.352134776 107.989159,1.38849891 107.989159,2.07845404 C107.989159,3.18925318 107.096209,3.74465274 106.454957,3.79904754 L106.454957,3.79904754 Z" id="Fill-6"></path>
                            <path d="M113.695501,5.28679311 C113.695501,6.57413678 112.694936,7.4492251 111.57519,7.4492251 C110.750723,7.4492251 110.149494,7.12953634 109.83287,6.9549004 L109.785732,5.2161753 C109.954717,5.9481194 110.50614,6.91386573 111.448896,6.91386573 C112.348961,6.91386573 112.622894,6.18573881 112.622894,5.67996257 C112.622894,4.69322176 111.831335,4.55866619 111.002421,4.05193566 C110.164613,3.52898211 109.801741,2.97453685 109.801741,2.19106083 C109.801741,0.793973262 110.959729,0.240482286 111.788644,0.240482286 C112.093706,0.240482286 112.694936,0.308237216 113.160087,0.618383021 L113.202779,2.1423918 C113.076485,1.59558088 112.558858,0.769161597 111.687254,0.769161597 C110.993527,0.769161597 110.722262,1.3178811 110.722262,1.76067388 C110.722262,2.38955414 111.113595,2.62431066 111.967412,3.06519485 C112.815003,3.52134776 113.695501,3.85725953 113.695501,5.28679311" id="Fill-7"></path>
                            <path d="M116.24717,0.352134776 C116.092415,0.432295539 116.008812,0.577348346 116.008812,0.814967748 L116.008812,6.88714548 C116.008812,7.10854186 116.092415,7.25550326 116.24717,7.34711555 L114.601793,7.34711555 C114.744096,7.25550326 114.834814,7.10854186 114.834814,6.88714548 L114.834814,0.814967748 C114.834814,0.577348346 114.744096,0.432295539 114.601793,0.352134776 L116.24717,0.352134776" id="Fill-8"></path>
                            <path d="M120.215639,0.865545371 L120.215639,6.88714548 C120.215639,7.10854186 120.31703,7.25550326 120.455774,7.34711555 L118.826408,7.34711555 C118.970489,7.25550326 119.062986,7.10854186 119.062986,6.88714548 L119.062986,0.865545371 C118.387937,0.865545371 117.606161,0.938071774 117.606161,0.938071774 C117.386481,0.938071774 117.232617,1.17282829 117.149902,1.34650994 L117.149902,0.352134776 L122.134948,0.352134776 L122.134948,1.34650994 C122.054902,1.17282829 121.928609,0.960020559 121.706261,0.938071774 C121.706261,0.938071774 120.883573,0.865545371 120.215639,0.865545371" id="Fill-9"></path>
                            <path d="M128.076091,0.352134776 C127.795043,0.451381434 127.57892,0.742441344 127.474861,0.977197862 L126.017147,4.10442188 L126.017147,6.88714548 C126.017147,7.10854186 126.192357,7.25550326 126.337328,7.34711555 L124.516741,7.34711555 C124.655487,7.25550326 124.831587,7.12953634 124.831587,6.88714548 L124.831587,4.14831943 L123.046576,0.845505181 C122.916724,0.597388536 122.81889,0.49241611 122.575198,0.352134776 L124.627915,0.352134776 C124.402899,0.451381434 124.245477,0.504821942 124.478498,0.987695109 L125.76456,3.52134776 L126.962571,0.865545371 C127.09598,0.637468917 127.023939,0.421798296 126.77402,0.352134776 L128.076091,0.352134776" id="Fill-10"></path>
                            <path d="M5.11222861,0.443747075 L6.63131116,0.443747075 C6.48545077,0.522953542 6.39829029,0.665143466 6.39829029,0.899899985 L6.39829029,6.89191694 C6.39829029,7.11713051 6.48545077,7.26027473 6.63131116,7.34902415 L5.02417874,7.34902415 C5.16737096,7.26027473 5.25631021,7.11713051 5.25631021,6.89191694 L5.25631021,1.78262267 C5.25631021,1.66238152 5.27498745,1.54977473 5.27498745,1.54977473 L5.19227394,1.78262267 L3.0381651,7.49407695 L0.864489597,1.94580707 L0.801342724,1.67383306 C0.801342724,1.67383306 0.801342724,1.85419477 0.801342724,1.94580707 L0.801342724,6.89191694 C0.801342724,7.11713051 0.900065298,7.26027473 1.05393023,7.34902415 L0.054252948,7.34902415 C0.191219407,7.26027473 0.288163199,7.11713051 0.288163199,6.89191694 L0.288163199,0.899899985 C0.288163199,0.707132436 0.144970992,0.522953542 0,0.443747075 L1.5840082,0.443747075 L3.37702367,5.10547711 L5.11222861,0.443747075" id="Fill-11"></path>
                            <path d="M9.71038829,0.443747075 C9.55830219,0.522953542 9.47736745,0.665143466 9.47736745,0.899899985 L9.47736745,6.89191694 C9.47736745,7.11713051 9.55830219,7.26027473 9.71038829,7.34902415 L8.08546804,7.34902415 C8.22954964,7.26027473 8.31937829,7.11713051 8.31937829,6.89191694 L8.31937829,0.899899985 C8.31937829,0.665143466 8.22954964,0.522953542 8.08546804,0.443747075 L9.71038829,0.443747075" id="Fill-12"></path>
                            <path d="M16.6014021,2.43249741 C16.0526469,1.02109542 15.0004954,0.877951204 14.5709188,0.877951204 C13.0349378,0.877951204 12.1651119,2.15193475 12.1651119,3.78377883 C12.1651119,5.17800351 12.7823504,6.89191694 14.632287,6.89191694 C15.0574166,6.89191694 16.0713241,6.73159542 16.6627702,5.33832503 C16.6814474,5.29824465 16.5827248,6.80125894 16.5827248,6.80125894 C15.8374138,7.27840633 15.0396287,7.4501794 14.3014328,7.4501794 C12.5297628,7.4501794 10.9599849,6.08076638 10.9599849,3.91738009 C10.9599849,2.13762032 12.1259786,0.332094586 14.4108282,0.332094586 C15.1472452,0.332094586 15.8187366,0.49241611 16.5213568,0.859819602 C16.5213568,0.859819602 16.6183006,2.47353208 16.6014021,2.43249741" id="Fill-13"></path>
                            <path d="M21.8639381,0.443747075 L23.4906372,0.443747075 C23.3367722,0.522953542 23.2371602,0.665143466 23.2371602,0.899899985 L23.2371602,6.89191694 C23.2371602,7.11713051 23.3367722,7.26027473 23.4906372,7.34902415 L21.8639381,7.34902415 C22.0080197,7.26027473 22.0978483,7.11713051 22.0978483,6.89191694 L22.0978483,3.78377883 L19.3033768,3.78377883 L19.3033768,6.89191694 C19.3033768,7.11713051 19.3834221,7.26027473 19.537287,7.34902415 L17.9105879,7.34902415 C18.055559,7.26027473 18.146277,7.11713051 18.146277,6.89191694 L18.146277,0.899899985 C18.146277,0.665143466 18.055559,0.522953542 17.9105879,0.443747075 L19.537287,0.443747075 C19.3834221,0.522953542 19.3033768,0.665143466 19.3033768,0.899899985 L19.3033768,3.28754554 L22.0978483,3.28754554 L22.0978483,0.899899985 C22.0978483,0.665143466 22.0080197,0.522953542 21.8639381,0.443747075" id="Fill-14"></path>
                            <path d="M26.5608203,0.443747075 C26.4078448,0.522953542 26.3269101,0.665143466 26.3269101,0.899899985 L26.3269101,6.89191694 C26.3269101,7.11713051 26.4078448,7.26027473 26.5608203,7.34902415 L24.9359001,7.34902415 C25.080871,7.26027473 25.1680315,7.11713051 25.1680315,6.89191694 L25.1680315,0.899899985 C25.1680315,0.665143466 25.080871,0.522953542 24.9359001,0.443747075 L26.5608203,0.443747075" id="Fill-15"></path>
                            <g id="Group-19" transform="translate(27.571170, 0.000000)">
                                <path d="M5.82463208,0.859819602 L5.88777894,2.47353208 C5.43063116,1.09362182 4.29042986,0.877951204 3.86796838,0.877951204 C2.34354947,0.877951204 1.46216141,2.15193475 1.46216141,3.78377883 C1.46216141,5.17800351 2.07228474,6.89191694 3.93022586,6.89191694 C4.11877708,6.89191694 4.64974446,6.87378535 5.07309533,6.55982236 L5.07309533,4.79246841 C5.07309533,4.55675761 4.9805985,4.41361339 4.83918509,4.32295539 L6.4463175,4.32295539 C6.31201921,4.41361339 6.21240724,4.55675761 6.21240724,4.79246841 L6.21240724,6.29548271 C6.21240724,6.4968389 6.31201921,6.68006351 6.35737824,6.71060094 C5.60050514,7.18774833 4.32422677,7.4501794 3.60648695,7.4501794 C1.81791845,7.4501794 0.239246607,6.08076638 0.239246607,3.91738009 C0.239246607,2.13762032 1.41591301,0.332094586 3.71499285,0.332094586 C4.45140992,0.332094586 5.11667557,0.513410595 5.82463208,0.859819602" id="Fill-16"></path>
                                <path d="M10.4085615,4.91366386 C9.98165296,3.78377883 9.49159772,2.42581735 9.49159772,2.42581735 C9.49159772,2.42581735 8.88058499,4.14927373 8.59153242,4.91366386 L10.4085615,4.91366386 Z M12.3830131,6.85374515 C12.4710629,7.06750719 12.5359886,7.1753425 12.8312668,7.34902415 L10.9084001,7.34902415 C11.1431998,7.20778852 11.1858906,7.06750719 11.1280801,6.85374515 C11.0969514,6.75258991 10.8657093,6.13134401 10.6131218,5.44234316 L8.41187512,5.44234316 C8.14149977,6.13134401 7.92626677,6.73159542 7.90758952,6.84324791 C7.82754419,7.08659308 7.87379261,7.22782871 8.114818,7.34902415 L6.87589412,7.34902415 C7.12670282,7.1562566 7.20852694,7.0455584 7.29924499,6.85374515 C7.46822958,6.46534717 9.8322351,0.229030748 9.8322351,0.229030748 C9.8322351,0.229030748 12.2211436,6.46534717 12.3830131,6.85374515 L12.3830131,6.85374515 Z" id="Fill-18"></path>
                            </g>
                            <path d="M45.4862053,0.899899985 C45.4862053,0.665143466 45.397266,0.522953542 45.2540737,0.443747075 L46.2510828,0.443747075 C46.117674,0.522953542 46.0162833,0.665143466 46.0162833,0.899899985 L46.0162833,7.63435829 C46.0162833,7.63435829 41.7062868,1.8847322 41.7062868,1.80361715 L41.7062868,6.89191694 C41.7062868,7.11713051 41.8050093,7.26027473 41.9588742,7.34902415 L40.959197,7.34902415 C41.0926059,7.26027473 41.1913285,7.11713051 41.1913285,6.89191694 L41.1913285,1.46770539 C41.1913285,1.07358163 41.2002224,1.06213009 41.0312377,0.828327874 C40.9422985,0.707132436 40.8151153,0.563988219 40.6247853,0.443747075 L42.1723285,0.443747075 L45.4862053,4.91366386 L45.4862053,0.899899985" id="Fill-20"></path>
                            <path d="M53.6152535,5.31923914 C53.6152535,6.5884512 52.6280277,7.4501794 51.5251809,7.4501794 C50.7060504,7.4501794 50.1146043,7.13621642 49.8006486,6.96348905 L49.7535109,5.24671274 C49.9233849,5.97006818 50.4623568,6.92245438 51.3953297,6.92245438 C52.2865009,6.92245438 52.5577658,6.20100752 52.5577658,5.70381994 C52.5577658,4.72948496 51.7751002,4.59779228 50.9586379,4.10251329 C50.1323921,3.58146833 49.7730776,3.03274883 49.7730776,2.26167865 C49.7730776,0.877951204 50.9123895,0.332094586 51.73152,0.332094586 C52.0339135,0.332094586 52.6280277,0.402712399 53.0869543,0.707132436 L53.1305345,2.21014672 C53.0077984,1.67383306 52.4928401,0.859819602 51.6301292,0.859819602 C50.9488546,0.859819602 50.6811474,1.39804186 50.6811474,1.83320029 C50.6811474,2.4534919 51.0662544,2.690157 51.9111774,3.12340684 C52.7454276,3.57287968 53.6152535,3.90688285 53.6152535,5.31923914" id="Fill-21"></path>
                            <g id="Group-25" transform="translate(53.363556, 0.000000)">
                                <path d="M3.83683963,0.949523312 L3.83683963,6.89191694 C3.83683963,7.11713051 3.93645161,7.26027473 4.06808171,7.34902415 L2.46361748,7.34902415 C2.60769907,7.26027473 2.69663833,7.11713051 2.69663833,6.89191694 L2.69663833,0.949523312 C2.03137268,0.949523312 1.25849051,1.02109542 1.25849051,1.02109542 C1.0432575,1.02109542 0.892060765,1.25585194 0.808457865,1.427625 L0.808457865,0.443747075 L5.73302463,0.443747075 L5.73302463,1.427625 C5.65208992,1.25585194 5.52579616,1.04018132 5.30967377,1.02109542 C5.30967377,1.02109542 4.49321136,0.949523312 3.83683963,0.949523312" id="Fill-22"></path>
                                <path d="M8.43410993,4.91366386 C8.01253785,3.78377883 7.51981436,2.42581735 7.51981436,2.42581735 C7.51981436,2.42581735 6.90880164,4.14927373 6.61974905,4.91366386 L8.43410993,4.91366386 Z M10.4130084,6.85374515 C10.5019478,7.06750719 10.5624264,7.1753425 10.8621517,7.34902415 L8.94017432,7.34902415 C9.17319516,7.20778852 9.21677539,7.06750719 9.15540732,6.85374515 C9.13050434,6.75258991 8.89570468,6.13134401 8.6431172,5.44234316 L6.44098115,5.44234316 C6.17327396,6.13134401 5.95626219,6.73159542 5.93847432,6.84324791 C5.85576081,7.08659308 5.90200923,7.22782871 6.14481341,7.34902415 L4.90233196,7.34902415 C5.15847703,7.1562566 5.23852236,7.0455584 5.32746162,6.85374515 C5.49822499,6.46534717 7.86134111,0.229030748 7.86134111,0.229030748 C7.86134111,0.229030748 10.2484707,6.46534717 10.4130084,6.85374515 L10.4130084,6.85374515 Z" id="Fill-24"></path>
                            </g>
                            <path d="M66.5710354,0.949523312 L66.5710354,6.89191694 C66.5710354,7.11713051 66.6697579,7.26027473 66.801388,7.34902415 L65.1969238,7.34902415 C65.3410054,7.26027473 65.4299447,7.11713051 65.4299447,6.89191694 L65.4299447,0.949523312 C64.7620109,0.949523312 63.9917969,1.02109542 63.9917969,1.02109542 C63.7765638,1.02109542 63.6218096,1.25585194 63.5417642,1.427625 L63.5417642,0.443747075 L68.4645522,0.443747075 L68.4645522,1.427625 C68.3853963,1.25585194 68.2591026,1.04018132 68.0429801,1.02109542 C68.0429801,1.02109542 67.2265178,0.949523312 66.5710354,0.949523312" id="Fill-26"></path>
                            <path d="M73.074274,1.33792129 C72.9017319,1.07358163 72.71407,0.990557991 72.3725433,0.971472088 C72.1003891,0.949523312 70.847235,0.949523312 70.847235,0.949523312 L70.847235,3.28754554 L72.2017798,3.28754554 C72.3262948,3.28754554 72.4792703,3.12340684 72.5255188,3.0022114 L72.5255188,4.0805645 C72.4792703,3.93837458 72.3262948,3.78377883 72.2017798,3.78377883 L70.847235,3.78377883 L70.847235,6.76976721 C71.0260028,6.80125894 71.5747581,6.84324791 72.0114499,6.82225342 C72.7941154,6.80125894 73.1543194,6.82225342 73.484284,6.18096733 L73.2957328,7.34902415 L69.4331007,7.34902415 C69.5896338,7.24882319 69.7043655,7.13621642 69.7043655,6.89191694 L69.7043655,0.899899985 C69.7043655,0.665143466 69.5780717,0.522953542 69.4331007,0.443747075 L73.0475921,0.443747075 L73.074274,1.33792129" id="Fill-27"></path>
                        </g>
                        <g id="helmet_black.eps" transform="translate(0.000000, 5.089571)">
                            <g id="Group-4">
                                <g id="Fill-1-Clipped">
                                    <g>
                                        <mask id="mask-2" fill="white">
                                            <use xlink:href="#path-1"></use>
                                        </mask>
                                        <g id="path-1"></g>
                                        <path d="M24.4104696,2.29348848 C24.4104696,2.29348848 22.845858,5.67317647 22.0505928,7.35358355 C18.1545519,5.54911814 13.0458052,5.29188269 8.75318533,7.85151336 C5.89094705,9.61250532 3.5831186,12.741956 3.34458119,16.1025581 C3.26471751,18.3430302 4.23172123,20.7951437 3.91353085,23.0358279 C3.83408863,24.2354824 3.55972845,25.4340767 3.00278993,26.4731977 C2.28759912,27.6739126 1.43101378,28.7145181 0,28.7946789 C0.318401094,28.3947233 2.52719015,27.2981325 1.65859365,22.262637 C1.31406302,20.2662524 -1.41247024,15.3149469 1.22282035,9.10757735 C3.62947746,3.43970254 14.0404136,-3.27535177 24.4104696,2.29348848" id="Fill-1" fill="#FFFFFF" fill-rule="nonzero" mask="url(#mask-2)"></path>
                                    </g>
                                </g>
                                <g id="Fill-3-Clipped">
                                    <g>
                                        <mask id="mask-4" fill="white">
                                            <use xlink:href="#path-3"></use>
                                        </mask>
                                        <g id="path-3"></g>
                                        <path d="M12.4817021,12.2321506 C13.8301129,11.7429154 15.3403582,11.7340086 16.7724256,12.0529552 C19.4749366,12.5332836 21.4980795,14.1748826 22.4844696,16.6123637 C23.5165865,19.1630876 24.2572746,21.2209713 26.0298689,23.4012168 C26.080653,23.463776 23.2618234,22.984508 23.2721487,22.9060438 C23.9616315,17.8514624 19.2140626,17.6427899 17.9048462,19.5358987 C18.889972,20.6263395 20.5812276,21.1864046 21.8936048,20.9732787 C21.6154516,25.9930814 23.0064282,30.5480365 22.9280397,30.5374516 C21.7966726,30.3798685 16.6137518,27.3110686 15.0982386,25.9784488 C12.8717488,26.3777682 11.1280234,27.205672 8.54899563,27.5642748 C8.46976411,27.5753021 9.0222775,25.6497473 8.94283526,24.6897268 C8.94283526,22.0497233 6.93233567,19.5749188 8.35492057,16.3318009 C9.20771289,14.3867361 10.4941713,12.952113 12.4817021,12.2321506" id="Fill-3" fill="#FFFFFF" fill-rule="nonzero" mask="url(#mask-4)"></path>
                                    </g>
                                </g>
                            </g>
                            <path d="M14.3470142,10.7093081 C14.498102,10.7116408 14.7273676,10.7468438 14.731582,10.7307268 C14.774148,10.5564089 14.9153318,9.30458621 15.9752639,8.39185628 C17.154254,7.37627456 18.7041151,7.47679362 18.6883109,7.46725067 C17.1441394,6.99222393 15.5529768,6.95871758 14.454061,7.05647978 L14.3470142,10.7093081" id="Fill-5" fill="#FFFFFF" fill-rule="nonzero"></path>
                            <path d="M4.52588928,15.2644752 C4.29093414,16.7688679 4.27491926,18.1646831 4.40050963,18.9064883 C4.40345974,18.9162433 4.62282144,17.6323987 5.34833763,16.9096795 C5.98050394,16.2792087 6.78588381,16.1562107 7.07162297,16.1661777 C7.07162297,16.1621486 7.214914,15.6741859 7.19468468,15.6729134 L4.52588928,15.2644752" id="Fill-6" fill="#FFFFFF" fill-rule="nonzero"></path>
                            <path d="M7.51477155,14.984973 C7.59252801,14.784359 7.68714223,14.6079204 7.80282866,14.379738 L5.05964836,13.3090192 C4.88896346,13.6529895 4.7606337,14.1687327 4.6967849,14.448023 L7.51477155,14.984973" id="Fill-7" fill="#FFFFFF" fill-rule="nonzero"></path>
                            <path d="M8.1768604,13.9324918 C8.18444638,13.9237971 8.61748031,13.3681855 8.62527703,13.3736992 L6.11136236,11.4718958 C5.84985624,11.8050506 5.63618403,12.1704395 5.4652884,12.557035 L8.1768604,13.9324918" id="Fill-8" fill="#FFFFFF" fill-rule="nonzero"></path>
                            <path d="M9.11267727,12.8967639 C9.12658489,12.8823434 9.67130157,12.385474 9.67130157,12.385474 L7.49369935,9.89306806 C7.00229541,10.3222886 6.85310416,10.5156923 6.55408949,10.8815053 L9.11267727,12.8967639" id="Fill-9" fill="#FFFFFF" fill-rule="nonzero"></path>
                            <path d="M10.2436227,12.0321728 C10.2480479,12.0627102 10.8694674,11.6820526 10.8831643,11.6540599 L9.26566149,8.68959626 C8.64655995,8.99030515 8.25124529,9.31285676 8.07023501,9.44179262 L10.2436227,12.0321728" id="Fill-10" fill="#FFFFFF" fill-rule="nonzero"></path>
                            <path d="M11.4434744,11.3756179 C12.2155602,11.1115964 12.2121888,11.1035379 12.2121888,11.1177463 L11.2940725,7.78704546 C10.781807,7.93761197 10.0902171,8.235564 9.92732895,8.34583807 L11.4434744,11.3756179" id="Fill-11" fill="#FFFFFF" fill-rule="nonzero"></path>
                            <path d="M12.8100072,10.9241306 C12.8378225,10.9381269 13.5062331,10.7742002 13.5146619,10.773776 L13.5997936,7.16378493 C13.5719783,7.19177757 12.7672306,7.31456351 12.0840696,7.50796725 L12.8100072,10.9241306" id="Fill-12" fill="#FFFFFF" fill-rule="nonzero"></path>
                        </g>
                    </g>
                </g>
            </g>
        </g>
    </g>
</svg>