<?xml version="1.0" encoding="UTF-8"?>
<svg width="149px" height="33px" viewBox="0 0 149 33" version="1.1" xmlns="http://www.w3.org/2000/svg" xmlns:xlink="http://www.w3.org/1999/xlink">
    <!-- Generator: sketchtool 56.2 (101010) - https://sketch.com -->
    <title>AFB71732-526C-4E46-9DB0-77D524831732</title>
    <desc>Created with sketchtool.</desc>
    <g id="Page-1" stroke="none" stroke-width="1" fill="none" fill-rule="evenodd">
        <g id="Mobile" transform="translate(-84.000000, -3656.000000)" fill="#FFFFFF" fill-rule="nonzero">
            <g id="Footer" transform="translate(0.000000, 3375.000000)">
                <g id="Logos" transform="translate(65.000000, 70.000000)">
                    <g id="Footer-MSUWordmark" transform="translate(19.000000, 211.137255)">
                        <path d="M2.35353775,23.3277554 L2.35353775,29.1973529 C2.35353775,30.1773375 2.66667326,31.5645511 4.36277715,31.5645511 C5.91440019,31.5645511 6.47545808,30.471161 6.47545808,29.0850929 L6.4495977,23.3277554 C6.4495977,23.0052941 6.29331103,22.8082662 6.09767161,22.6954334 L7.61050407,22.6954334 C7.41486464,22.8082662 7.27150817,23.0052941 7.27150817,23.3277554 L7.23215541,29.0564551 C7.23215541,31.4379722 5.91440019,32.3629721 4.14071515,32.3629721 C2.61439031,32.3629721 0.670926239,31.6344273 0.670926239,29.1543963 L0.670926239,23.3277554 C0.670926239,23.0052941 0.462356621,22.8082662 0.253787003,22.6954334 L2.75830898,22.6954334 C2.54973935,22.8082662 2.35353775,23.0052941 2.35353775,23.3277554" id="Fill-1"></path>
                        <path d="M24.3983907,23.3277554 C24.3983907,23.0052941 24.2679645,22.8082662 24.0593948,22.6954334 L25.5075764,22.6954334 C25.3113748,22.8082662 25.1680182,23.0052941 25.1680182,23.3277554 L25.1680182,32.6149845 C25.1680182,32.6149845 18.9069945,24.686904 18.9069945,24.5734984 L18.9069945,31.5920434 C18.9069945,31.9001858 19.0503509,32.0966409 19.2718507,32.2226471 L17.8242314,32.2226471 C18.0198708,32.0966409 18.1632272,31.9001858 18.1632272,31.5920434 L18.1632272,24.1118576 C18.1632272,23.5648761 18.1761575,23.5505573 17.9287973,23.2286688 C17.7978088,23.0608514 17.6150995,22.8643963 17.3413168,22.6954334 L19.5849862,22.6954334 L24.3983907,28.8605727 L24.3983907,23.3277554" id="Fill-2"></path>
                        <path d="M38.2511238,22.6954334 C38.0290618,22.8082662 37.9121279,23.0052941 37.9121279,23.3277554 L37.9121279,31.5920434 C37.9121279,31.9001858 38.0290618,32.0966409 38.2511238,32.2226471 L35.8899583,32.2226471 C36.098528,32.0966409 36.2289543,31.9001858 36.2289543,31.5920434 L36.2289543,23.3277554 C36.2289543,23.0052941 36.098528,22.8082662 35.8899583,22.6954334 L38.2511238,22.6954334" id="Fill-3"></path>
                        <path d="M54.152449,23.3970589 C54.2699452,23.0327864 54.2176622,22.8363312 53.8781041,22.6954334 L55.4696422,22.6954334 C55.1306462,22.9348452 55.1047858,23.0327864 54.9743596,23.3689938 C54.7522975,23.9148297 51.6085744,32.5170433 51.6085744,32.5170433 C51.6085744,32.5170433 48.2039986,23.8867647 47.9560762,23.3689938 C47.7997895,23.0883437 47.6435029,22.8643963 47.2516618,22.6954334 L50.1345325,22.6954334 C49.7955365,22.8363312 49.769114,23.1307276 49.8601875,23.4675078 C49.8871723,23.5923684 52.0650663,29.3514242 52.0650663,29.3514242 C52.0650663,29.3514242 54.1395189,23.4955728 54.152449,23.3970589" id="Fill-4"></path>
                        <path d="M69.987999,23.9291486 C69.7400766,23.5648761 69.4662939,23.4526161 68.9704491,23.4245511 C68.5791703,23.3970589 66.7532023,23.3970589 66.7532023,23.3970589 L66.7532023,26.6199536 L68.7225268,26.6199536 C68.905236,26.6199536 69.1267358,26.3948606 69.1925111,26.2270434 L69.1925111,27.7116254 C69.1267358,27.5157431 68.905236,27.3055418 68.7225268,27.3055418 L66.7532023,27.3055418 L66.7532023,31.424226 C67.0140548,31.4660372 67.8095428,31.5227399 68.448744,31.4941022 C69.5832278,31.4660372 70.1054951,31.4941022 70.5884097,30.611486 L70.3140647,32.2226471 L64.7051723,32.2226471 C64.9266721,32.082322 65.0958889,31.9288235 65.0958889,31.5920434 L65.0958889,23.3277554 C65.0958889,23.0052941 64.9137419,22.8082662 64.7051723,22.6954334 L69.9486463,22.6954334 L69.987999,23.9291486" id="Fill-5"></path>
                        <path d="M82.3531978,23.3970589 L82.3531978,27.0529566 C82.3531978,27.0529566 82.7186163,27.0815944 82.9406783,27.0815944 C83.8278019,27.0815944 84.7672085,26.5495046 84.7672085,25.134226 C84.7672085,24.4898762 84.4012278,23.3689938 83.1104574,23.3689938 C82.7186163,23.3689938 82.3531978,23.3970589 82.3531978,23.3970589 Z M84.2842939,27.3891641 C85.1714175,27.4871052 85.5626963,28.1314551 85.7577736,28.440743 C85.7577736,28.440743 87.3240134,31.1023375 87.7805054,31.6624923 C88.0278656,31.998127 88.6147838,32.2226471 88.6147838,32.2226471 L86.91868,32.2512848 C86.4233974,32.2512848 85.9927658,31.9288235 85.7577736,31.5920434 C85.1714175,30.7094272 84.5974294,29.6870588 84.1274451,28.9029566 C83.7884491,28.3416564 83.4882438,27.7396904 82.9271859,27.7396904 C82.7708992,27.7396904 82.3531978,27.7677554 82.3531978,27.7677554 L82.3531978,31.5920434 C82.3531978,31.9001858 82.4971165,32.0966409 82.7186163,32.2226471 L80.358013,32.2226471 C80.5665826,32.0966409 80.6970089,31.9001858 80.6970089,31.5920434 L80.6970089,23.3277554 C80.6970089,23.0052941 80.5665826,22.8082662 80.358013,22.6954334 L83.1756705,22.6954334 C85.8752697,22.6954334 86.4880484,24.1118576 86.4880484,25.050031 C86.4880484,26.562678 85.2102081,27.3187151 84.2842939,27.3891641 Z" id="Fill-6"></path>
                        <path d="M102.925133,29.4207275 C102.925133,31.1722136 101.490444,32.3629721 99.8859762,32.3629721 C98.6980847,32.3629721 97.8385084,31.9288235 97.3814538,31.6905573 L97.316803,29.3222136 C97.5636011,30.3182353 98.3467209,31.6344273 99.7027047,31.6344273 C100.9946,31.6344273 101.385879,30.6401239 101.385879,29.9539629 C101.385879,28.6085604 100.251956,28.4264241 99.0635036,27.7396904 C97.8638063,27.0260372 97.3421009,26.2688545 97.3421009,25.2035294 C97.3421009,23.2985449 98.9988528,22.541935 100.185619,22.541935 C100.629743,22.541935 101.490444,22.6404489 102.154943,23.0608514 L102.220719,25.134226 C102.03801,24.3913623 101.294805,23.2704799 100.042263,23.2704799 C99.0511357,23.2704799 98.6598569,24.0133436 98.6598569,24.6164551 C98.6598569,25.4698607 99.2203522,25.7917492 100.447034,26.3948606 C101.660223,27.0111455 102.925133,27.4745046 102.925133,29.4207275" id="Fill-7"></path>
                        <path d="M115.473604,22.6954334 C115.251541,22.8082662 115.134046,23.0052941 115.134046,23.3277554 L115.134046,31.5920434 C115.134046,31.9001858 115.251541,32.0966409 115.473604,32.2226471 L113.113,32.2226471 C113.321008,32.0966409 113.451996,31.9001858 113.451996,31.5920434 L113.451996,23.3277554 C113.451996,23.0052941 113.321008,22.8082662 113.113,22.6954334 L115.473604,22.6954334" id="Fill-8"></path>
                        <path d="M129.640034,23.3970589 L129.640034,31.5920434 C129.640034,31.9001858 129.783953,32.0966409 129.979592,32.2226471 L127.643725,32.2226471 C127.852295,32.0966409 127.983283,31.9001858 127.983283,31.5920434 L127.983283,23.3970589 C127.018016,23.3970589 125.8959,23.4955728 125.8959,23.4955728 C125.582765,23.4955728 125.361265,23.8174613 125.243769,24.054582 L125.243769,22.6954334 L132.393041,22.6954334 L132.393041,24.054582 C132.274983,23.8174613 132.091711,23.523065 131.779138,23.4955728 C131.779138,23.4955728 130.591809,23.3970589 129.640034,23.3970589" id="Fill-9"></path>
                        <path d="M148.879598,22.6954334 C148.474265,22.8363312 148.174622,23.2286688 148.017772,23.5505573 L145.931515,27.8095666 L145.931515,31.5920434 C145.931515,31.9001858 146.178312,32.0966409 146.387444,32.2226471 L143.778356,32.2226471 C143.974557,32.0966409 144.22248,31.9288235 144.22248,31.5920434 L144.22248,27.8656966 L141.665675,23.3689938 C141.482404,23.0327864 141.339609,22.8924613 140.987683,22.6954334 L143.935205,22.6954334 C143.609139,22.8363312 143.387077,22.9062074 143.726635,23.5648761 L145.565534,27.0111455 L147.28806,23.3970589 C147.470769,23.0883437 147.378571,22.7945201 147.013715,22.6954334 L148.879598,22.6954334" id="Fill-10"></path>
                        <path d="M10.3871222,0.725681114 L13.4493291,0.725681114 C13.159243,0.881470588 12.9782203,1.15410217 12.9782203,1.6008514 L12.9782203,13.0805883 C12.9782203,13.5084365 13.159243,13.7810681 13.4493291,13.9563312 L10.2060996,13.9563312 C10.4961856,13.7810681 10.6772083,13.5084365 10.6772083,13.0805883 L10.6772083,3.29448917 C10.6772083,3.06080495 10.7137501,2.84659443 10.7137501,2.84659443 L10.5501551,3.29448917 L6.20167532,14.2283901 L1.81665368,3.6049226 L1.69016268,3.08027864 C1.69016268,3.08027864 1.69016268,3.4302322 1.69016268,3.6049226 L1.69016268,13.0805883 C1.69016268,13.5084365 1.88973738,13.7810681 2.19725108,13.9563312 L0.185762949,13.9563312 C0.457859163,13.7810681 0.65743387,13.5084365 0.65743387,13.0805883 L0.65743387,1.6008514 C0.65743387,1.23142415 0.36734782,0.881470588 0.0772617734,0.725681114 L3.26595956,0.725681114 L6.8903486,9.65608359 L10.3871222,0.725681114" id="Fill-11"></path>
                        <path d="M19.6625674,0.725681114 C19.3544915,0.881470588 19.1914586,1.15410217 19.1914586,1.6008514 L19.1914586,13.0805883 C19.1914586,13.5084365 19.3544915,13.7810681 19.6625674,13.9563312 L16.3827961,13.9563312 C16.6728821,13.7810681 16.8539048,13.5084365 16.8539048,13.0805883 L16.8539048,1.6008514 C16.8539048,1.15410217 16.6728821,0.881470588 16.3827961,0.725681114 L19.6625674,0.725681114" id="Fill-12"></path>
                        <path d="M33.5585885,4.53908669 C32.452776,1.83510836 30.3333489,1.56247678 29.4636529,1.56247678 C26.3654664,1.56247678 24.6080847,3.99439629 24.6080847,7.12679567 C24.6080847,9.79239935 25.8578159,13.0805883 29.5907061,13.0805883 C30.4418501,13.0805883 32.4898801,12.7690093 33.6856417,10.1034056 C33.7216213,10.0260836 33.5226088,12.9053251 33.5226088,12.9053251 C32.0182091,13.8200155 30.4058704,14.1510681 28.9200227,14.1510681 C25.3507275,14.1510681 22.1800195,11.5244118 22.1800195,7.37995356 C22.1800195,3.9749226 24.5355632,0.512043343 29.1375872,0.512043343 C30.623435,0.512043343 31.9822294,0.823049536 33.3955556,1.52352941 C33.3955556,1.52352941 33.5945681,4.61698143 33.5585885,4.53908669" id="Fill-13"></path>
                        <path d="M44.1748383,0.725681114 L47.4540474,0.725681114 C47.1459716,0.881470588 46.9469591,1.15410217 46.9469591,1.6008514 L46.9469591,13.0805883 C46.9469591,13.5084365 47.1459716,13.7810681 47.4540474,13.9563312 L44.1748383,13.9563312 C44.4649243,13.7810681 44.6459471,13.5084365 44.6459471,13.0805883 L44.6459471,7.12679567 L39.0111943,7.12679567 L39.0111943,13.0805883 C39.0111943,13.5084365 39.1742271,13.7810681 39.4817408,13.9563312 L36.2025317,13.9563312 C36.4926177,13.7810681 36.6736404,13.5084365 36.6736404,13.0805883 L36.6736404,1.6008514 C36.6736404,1.15410217 36.4926177,0.881470588 36.2025317,0.725681114 L39.4817408,0.725681114 C39.1742271,0.881470588 39.0111943,1.15410217 39.0111943,1.6008514 L39.0111943,6.17373065 L44.6459471,6.17373065 L44.6459471,1.6008514 C44.6459471,1.15410217 44.4649243,0.881470588 44.1748383,0.725681114" id="Fill-14"></path>
                        <path d="M53.649296,0.725681114 C53.3412201,0.881470588 53.1781873,1.15410217 53.1781873,1.6008514 L53.1781873,13.0805883 C53.1781873,13.5084365 53.3412201,13.7810681 53.649296,13.9563312 L50.3695246,13.9563312 C50.6596107,13.7810681 50.8411955,13.5084365 50.8411955,13.0805883 L50.8411955,1.6008514 C50.8411955,1.15410217 50.6596107,0.881470588 50.3695246,0.725681114 L53.649296,0.725681114" id="Fill-15"></path>
                        <path d="M67.4368159,1.52352941 L67.5638691,4.61698143 C66.6402036,1.97085139 64.3386295,1.56247678 63.4869233,1.56247678 C60.407289,1.56247678 58.6313552,3.99439629 58.6313552,7.12679567 C58.6313552,9.79239935 59.8630965,13.0805883 63.6139765,13.0805883 C63.994574,13.0805883 65.0632824,13.0416409 65.9149886,12.4385294 L65.9149886,9.05354488 C65.9149886,8.60565016 65.7339659,8.33301858 65.4438798,8.15832817 L68.6871092,8.15832817 C68.4155752,8.33301858 68.2165627,8.60565016 68.2165627,9.05354488 L68.2165627,11.9327864 C68.2165627,12.3216873 68.4155752,12.6722136 68.5060866,12.7306346 C66.983697,13.6447523 64.411151,14.1510681 62.9618451,14.1510681 C59.3560081,14.1510681 56.1673103,11.5244118 56.1673103,7.37995356 C56.1673103,3.9749226 58.5408438,0.512043343 63.1788474,0.512043343 C64.6646952,0.512043343 66.0054999,0.861996904 67.4368159,1.52352941" id="Fill-16"></path>
                        <path d="M76.6762814,9.28665635 C75.8240131,7.12679567 74.8283883,4.52018576 74.8283883,4.52018576 C74.8283883,4.52018576 73.5960847,7.82727554 73.0159127,9.28665635 L76.6762814,9.28665635 Z M80.6621536,13.0026935 C80.8431763,13.4116408 80.9696673,13.6252787 81.5678292,13.9563312 L77.6910203,13.9563312 C78.1615669,13.6836997 78.2520783,13.4116408 78.1255873,13.0026935 C78.0710556,12.8079566 77.5999468,11.6212075 77.0922962,10.2981424 L72.6533051,10.2981424 C72.110237,11.6212075 71.6751079,12.7690093 71.6385661,12.9832198 C71.4755332,13.4500155 71.5666068,13.722647 72.0557054,13.9563312 L69.5556808,13.9563312 C70.0622071,13.5863313 70.2258021,13.3726935 70.4068248,13.0026935 C70.7514425,12.2632662 75.5170615,0.317306501 75.5170615,0.317306501 C75.5170615,0.317306501 80.3360879,12.2632662 80.6621536,13.0026935 Z" id="Fill-17"></path>
                        <path d="M91.822596,1.6008514 C91.822596,1.15410217 91.6404487,0.881470588 91.3514872,0.725681114 L93.3618505,0.725681114 C93.0903166,0.881470588 92.8913047,1.15410217 92.8913047,1.6008514 L92.8913047,14.5010216 C92.8913047,14.5010216 84.1937825,3.48865325 84.1937825,3.33286377 L84.1937825,13.0805883 C84.1937825,13.5084365 84.3933573,13.7810681 84.7019953,13.9563312 L82.689945,13.9563312 C82.9626035,13.7810681 83.1610538,13.5084365 83.1610538,13.0805883 L83.1610538,2.69080496 C83.1610538,1.93247678 83.1796058,1.91243034 82.8349881,1.46510836 C82.6539654,1.23142415 82.4004211,0.959365324 82.0192615,0.725681114 L85.1365622,0.725681114 L91.822596,9.28665635 L91.822596,1.6008514" id="Fill-18"></path>
                        <path d="M108.216955,10.065031 C108.216955,12.4969504 106.225143,14.1510681 103.994966,14.1510681 C102.346648,14.1510681 101.150886,13.5473839 100.516182,13.216904 L100.426233,9.92871521 C100.770851,11.3102013 101.85755,13.1390093 103.742546,13.1390093 C105.535346,13.1390093 106.079538,11.7575232 106.079538,10.8044582 C106.079538,8.93670282 104.503179,8.68354489 102.854298,7.72990712 C101.187428,6.73789474 100.462775,5.6874613 100.462775,4.20860681 C100.462775,1.56247678 102.763787,0.512043343 104.412106,0.512043343 C105.028257,0.512043343 106.225143,0.647786378 107.148246,1.23142415 L107.238196,4.11123839 C106.985776,3.08027864 105.952485,1.52352941 104.213655,1.52352941 C102.836309,1.52352941 102.292678,2.55448916 102.292678,3.39128483 C102.292678,4.57860681 103.071301,5.02535604 104.775275,5.8621517 C106.460136,6.71842106 108.216955,7.36047987 108.216955,10.065031" id="Fill-19"></path>
                        <path d="M115.447743,1.69879257 L115.447743,13.0805883 C115.447743,13.5084365 115.646756,13.7810681 115.919414,13.9563312 L112.675622,13.9563312 C112.965147,13.7810681 113.146731,13.5084365 113.146731,13.0805883 L113.146731,1.69879257 C111.805926,1.69879257 110.246995,1.83510836 110.246995,1.83510836 C109.812429,1.83510836 109.50379,2.28243034 109.34132,2.61291022 L109.34132,0.725681114 L119.271145,0.725681114 L119.271145,2.61291022 C119.10755,2.28243034 118.854568,1.87348297 118.419439,1.83510836 C118.419439,1.83510836 116.769996,1.69879257 115.447743,1.69879257" id="Fill-20"></path>
                        <path d="M124.722064,9.28665635 C123.87092,7.12679567 122.874171,4.52018576 122.874171,4.52018576 C122.874171,4.52018576 121.642429,7.82727554 121.062258,9.28665635 L124.722064,9.28665635 Z M128.708498,13.0026935 C128.890084,13.4116408 129.016575,13.6252787 129.614737,13.9563312 L125.737928,13.9563312 C126.208474,13.6836997 126.298985,13.4116408 126.172494,13.0026935 C126.117401,12.8079566 125.646854,11.6212075 125.139203,10.2981424 L120.700212,10.2981424 C120.156582,11.6212075 119.721452,12.7690093 119.685473,12.9832198 C119.521878,13.4500155 119.612952,13.722647 120.102613,13.9563312 L117.601464,13.9563312 C118.108552,13.5863313 118.271584,13.3726935 118.453732,13.0026935 C118.797787,12.2632662 123.562844,0.317306501 123.562844,0.317306501 C123.562844,0.317306501 128.382432,12.2632662 128.708498,13.0026935 Z" id="Fill-21"></path>
                        <path d="M134.344938,1.69879257 L134.344938,13.0805883 C134.344938,13.5084365 134.543951,13.7810681 134.815484,13.9563312 L131.572817,13.9563312 C131.862341,13.7810681 132.043364,13.5084365 132.043364,13.0805883 L132.043364,1.69879257 C130.703121,1.69879257 129.144752,1.83510836 129.144752,1.83510836 C128.710185,1.83510836 128.401547,2.28243034 128.238514,2.61291022 L128.238514,0.725681114 L138.167215,0.725681114 L138.167215,2.61291022 C138.004744,2.28243034 137.7512,1.87348297 137.316071,1.83510836 C137.316071,1.83510836 135.66719,1.69879257 134.344938,1.69879257" id="Fill-22"></path>
                        <path d="M147.46065,2.43821981 C147.117157,1.93247678 146.737122,1.77668731 146.047886,1.73716718 C145.504255,1.69879257 142.967689,1.69879257 142.967689,1.69879257 L142.967689,6.17373065 L145.70383,6.17373065 C145.956812,6.17373065 146.264888,5.8621517 146.355961,5.62904025 L146.355961,7.69153251 C146.264888,7.41890093 145.956812,7.12679567 145.70383,7.12679567 L142.967689,7.12679567 L142.967689,12.8469041 C143.330297,12.9053251 144.434985,12.9832198 145.323233,12.9442724 C146.899592,12.9053251 147.624245,12.9442724 148.294928,11.7185758 L147.914331,13.9563312 L140.123609,13.9563312 C140.431123,13.7615944 140.666677,13.5473839 140.666677,13.0805883 L140.666677,1.6008514 C140.666677,1.15410217 140.412571,0.881470588 140.123609,0.725681114 L147.407242,0.725681114 L147.46065,2.43821981" id="Fill-23"></path>
                        <polygon id="Fill-24" points="0.0412821084 18.4106501 148.60694 18.4106501 148.60694 17.387709 0.0412821084 17.387709"></polygon>
                    </g>
                </g>
            </g>
        </g>
    </g>
</svg>