<?xml version="1.0" encoding="UTF-8"?>
<svg width="163px" height="75px" viewBox="0 0 163 75" version="1.1" xmlns="http://www.w3.org/2000/svg" xmlns:xlink="http://www.w3.org/1999/xlink">
    <!-- Generator: sketchtool 56.2 (101010) - https://sketch.com -->
    <title>1168CA2F-4D7B-4328-8F6E-F453527FAFF4</title>
    <desc>Created with sketchtool.</desc>
    <g id="Page-1" stroke="none" stroke-width="1" fill="none" fill-rule="evenodd">
        <g id="Mobile" transform="translate(-77.000000, -3445.000000)" fill-rule="nonzero">
            <g id="Footer" transform="translate(0.000000, 3375.000000)">
                <g id="Logos" transform="translate(65.000000, 70.000000)">
                    <g id="Footer-mellon" transform="translate(12.000000, 0.000000)">
                        <g id="Group" transform="translate(0.493137, 25.827814)" fill="#FAF7F2">
                            <polygon id="Shape" points="27.1862611 29.9548981 22.9990914 29.9548981 22.9990914 6.99766061 22.9384078 6.99766061 13.9572322 18.4148964 13.2897125 18.4148964 4.2478533 6.99766061 4.18716968 6.99766061 4.18716968 29.9548981 0 29.9548981 0 0.491063903 3.94443521 0.491063903 13.5931305 12.5835125 23.3025095 0.491063903 27.1862611 0.491063903"></polygon>
                            <polygon id="Shape" points="50.0033017 4.29680915 37.6238435 4.29680915 37.6238435 13.1973424 49.5178327 13.1973424 49.5178327 17.0030876 37.6238435 17.0030876 37.6238435 26.1491528 50.3674034 26.1491528 50.3674034 29.9548981 33.4366738 29.9548981 33.4366738 0.491063903 50.0033017 0.491063903"></polygon>
                            <polygon id="Shape" points="60.0160987 26.1491528 73.1844439 26.1491528 73.1844439 29.9548981 55.8289291 29.9548981 55.8289291 0.491063903 60.0160987 0.491063903"></polygon>
                            <polygon id="Shape" points="83.1365574 26.1491528 96.3049031 26.1491528 96.3049031 29.9548981 78.9493878 29.9548981 78.9493878 0.491063903 83.1365574 0.491063903"></polygon>
                            <path d="M114.267254,0.0613829879 C123.855266,0.0613829879 129.923627,6.99766061 129.923627,15.161598 C129.923627,23.1413864 124.037316,30.261813 114.145886,30.261813 C104.618559,30.261813 98.6108797,23.1413864 98.6108797,15.161598 C98.6108797,7.05904361 104.800609,0.0613829879 114.267254,0.0613829879 Z M114.267254,26.4560678 C120.821084,26.4560678 125.615091,21.6681947 125.615091,15.222981 C125.615091,8.71638428 120.760401,3.98989421 114.267254,3.98989421 C107.774106,3.98989421 102.919417,8.71638428 102.919417,15.222981 C102.919417,21.6681947 107.774106,26.4560678 114.267254,26.4560678 Z" id="Shape"></path>
                            <polygon id="Shape" points="162.025262 29.9548981 158.444928 29.9548981 138.965486 7.24319257 138.965486 29.9548981 135.021052 29.9548981 135.021052 0.491063903 138.35865 0.491063903 158.14151 23.3255354 158.14151 0.491063903 162.085945 0.491063903 162.085945 29.9548981"></polygon>
                        </g>
                        <g id="Group" fill="#FAF7F2">
                            <polygon id="Shape" points="5.13079433 0.831058357 3.12848829 0.831058357 3.12848829 5.91958781 2.27902511 5.91958781 2.27902511 0.831058357 0.276719064 0.831058357 0.276719064 0.0953673521 5.13079433 0.0953673521"></polygon>
                            <polygon id="Shape" points="10.8950088 5.91958781 10.0455455 5.91958781 10.0455455 3.40597687 6.76904473 3.40597687 6.76904473 5.98089539 5.91958156 5.98089539 5.91958156 0.0953673521 6.76904473 0.0953673521 6.76904473 2.67028586 10.0455455 2.67028586 10.0455455 0.0953673521 10.8950088 0.0953673521"></polygon>
                            <polygon id="Shape" points="15.5670562 0.831058357 13.1400186 0.831058357 13.1400186 2.60897829 15.5063802 2.60897829 15.5063802 3.34466929 13.1400186 3.34466929 13.1400186 5.1838968 15.688408 5.1838968 15.688408 5.91958781 12.3512313 5.91958781 12.3512313 0.0953673521 15.6277321 0.0953673521 15.6277321 0.831058357"></polygon>
                            <path d="M5.79822968,16.9549529 L4.94876651,16.9549529 L4.15997928,15.2383406 L1.73294164,15.2383406 L1.00483035,16.9549529 L0.155367182,16.9549529 L2.64308075,11.0694248 L3.24984017,11.0694248 L5.79822968,16.9549529 Z M2.03632135,14.5026495 L3.85659958,14.5026495 L2.94646046,12.3568841 L2.03632135,14.5026495 Z" id="Shape"></path>
                            <polygon id="Shape" points="11.8658238 16.9549529 11.1377125 16.9549529 7.3151282 12.4794993 7.3151282 17.0162605 6.52634097 17.0162605 6.52634097 11.1307324 7.19377632 11.1307324 11.1377125 15.6674936 11.1377125 11.1307324 11.9264997 11.1307324 11.9264997 16.9549529"></polygon>
                            <path d="M13.2613704,11.1307324 L15.5063802,11.1307324 C17.6300381,11.1307324 18.6008532,12.663422 18.6008532,14.0734964 C18.6008532,15.606186 17.4480103,17.0162605 15.5063802,17.0162605 L13.2613704,17.0162605 L13.2613704,11.1307324 L13.2613704,11.1307324 Z M14.1108336,16.2192619 L15.3850284,16.2192619 C17.2659825,16.2192619 17.6907141,14.7478798 17.6907141,14.0734964 C17.6907141,12.9086524 16.9626028,11.927731 15.3243524,11.927731 L14.0501576,11.927731 L14.0501576,16.2192619 L14.1108336,16.2192619 Z" id="Shape"></path>
                            <path d="M21.1492427,11.1307324 C22.3020856,11.1307324 23.0301969,11.7438083 23.0301969,12.7860371 C23.0301969,13.4604206 22.6661412,13.9508813 22.0593819,14.1961116 C22.6054653,14.5639571 22.908845,15.1157254 23.3335766,15.7901088 C23.5762804,16.2192619 23.6976322,16.4031846 24.1223638,16.9549529 L23.1515487,16.9549529 L22.3627615,15.7288012 C21.5739743,14.5026495 21.2705946,14.3800344 20.8458631,14.3800344 L20.4818074,14.3800344 L20.4818074,16.8936453 L19.6323442,16.8936453 L19.6323442,11.0081172 L21.1492427,11.0081172 L21.1492427,11.1307324 Z M20.5424833,13.6443433 L21.0885668,13.6443433 C21.9987059,13.6443433 22.2414097,13.1538827 22.2414097,12.663422 C22.2414097,12.1116537 21.9380299,11.8051159 21.0885668,11.8051159 L20.5424833,11.8051159 L20.5424833,13.6443433 Z" id="Shape"></path>
                            <polygon id="Shape" points="28.1876519 11.8664234 25.7606143 11.8664234 25.7606143 13.6443433 28.1269759 13.6443433 28.1269759 14.3800344 25.7606143 14.3800344 25.7606143 16.2192619 28.3090037 16.2192619 28.3090037 16.9549529 24.971827 16.9549529 24.971827 11.0694248 28.2483278 11.0694248 28.2483278 11.8664234"></polygon>
                            <polygon id="Shape" points="35.1047091 17.0162605 34.9226813 17.0162605 33.0417271 12.2342689 31.100097 17.0162605 30.9180692 17.0162605 28.5517076 11.1307324 29.4011707 11.1307324 30.9787452 15.1770329 32.5563196 11.1307324 33.3451068 11.1307324 34.9833573 15.1770329 36.5609317 11.1307324 37.4103949 11.1307324"></polygon>
                            <polygon id="Shape" points="47.8466567 17.0162605 47.6646289 17.0162605 45.7836747 12.2342689 43.9027206 17.0162605 43.7206927 17.0162605 41.354331 11.1307324 42.2037942 11.1307324 43.7813687 15.1770329 45.3589431 11.1307324 46.1477304 11.1307324 47.7859808 15.1770329 49.3635553 11.1307324 50.2130184 11.1307324"></polygon>
                            <path d="M50.63775,16.5257998 C50.63775,16.8323377 50.3950463,17.0162605 50.1523425,17.0162605 C49.9096387,17.0162605 49.6669349,16.7710301 49.6669349,16.5257998 C49.6669349,16.2192619 49.9096387,16.0353391 50.1523425,16.0353391 C50.3950463,16.0353391 50.63775,16.2805694 50.63775,16.5257998 Z" id="Shape"></path>
                        </g>
                        <polygon id="Shape" fill="#EF4B4B" points="23.6240565 26.3245033 27.6156754 26.3245033 27.6156754 27.6670886 14.2898094 44.205298 13.4914856 44.205298 11.3421524 41.5201275"></polygon>
                        <g id="Group" transform="translate(82.847026, 66.059603)" fill="#FAF7F2">
                            <polygon id="Shape" points="4.58379262 1.37086092 1.36921905 1.37086092 1.36921905 3.63576159 4.58379262 3.63576159 4.58379262 4.70860927 1.36921905 4.70860927 1.36921905 8.46357616 0.156172428 8.46357616 0.156172428 0.357615894 4.58379262 0.357615894"></polygon>
                            <path d="M10.3457641,0.238410596 C13.0751191,0.238410596 14.7733843,2.14569536 14.7733843,4.41059603 C14.7733843,6.61589404 13.0751191,8.58278146 10.2851118,8.58278146 C7.55575686,8.58278146 5.85749159,6.61589404 5.85749159,4.41059603 C5.91814391,2.14569536 7.67706152,0.238410596 10.3457641,0.238410596 Z M10.3457641,7.50993378 C12.2259864,7.50993378 13.5603377,6.19867549 13.5603377,4.41059603 C13.5603377,2.62251656 12.165334,1.31125828 10.3457641,1.31125828 C8.52619417,1.31125828 7.13119054,2.62251656 7.13119054,4.41059603 C7.13119054,6.19867549 8.46554183,7.50993378 10.3457641,7.50993378 Z" id="Shape"></path>
                            <path d="M23.4466677,5.24503311 C23.4466677,7.21192053 22.2336211,8.52317881 19.7468755,8.52317881 C17.9879579,8.52317881 16.2896926,7.56953643 16.2896926,5.36423841 L16.2896926,0.298013245 L17.5027392,0.298013245 L17.5027392,5.12582781 C17.5027392,6.01986755 17.6240439,6.43708609 17.9879579,6.79470199 C18.4731765,7.27152318 19.0796998,7.50993378 19.7468755,7.50993378 C20.6566605,7.50993378 21.3238361,7.21192053 21.6877501,6.85430464 C22.1123164,6.43708609 22.2336211,5.8410596 22.2336211,5.06622516 L22.2336211,0.357615894 L23.4466677,0.357615894 L23.4466677,5.24503311 L23.4466677,5.24503311 Z" id="Shape"></path>
                            <polygon id="Shape" points="32.9690838 8.46357616 31.9379941 8.46357616 26.418632 2.20529801 26.418632 8.46357616 25.3268899 8.46357616 25.3268899 0.357615894 26.2973273 0.357615894 31.8773417 6.67549669 31.8773417 0.357615894 32.9690838 0.357615894"></polygon>
                            <path d="M35.0919153,0.357615894 L38.3064889,0.357615894 C41.3391054,0.357615894 42.7341091,2.50331126 42.7341091,4.41059603 C42.7341091,6.49668874 41.0964962,8.46357616 38.3671413,8.46357616 L35.1525677,8.46357616 L35.1525677,0.357615894 L35.0919153,0.357615894 Z M36.3049619,7.39072848 L38.1851843,7.39072848 C40.8538868,7.39072848 41.5210624,5.36423841 41.5210624,4.35099338 C41.5210624,2.74172186 40.4899728,1.31125828 38.1245319,1.31125828 L36.3049619,1.31125828 L36.3049619,7.39072848 Z" id="Shape"></path>
                            <path d="M51.0434785,8.46357616 L49.8304319,8.46357616 L48.7386899,6.0794702 L45.2208546,6.0794702 L44.189765,8.46357616 L42.9767184,8.46357616 L46.5552059,0.298013245 L47.4043386,0.298013245 L51.0434785,8.46357616 Z M45.645421,5.00662252 L48.1928189,5.00662252 L46.8584676,2.08609271 L45.645421,5.00662252 Z" id="Shape"></path>
                            <polygon id="Shape" points="57.2300163 1.37086092 54.3793568 1.37086092 54.3793568 8.46357616 53.1663101 8.46357616 53.1663101 1.37086092 50.3156506 1.37086092 50.3156506 0.298013245 57.2300163 0.298013245"></polygon>
                            <polygon id="Shape" points="59.8380666 8.46357616 58.6250199 8.46357616 58.6250199 0.357615894 59.8380666 0.357615894"></polygon>
                            <path d="M66.0246044,0.238410596 C68.7539593,0.238410596 70.4522246,2.14569536 70.4522246,4.41059603 C70.4522246,6.61589404 68.7539593,8.58278146 65.963952,8.58278146 C63.2345971,8.58278146 61.5363318,6.61589404 61.5363318,4.41059603 C61.5969842,2.14569536 63.3559018,0.238410596 66.0246044,0.238410596 Z M66.0246044,7.50993378 C67.9048266,7.50993378 69.2391779,6.19867549 69.2391779,4.41059603 C69.2391779,2.62251656 67.8441743,1.31125828 66.0246044,1.31125828 C64.2050344,1.31125828 62.8100308,2.62251656 62.8100308,4.41059603 C62.8100308,6.19867549 64.2050344,7.50993378 66.0246044,7.50993378 Z" id="Shape"></path>
                            <polygon id="Shape" points="79.8533359 8.46357616 78.8222463 8.46357616 73.3028841 2.20529801 73.3028841 8.46357616 72.2111422 8.46357616 72.2111422 0.357615894 73.1815795 0.357615894 78.7615939 6.67549669 78.7615939 0.357615894 79.8533359 0.357615894"></polygon>
                        </g>
                    </g>
                </g>
            </g>
        </g>
    </g>
</svg>