<?xml version="1.0" encoding="UTF-8"?>
<svg width="161px" height="48px" viewBox="0 0 161 48" version="1.1" xmlns="http://www.w3.org/2000/svg" xmlns:xlink="http://www.w3.org/1999/xlink">
    <title>logo1</title>
    <g id="Visual-Comps" stroke="none" stroke-width="1" fill="none" fill-rule="evenodd">
        <g id="Home---Zulla" transform="translate(-111.000000, -1854.000000)" fill="#FFFFFF">
            <g id="Footer" transform="translate(0.000000, 1779.000000)">
                <g id="logo1" transform="translate(111.000000, 75.000000)">
                    <path d="M41.4923825,41.4989605 L41.4923825,33.5662869 L49.162578,21.1714844 L44.8462703,21.1714844 L39.5967069,30.066578 L34.4054719,21.1714844 L30.1183285,21.1714844 L37.8468524,33.5662869 L37.8468524,41.4989605 L41.4923825,41.4989605 Z M54.120499,41.7906029 C58.5534636,41.7906029 61.3240665,38.3492225 61.3240665,34.2953929 C61.3240665,30.2123992 58.5534636,26.8293472 54.120499,26.8293472 C49.6583701,26.8293472 46.9169314,30.2123992 46.9169314,34.2953929 C46.9169314,38.3492225 49.6583701,41.7906029 54.120499,41.7906029 Z M54.120499,38.7283576 C51.466553,38.7283576 50.4166403,36.6285322 50.4166403,34.2953929 C50.4166403,31.9330894 51.466553,29.8915925 54.120499,29.8915925 C56.7744449,29.8915925 57.8243576,31.9330894 57.8243576,34.2953929 C57.8243576,36.6285322 56.7744449,38.7283576 54.120499,38.7283576 Z M68.8484407,41.7906029 C70.5399667,41.7906029 72.1148358,41.2073181 73.1355842,39.8365988 L73.1355842,41.4989605 L76.6352931,41.4989605 L76.6352931,27.1209896 L73.1355842,27.1209896 L73.1353157,32.9148675 C73.1294095,35.4463054 72.993567,38.7283576 69.8691892,38.7283576 C67.3668973,38.7283576 67.2239092,36.4986859 67.2157384,35.4127395 L67.2152432,27.1209896 L63.7155343,27.1209896 L63.7155343,36.1035759 C63.7155343,39.1658212 65.2320748,41.7906029 68.8484407,41.7906029 Z M84.2179958,41.4989605 L84.2179958,34.2662287 C84.2179958,31.5539543 85.2679085,30.2415634 87.3968981,30.2415634 C88.0968399,30.2415634 88.6509605,30.4165489 89.1467526,30.7373555 L90.8382786,27.6459459 C89.9050229,27.0626611 89.0592599,26.8293472 88.0968399,26.8293472 C86.4636424,26.8293472 84.8596091,27.7917672 84.2471601,29.5707859 L84.2471601,27.1209896 L80.7182869,27.1209896 L80.7182869,41.4989605 L84.2179958,41.4989605 Z M112.478146,41.4989605 L112.478146,38.1450728 L103.787202,38.1450728 L103.787202,21.1714844 L100.141672,21.1714844 L100.141672,41.4989605 L112.478146,41.4989605 Z M120.731626,41.7906029 C125.16459,41.7906029 127.935193,38.3492225 127.935193,34.2953929 C127.935193,30.2123992 125.16459,26.8293472 120.731626,26.8293472 C116.269497,26.8293472 113.528058,30.2123992 113.528058,34.2953929 C113.528058,38.3492225 116.269497,41.7906029 120.731626,41.7906029 Z M120.731626,38.7283576 C118.07768,38.7283576 117.027767,36.6285322 117.027767,34.2953929 C117.027767,31.9330894 118.07768,29.8915925 120.731626,29.8915925 C123.385572,29.8915925 124.435484,31.9330894 124.435484,34.2953929 C124.435484,36.6285322 123.385572,38.7283576 120.731626,38.7283576 Z M136.305331,47.7401081 C140.184175,47.7401081 142.925613,46.4568815 142.925613,43.4529647 C142.925613,40.0115842 139.163426,39.6907775 136.247002,39.3116424 C134.438819,39.0783285 132.980607,38.7866861 132.980607,37.7367734 C132.980607,37.3868025 133.126428,37.1534886 133.388906,36.9785031 C134.234669,37.328474 135.167925,37.5326237 136.159509,37.5326237 C139.309247,37.5326237 141.992358,35.4911268 141.992358,32.2830603 C141.992358,31.3498046 141.759044,30.5040416 141.379909,29.7749356 L143.45057,28.0834096 L141.613222,25.8669272 L139.425904,27.7334387 C138.463484,27.1501538 137.296915,26.8293472 136.042852,26.8293472 C132.834786,26.8293472 130.151676,28.987501 130.151676,32.1080748 C130.151676,33.3621372 130.589139,34.4995426 131.318245,35.4036341 C130.472482,36.1327401 129.97669,37.0368316 129.97669,38.290894 C129.97669,39.7782703 130.676632,40.6823617 131.69738,41.2364823 L129.626719,42.5488732 C129.597555,42.6946944 129.568391,42.8405156 129.568391,43.1904865 C129.568391,46.1652391 132.018187,47.7401081 136.305331,47.7401081 Z M136.101181,34.6745281 C134.467983,34.6745281 133.651385,33.5662869 133.651385,32.1955676 C133.651385,30.7373555 134.613805,29.7457713 136.101181,29.7457713 C137.588557,29.7457713 138.492649,30.7081913 138.492649,32.1955676 C138.492649,33.5954511 137.705214,34.6745281 136.101181,34.6745281 Z M136.451152,45.1153264 C134.817954,45.1153264 133.038936,44.7361913 133.038936,43.5112931 C133.038936,43.4529647 133.038936,43.3654719 133.0681,43.2779792 L134.322162,42.0822453 L135.517896,42.2572308 C137.588557,42.5488732 139.425904,42.6655301 139.425904,43.7737713 C139.425904,44.7653555 137.938528,45.1153264 136.451152,45.1153264 Z M150.770794,41.7906029 C155.203759,41.7906029 157.974362,38.3492225 157.974362,34.2953929 C157.974362,30.2123992 155.203759,26.8293472 150.770794,26.8293472 C146.308665,26.8293472 143.567227,30.2123992 143.567227,34.2953929 C143.567227,38.3492225 146.308665,41.7906029 150.770794,41.7906029 Z M150.770794,38.7283576 C148.116848,38.7283576 147.066936,36.6285322 147.066936,34.2953929 C147.066936,31.9330894 148.116848,29.8915925 150.770794,29.8915925 C153.42474,29.8915925 154.474653,31.9330894 154.474653,34.2953929 C154.474653,36.6285322 153.42474,38.7283576 150.770794,38.7283576 Z" id="YourLogo" fill-rule="nonzero"></path>
                    <circle id="Oval" cx="11.9781705" cy="11.9781705" r="11.9781705"></circle>
                </g>
            </g>
        </g>
    </g>
</svg>