<?xml version="1.0" encoding="UTF-8"?>
<svg width="169px" height="48px" viewBox="0 0 169 48" version="1.1" xmlns="http://www.w3.org/2000/svg" xmlns:xlink="http://www.w3.org/1999/xlink">
    <title>logo2</title>
    <g id="Visual-Comps" stroke="none" stroke-width="1" fill="none" fill-rule="evenodd">
        <g id="Home---Zulla" transform="translate(-428.000000, -1854.000000)" fill="#FFFFFF">
            <g id="Footer" transform="translate(0.000000, 1779.000000)">
                <g id="logo2" transform="translate(428.000000, 75.000000)">
                    <path d="M40.4716341,41.4989605 L40.4716341,24.5253721 L46.8294387,24.5253721 L46.8294387,21.1714844 L30.4391351,21.1714844 L30.4391351,24.5253721 L36.7969397,24.5253721 L36.7969397,41.4989605 L40.4716341,41.4989605 Z M52.7206154,41.4989605 L52.7206154,35.753605 C52.7206154,31.6122827 53.6830353,29.8915925 55.9870104,29.8915925 C57.7951933,29.8915925 58.6409563,30.912341 58.6409563,33.099659 L58.6409563,41.4989605 L62.1406653,41.4989605 L62.1406653,32.2247318 C62.1406653,28.7833514 60.3033181,26.8293472 57.0660873,26.8293472 C55.1704116,26.8293472 53.6830353,27.5001247 52.7206154,28.7541871 L52.7206154,21.1714844 L49.2209064,21.1714844 L49.2209064,41.4989605 L52.7206154,41.4989605 Z M71.7648649,41.7906029 C74.1854969,41.7906029 76.0811726,40.9448399 77.6560416,39.1949854 L75.2354096,37.0659958 C74.2438254,38.2034012 73.0772557,38.6117006 71.7940291,38.6117006 C69.5192183,38.6117006 68.3526486,37.3576383 68.2068274,35.4619626 L78.064341,35.4619626 C78.1226694,34.9953347 78.1518337,34.5578711 78.1518337,34.1204075 C78.1518337,30.1249064 75.9936798,26.8293472 71.5315509,26.8293472 C66.7486154,26.8293472 64.7071185,30.6206985 64.7071185,34.3828857 C64.7071185,38.2325655 66.8069439,41.7906029 71.7648649,41.7906029 Z M74.7979459,32.6913597 L68.1776632,32.6913597 C68.3818129,31.2623119 69.3733971,29.7457713 71.5023867,29.7457713 C73.3397339,29.7457713 74.7396175,30.8540125 74.7979459,32.6913597 Z M84.6262952,24.4087152 L84.6262952,21.1714844 L80.9516008,21.1714844 L80.9516008,24.4087152 L84.6262952,24.4087152 Z M84.5388025,41.4989605 L84.5388025,27.1209896 L81.0390936,27.1209896 L81.0390936,41.4989605 L84.5388025,41.4989605 Z M92.1215052,41.4989605 L92.1215052,34.2662287 C92.1215052,31.5539543 93.1714179,30.2415634 95.3004075,30.2415634 C96.0003493,30.2415634 96.5544699,30.4165489 97.050262,30.7373555 L98.7417879,27.6459459 C97.8085322,27.0626611 96.9627692,26.8293472 96.0003493,26.8293472 C94.3671518,26.8293472 92.7631185,27.7917672 92.1506694,29.5707859 L92.1506694,27.1209896 L88.6217963,27.1209896 L88.6217963,41.4989605 L92.1215052,41.4989605 Z M120.381655,41.4989605 L120.381655,38.1450728 L111.690711,38.1450728 L111.690711,21.1714844 L108.045181,21.1714844 L108.045181,41.4989605 L120.381655,41.4989605 Z M128.635135,41.7906029 C133.0681,41.7906029 135.838703,38.3492225 135.838703,34.2953929 C135.838703,30.2123992 133.0681,26.8293472 128.635135,26.8293472 C124.173006,26.8293472 121.431568,30.2123992 121.431568,34.2953929 C121.431568,38.3492225 124.173006,41.7906029 128.635135,41.7906029 Z M128.635135,38.7283576 C125.981189,38.7283576 124.931277,36.6285322 124.931277,34.2953929 C124.931277,31.9330894 125.981189,29.8915925 128.635135,29.8915925 C131.289081,29.8915925 132.338994,31.9330894 132.338994,34.2953929 C132.338994,36.6285322 131.289081,38.7283576 128.635135,38.7283576 Z M144.20884,47.7401081 C148.087684,47.7401081 150.829123,46.4568815 150.829123,43.4529647 C150.829123,40.0115842 147.066936,39.6907775 144.150511,39.3116424 C142.342328,39.0783285 140.884116,38.7866861 140.884116,37.7367734 C140.884116,37.3868025 141.029938,37.1534886 141.292416,36.9785031 C142.138179,37.328474 143.071435,37.5326237 144.063019,37.5326237 C147.212757,37.5326237 149.895867,35.4911268 149.895867,32.2830603 C149.895867,31.3498046 149.662553,30.5040416 149.283418,29.7749356 L151.354079,28.0834096 L149.516732,25.8669272 L147.329414,27.7334387 C146.366994,27.1501538 145.200424,26.8293472 143.946362,26.8293472 C140.738295,26.8293472 138.055185,28.987501 138.055185,32.1080748 C138.055185,33.3621372 138.492649,34.4995426 139.221755,35.4036341 C138.375992,36.1327401 137.8802,37.0368316 137.8802,38.290894 C137.8802,39.7782703 138.580141,40.6823617 139.60089,41.2364823 L137.530229,42.5488732 C137.501064,42.6946944 137.4719,42.8405156 137.4719,43.1904865 C137.4719,46.1652391 139.921696,47.7401081 144.20884,47.7401081 Z M144.00469,34.6745281 C142.371493,34.6745281 141.554894,33.5662869 141.554894,32.1955676 C141.554894,30.7373555 142.517314,29.7457713 144.00469,29.7457713 C145.492067,29.7457713 146.396158,30.7081913 146.396158,32.1955676 C146.396158,33.5954511 145.608723,34.6745281 144.00469,34.6745281 Z M144.354661,45.1153264 C142.721464,45.1153264 140.942445,44.7361913 140.942445,43.5112931 C140.942445,43.4529647 140.942445,43.3654719 140.971609,43.2779792 L142.225672,42.0822453 L143.421405,42.2572308 C145.492067,42.5488732 147.329414,42.6655301 147.329414,43.7737713 C147.329414,44.7653555 145.842037,45.1153264 144.354661,45.1153264 Z M158.674304,41.7906029 C163.107268,41.7906029 165.877871,38.3492225 165.877871,34.2953929 C165.877871,30.2123992 163.107268,26.8293472 158.674304,26.8293472 C154.212175,26.8293472 151.470736,30.2123992 151.470736,34.2953929 C151.470736,38.3492225 154.212175,41.7906029 158.674304,41.7906029 Z M158.674304,38.7283576 C156.020358,38.7283576 154.970445,36.6285322 154.970445,34.2953929 C154.970445,31.9330894 156.020358,29.8915925 158.674304,29.8915925 C161.328249,29.8915925 162.378162,31.9330894 162.378162,34.2953929 C162.378162,36.6285322 161.328249,38.7283576 158.674304,38.7283576 Z" id="TheirLogo" fill-rule="nonzero"></path>
                    <circle id="Oval" cx="11.9781705" cy="11.9781705" r="11.9781705"></circle>
                </g>
            </g>
        </g>
    </g>
</svg>