<?xml version="1.0" encoding="UTF-8"?>
<svg width="181px" height="50px" viewBox="0 0 181 50" version="1.1" xmlns="http://www.w3.org/2000/svg" xmlns:xlink="http://www.w3.org/1999/xlink">
    <title>Matrix-Logo-White</title>
    <g id="Visual-Comps" stroke="none" stroke-width="1" fill="none" fill-rule="evenodd">
        <g id="Home---Zulla" transform="translate(-742.000000, -1850.000000)" fill="#FFFFFF">
            <g id="Footer" transform="translate(0.000000, 1779.000000)">
                <g id="Matrix-Logo-White" transform="translate(742.000000, 71.000000)">
                    <polygon id="Path" points="28.8 49.2857143 28.35 29.0178571 17.64 45.2678571 16.92 45.2678571 6.12 29.1071429 5.76 49.2857143 0 49.2857143 1.44 15.0892857 2.34 15 17.46 37.4107143 32.22 15 33.12 15.0892857 34.56 49.2857143"></polygon>
                    <path d="M63.72,49.2857143 L60.39,41.5178571 L46.89,41.5178571 L43.56,49.2857143 L37.53,49.2857143 L53.19,15 L54,15 L69.66,49.2857143 L63.72,49.2857143 Z M53.64,25.7142857 L48.78,36.9642857 L58.5,36.9642857 L53.64,25.7142857 Z" id="Shape" fill-rule="nonzero"></path>
                    <polygon id="Path" points="81.9 20.8035714 81.9 49.375 76.05 49.375 76.05 20.8035714 65.25 20.8035714 65.25 15.5357143 92.7 15.5357143 92.7 20.8035714"></polygon>
                    <path d="M115.11,49.2857143 L107.64,37.1428571 C107.37,37.1428571 107.01,37.2321429 106.74,37.2321429 C106.47,37.2321429 106.11,37.2321429 105.84,37.2321429 C105.3,37.2321429 104.76,37.2321429 104.13,37.2321429 C103.59,37.2321429 102.96,37.2321429 102.42,37.1428571 L102.42,49.375 L96.57,49.375 L96.57,15.8928571 C97.92,15.7142857 99.36,15.625 100.8,15.5357143 C102.24,15.4464286 103.86,15.3571429 105.57,15.3571429 C108,15.3571429 110.07,15.625 111.78,16.1607143 C113.49,16.6964286 115.02,17.5 116.1,18.3928571 C117.27,19.375 118.08,20.4464286 118.62,21.7857143 C119.16,23.0357143 119.43,24.4642857 119.43,25.9821429 C119.43,28.2142857 118.89,30.1785714 117.72,31.875 C116.55,33.5714286 114.93,34.9107143 112.77,35.8035714 L121.68,49.375 L115.11,49.375 L115.11,49.2857143 Z M113.49,26.25 C113.49,24.5535714 112.86,23.125 111.6,22.0535714 C110.34,20.9821429 108.63,20.4464286 106.38,20.4464286 C105.66,20.4464286 105.03,20.4464286 104.31,20.5357143 C103.68,20.5357143 103.05,20.625 102.42,20.8035714 L102.42,32.3214286 C102.96,32.4107143 103.5,32.4107143 104.04,32.5 C104.58,32.5 105.21,32.5892857 105.75,32.5892857 C108.27,32.5892857 110.16,32.0535714 111.42,30.8928571 C112.77,29.7321429 113.49,28.2142857 113.49,26.25 Z" id="Shape" fill-rule="nonzero"></path>
                    <polygon id="Path" points="127.17 49.2857143 127.17 15.5357143 132.93 15.5357143 132.93 49.2857143 127.17 49.2857143"></polygon>
                    <polygon id="Path" points="137.88 15.5357143 144.81 15.5357143 168.03 49.2857143 161.1 49.2857143"></polygon>
                    <g id="Group" opacity="0.7" transform="translate(137.700000, 0.000000)">
                        <polygon id="Path" points="42.12 0.892857143 35.82 0.892857143 35.28 1.69642857 41.49 1.69642857"></polygon>
                        <polygon id="Path" points="34.11 3.21428571 40.41 3.21428571 40.95 2.41071429 34.74 2.41071429"></polygon>
                        <polygon id="Path" points="33.03 4.73214286 39.24 4.73214286 39.87 3.92857143 33.57 3.92857143"></polygon>
                        <polygon id="Path" points="31.95 6.33928571 38.16 6.33928571 38.79 5.53571429 32.49 5.53571429"></polygon>
                        <polygon id="Path" points="30.78 7.85714286 37.08 7.85714286 37.62 7.05357143 31.41 7.05357143"></polygon>
                        <polygon id="Path" points="29.7 9.375 35.91 9.375 36.54 8.57142857 30.24 8.57142857"></polygon>
                        <polygon id="Path" points="28.62 10.8928571 34.83 10.8928571 35.46 10.0892857 29.16 10.0892857"></polygon>
                        <polygon id="Path" points="27.45 12.4107143 33.75 12.4107143 34.29 11.6071429 28.08 11.6071429"></polygon>
                        <polygon id="Path" points="26.37 14.0178571 32.58 14.0178571 33.21 13.2142857 26.91 13.2142857"></polygon>
                        <polygon id="Path" points="25.29 15.5357143 31.5 15.5357143 32.13 14.7321429 25.83 14.7321429"></polygon>
                        <polygon id="Path" points="24.12 17.0535714 30.42 17.0535714 30.96 16.25 24.75 16.25"></polygon>
                        <polygon id="Path" points="23.04 18.5714286 29.25 18.5714286 29.88 17.7678571 23.58 17.7678571"></polygon>
                        <polygon id="Path" points="21.96 20.0892857 28.17 20.0892857 28.8 19.2857143 22.5 19.2857143"></polygon>
                        <polygon id="Path" points="20.79 21.6964286 27.09 21.6964286 27.63 20.8928571 21.42 20.8928571"></polygon>
                        <polygon id="Path" points="19.71 23.2142857 25.92 23.2142857 26.55 22.4107143 20.25 22.4107143"></polygon>
                        <polygon id="Path" points="18.63 24.7321429 24.84 24.7321429 25.47 23.9285714 19.17 23.9285714"></polygon>
                        <polygon id="Path" points="17.46 26.25 23.76 26.25 24.3 25.4464286 18.09 25.4464286"></polygon>
                        <polygon id="Path" points="16.38 27.7678571 22.68 27.7678571 23.22 26.9642857 16.92 26.9642857"></polygon>
                        <polygon id="Path" points="15.3 29.375 21.51 29.375 22.14 28.5714286 15.84 28.5714286"></polygon>
                        <polygon id="Path" points="14.13 30.8928571 20.43 30.8928571 20.97 30.0892857 14.76 30.0892857"></polygon>
                        <polygon id="Path" points="13.05 32.4107143 19.26 32.4107143 19.89 31.6071429 13.59 31.6071429"></polygon>
                        <polygon id="Path" points="11.97 33.9285714 18.18 33.9285714 18.81 33.125 12.51 33.125"></polygon>
                        <polygon id="Path" points="10.8 35.4464286 17.1 35.4464286 17.64 34.6428571 11.43 34.6428571"></polygon>
                        <polygon id="Path" points="9.72 37.0535714 16.02 37.0535714 16.56 36.25 10.26 36.25"></polygon>
                        <polygon id="Path" points="8.64 38.5714286 14.85 38.5714286 15.48 37.7678571 9.18 37.7678571"></polygon>
                        <polygon id="Path" points="7.47 40.0892857 13.77 40.0892857 14.31 39.2857143 8.1 39.2857143"></polygon>
                        <polygon id="Path" points="6.39 41.6071429 12.69 41.6071429 13.23 40.8035714 6.93 40.8035714"></polygon>
                        <polygon id="Path" points="5.31 43.125 11.52 43.125 12.15 42.3214286 5.85 42.3214286"></polygon>
                        <polygon id="Path" points="4.14 44.7321429 10.44 44.7321429 10.98 43.9285714 4.77 43.9285714"></polygon>
                        <polygon id="Path" points="3.06 46.25 9.36 46.25 9.9 45.4464286 3.6 45.4464286"></polygon>
                        <polygon id="Path" points="1.98 47.7678571 8.19 47.7678571 8.82 46.9642857 2.52 46.9642857"></polygon>
                        <polygon id="Path" points="0.81 49.2857143 7.11 49.2857143 7.65 48.4821429 1.44 48.4821429"></polygon>
                    </g>
                </g>
            </g>
        </g>
    </g>
</svg>