<?xml version="1.0" encoding="UTF-8"?>
<svg width="149px" height="33px" viewBox="0 0 149 33" version="1.1" xmlns="http://www.w3.org/2000/svg" xmlns:xlink="http://www.w3.org/1999/xlink">
    <title>logo</title>
    <g id="Visual-Comps" stroke="none" stroke-width="1" fill="none" fill-rule="evenodd">
        <g id="Home---Zulla" transform="translate(-65.000000, -44.000000)" fill="#FFFFFF">
            <g id="logo" transform="translate(65.000000, 44.000000)">
                <path d="M47.064,28.364 C51.068,28.364 53.84,25.956 53.84,22.316 C53.84,19.544 52.468,18.06 48.296,16.464 C45.356,15.316 44.404,14.588 44.404,13.3 C44.404,12.096 45.468,11.172 46.868,11.172 C48.184,11.172 49.332,11.956 50.004,13.412 L52.916,11.62 C51.684,9.268 49.612,8.064 46.98,8.064 C43.34,8.064 40.904,10.22 40.904,13.384 C40.904,16.212 42.36,17.696 46.448,19.292 C49.332,20.44 50.34,21.28 50.34,22.624 C50.34,24.276 49.08,25.256 47.12,25.256 C44.852,25.256 43.312,23.94 43.06,21.616 L39.588,22.484 C40.148,26.04 43.172,28.364 47.064,28.364 Z M59.972,11.592 L59.972,8.484 L56.444,8.484 L56.444,11.592 L59.972,11.592 Z M59.888,28 L59.888,14.196 L56.528,14.196 L56.528,28 L59.888,28 Z M68.652,28.28 C69.492,28.28 70.332,28.14 71.172,27.86 L71.172,25.172 C70.556,25.368 69.968,25.48 69.492,25.48 C68.4,25.48 67.728,24.976 67.728,23.884 L67.728,16.856 L71.172,16.856 L71.172,14.196 L67.728,14.196 L67.728,9.044 L64.368,11.536 L64.368,14.196 L62.128,14.196 L62.128,16.856 L64.368,16.856 L64.368,24.136 C64.368,27.076 66.328,28.28 68.652,28.28 Z M79.6,28.28 C81.924,28.28 83.744,27.468 85.256,25.788 L82.932,23.744 C81.98,24.836 80.86,25.228 79.628,25.228 C77.444,25.228 76.324,24.024 76.184,22.204 L85.648,22.204 C85.704,21.756 85.732,21.336 85.732,20.916 C85.732,17.08 83.66,13.916 79.376,13.916 C74.784,13.916 72.824,17.556 72.824,21.168 C72.824,24.864 74.84,28.28 79.6,28.28 Z M82.512,19.544 L76.156,19.544 C76.352,18.172 77.304,16.716 79.348,16.716 C81.112,16.716 82.456,17.78 82.512,19.544 Z M103.204,28 L103.204,11.704 L109.308,11.704 L109.308,8.484 L93.572,8.484 L93.572,11.704 L99.676,11.704 L99.676,28 L103.204,28 Z M114.712,11.592 L114.712,8.484 L111.184,8.484 L111.184,11.592 L114.712,11.592 Z M114.628,28 L114.628,14.196 L111.268,14.196 L111.268,28 L114.628,28 Z M123.392,28.28 C124.232,28.28 125.072,28.14 125.912,27.86 L125.912,25.172 C125.296,25.368 124.708,25.48 124.232,25.48 C123.14,25.48 122.468,24.976 122.468,23.884 L122.468,16.856 L125.912,16.856 L125.912,14.196 L122.468,14.196 L122.468,9.044 L119.108,11.536 L119.108,14.196 L116.868,14.196 L116.868,16.856 L119.108,16.856 L119.108,24.136 C119.108,27.076 121.068,28.28 123.392,28.28 Z M131.288,28.28 C131.932,28.28 132.688,28.14 133.444,27.86 L133.444,25.172 C133.052,25.284 132.688,25.34 132.38,25.34 C131.764,25.34 131.4,25.088 131.4,24.472 L131.4,8.484 L128.04,8.484 L128.04,24.696 C128.04,27.16 129.412,28.28 131.288,28.28 Z M141.592,28.28 C143.916,28.28 145.736,27.468 147.248,25.788 L144.924,23.744 C143.972,24.836 142.852,25.228 141.62,25.228 C139.436,25.228 138.316,24.024 138.176,22.204 L147.64,22.204 C147.696,21.756 147.724,21.336 147.724,20.916 C147.724,17.08 145.652,13.916 141.368,13.916 C136.776,13.916 134.816,17.556 134.816,21.168 C134.816,24.864 136.832,28.28 141.592,28.28 Z M144.504,19.544 L138.148,19.544 C138.344,18.172 139.296,16.716 141.34,16.716 C143.104,16.716 144.448,17.78 144.504,19.544 Z" id="SiteTitle" fill-rule="nonzero"></path>
                <circle id="Oval" cx="16" cy="16" r="16"></circle>
            </g>
        </g>
    </g>
</svg>