<?xml version="1.0" encoding="UTF-8"?>
<svg width="278px" height="31px" viewBox="0 0 278 31" version="1.1" xmlns="http://www.w3.org/2000/svg" xmlns:xlink="http://www.w3.org/1999/xlink">
    <!-- Generator: Sketch 60 (88103) - https://sketch.com -->
    <title>msuMasthead</title>
    <desc>Created with Sketch.</desc>
    <defs>
        <rect id="path-1" x="0" y="0" width="26.6786397" height="31"></rect>
        <rect id="path-3" x="0" y="0" width="26.6786397" height="31"></rect>
    </defs>
    <g id="Symbols" stroke="none" stroke-width="1" fill="none" fill-rule="evenodd">
        <g id="Header/Home-Page" transform="translate(-15.000000, -11.000000)">
            <g id="msuHeader">
                <g transform="translate(0.000000, 11.000000)">
                    <g id="msuMasthead" transform="translate(15.000000, 0.000000)">
                        <g id="Group">
                            <g id="Clipped">
                                <g>
                                    <mask id="mask-2" fill="white">
                                        <use xlink:href="#path-1"></use>
                                    </mask>
                                    <g id="SVGID_1_"></g>
                                    <path d="M25.019064,2.13336364 C25.019064,2.13336364 23.4137778,5.58939394 22.5994343,7.30472727 C18.6054074,5.46069697 13.3702088,5.19860606 8.97181818,7.81387879 C6.03737374,9.61375758 3.6729697,12.8133333 3.42773064,16.248697 C3.34816835,18.5361212 4.33848485,21.0433636 4.01274747,23.3336061 C3.9303771,24.5595152 3.648633,25.7844848 3.07765657,26.8450606 C2.34381145,28.0728485 1.46488215,29.1371818 0,29.2207879 C0.326673401,28.8112121 2.59092256,27.6905152 1.70076094,22.5426364 C1.34694276,20.5022727 -1.44803367,15.4417576 1.25240404,9.0980303 C3.71977104,3.30478788 14.3886061,-3.55748485 25.019064,2.13336364 L25.019064,2.13336364 L25.019064,2.13336364 Z" id="Shape" fill="#FFFFFF" mask="url(#mask-2)"></path>
                                </g>
                                <g>
                                    <mask id="mask-4" fill="white">
                                        <use xlink:href="#path-3"></use>
                                    </mask>
                                    <g id="SVGID_1_"></g>
                                    <path d="M12.7917441,12.2900909 C14.1761279,11.7912727 15.7215084,11.7818788 17.1910707,12.1059697 C19.9598384,12.5991515 22.0350101,14.2778485 23.0449832,16.766303 C24.1017576,19.3740606 24.8627475,21.478303 26.6786397,23.7074848 C26.7291852,23.7694848 23.8406061,23.2800606 23.8518384,23.2002121 C24.5585387,18.0344848 19.6911987,17.8221818 18.3508081,19.7563939 C19.3617172,20.8705152 21.093367,21.4407273 22.4393737,21.2265455 C22.1538855,26.3556364 23.5775825,31.0112727 23.4980202,31 C22.3373468,30.8393636 17.02633,27.7027273 15.4743973,26.3415455 C13.1914276,26.7501818 11.4036162,27.5956364 8.76214815,27.962 C8.6807138,27.9732727 9.2470101,26.0052424 9.16651178,25.0254545 C9.16651178,22.3256364 7.10538047,19.7967879 8.56464646,16.4807273 C9.43702357,14.4939091 10.7540135,13.0256364 12.7917441,12.2900909 L12.7917441,12.2900909 L12.7917441,12.2900909 Z" id="Shape" fill="#FFFFFF" mask="url(#mask-4)"></path>
                                </g>
                            </g>
                            <path d="M14.7049832,10.7353939 C14.8584916,10.7372727 15.0953064,10.7729697 15.0971785,10.7551212 C15.1421077,10.5785152 15.2871919,9.3 16.3720471,8.36436364 C17.5813939,7.32727273 19.1688956,7.43154545 19.1539192,7.42121212 C17.5710976,6.93648485 15.9414747,6.90078788 14.8126263,7.00036364 L14.7049832,10.7353939 L14.7049832,10.7353939 Z" id="Shape" fill="#FFFFFF"></path>
                            <path d="M4.63801347,15.3891515 C4.39839057,16.930697 4.38060606,18.3538788 4.50977778,19.1119697 C4.51258586,19.1251212 4.7362963,17.8090303 5.48043771,17.0697273 C6.1300404,16.4271818 6.95280808,16.3031818 7.24859259,16.3116364 C7.24859259,16.3088182 7.39461279,15.81 7.37495623,15.8090606 L4.63801347,15.3891515 L4.63801347,15.3891515 Z" id="Shape" fill="#FFFFFF"></path>
                            <path d="M7.70256566,15.1035758 C7.78306397,14.8997273 7.87760269,14.720303 7.99647811,14.4863939 L5.18652525,13.3901212 C5.01055219,13.7433333 4.87950842,14.2684545 4.81398653,14.5559091 L7.70256566,15.1035758 L7.70256566,15.1035758 Z" id="Shape" fill="#FFFFFF"></path>
                            <path d="M8.38118519,14.0289091 C8.3886734,14.0204545 8.83047811,13.4511818 8.83796633,13.458697 L6.26108418,11.5122727 C5.99525253,11.8560909 5.77622222,12.2280909 5.59931313,12.6235758 L8.38118519,14.0289091 L8.38118519,14.0289091 Z" id="Shape" fill="#FFFFFF"></path>
                            <path d="M9.33967677,12.9692727 C9.35278114,12.9551818 9.91158923,12.4497879 9.91158923,12.4497879 L7.67822896,9.90121212 C7.17651852,10.3389697 7.0230101,10.5381212 6.71786532,10.9110606 L9.33967677,12.9692727 L9.33967677,12.9692727 Z" id="Shape" fill="#FFFFFF"></path>
                            <path d="M10.4975421,12.0862424 C10.5022222,12.1172424 11.1405926,11.7283333 11.1527609,11.7001515 L9.49599327,8.67060606 C8.861367,8.97684848 8.45700337,9.30657576 8.27073401,9.43715152 L10.4975421,12.0862424 L10.4975421,12.0862424 Z" id="Shape" fill="#FFFFFF"></path>
                            <path d="M11.7284175,11.4164545 C12.5184242,11.1468485 12.5174882,11.1374545 12.5174882,11.1515455 L11.5739731,7.74812121 C11.05167,7.90312121 10.3421616,8.20748485 10.1746128,8.31739394 L11.7284175,11.4164545 L11.7284175,11.4164545 Z" id="Shape" fill="#FFFFFF"></path>
                            <path d="M13.1287138,10.9533333 C13.1558586,10.969303 13.8429024,10.8002121 13.8503906,10.8002121 L13.9365051,7.11027273 C13.9084242,7.13845455 13.0856566,7.26621212 12.3827003,7.46254545 L13.1287138,10.9533333 L13.1287138,10.9533333 Z" id="Shape" fill="#FFFFFF"></path>
                        </g>
                        <g id="Group" transform="translate(33.696970, 12.212121)" fill="#FFFFFF">
                            <polygon id="Shape" points="0.563488215 0.550484848 3.19465993 0.550484848 6.10851178 5.25778788 9.02517172 0.550484848 11.6554074 0.550484848 11.6554074 11.6813636 9.23109764 11.6813636 9.23109764 4.41515152 6.10851178 9.16848485 6.04579798 9.16848485 2.95597306 4.46118182 2.95597306 11.6813636 0.563488215 11.6813636"></polygon>
                            <polygon id="Shape" points="14.4269832 0.550484848 16.8662694 0.550484848 16.8662694 11.6813636 14.4269832 11.6813636"></polygon>
                            <path d="M19.147367,6.14739394 L19.147367,6.11545455 C19.147367,2.95157576 21.5239394,0.358848485 24.9301414,0.358848485 C27.0249697,0.358848485 28.2764377,1.05869697 29.3051313,2.077 L27.7513266,3.87312121 C26.896734,3.09624242 26.0252929,2.61809091 24.914229,2.61809091 C23.0440471,2.61809091 21.6999125,4.17654545 21.6999125,6.08445455 L21.6999125,6.11639394 C21.6999125,8.02524242 23.0131582,9.61657576 24.914229,9.61657576 C26.1816094,9.61657576 26.9594478,9.10930303 27.8308889,8.31175758 L29.3837576,9.88618182 C28.2436768,11.1111515 26.9762963,11.8748788 24.8365387,11.8748788 C21.5716768,11.8739394 19.147367,9.34509091 19.147367,6.14739394 L19.147367,6.14739394 Z" id="Shape"></path>
                            <polygon id="Shape" points="31.3306936 0.550484848 33.7709158 0.550484848 33.7709158 4.95530303 38.2722694 4.95530303 38.2722694 0.550484848 40.7124916 0.550484848 40.7124916 11.6813636 38.2722694 11.6813636 38.2722694 7.21548485 33.7709158 7.21548485 33.7709158 11.6813636 31.3306936 11.6813636"></polygon>
                            <polygon id="Shape" points="43.4812593 0.550484848 45.9224175 0.550484848 45.9224175 11.6813636 43.4812593 11.6813636"></polygon>
                            <path d="M48.2025791,6.14739394 L48.2025791,6.11545455 C48.2025791,2.95157576 50.6596498,0.358848485 54.0199865,0.358848485 C56.015596,0.358848485 57.2193266,0.899939394 58.3781279,1.88724242 L56.8402357,3.74724242 C55.982835,3.03048485 55.2237172,2.61621212 53.9394882,2.61621212 C52.1657172,2.61621212 50.7532525,4.19063636 50.7532525,6.08257576 L50.7532525,6.11451515 C50.7532525,8.15206061 52.1488687,9.64663636 54.1126532,9.64663636 C55.0018788,9.64663636 55.7928215,9.42493939 56.4115354,8.97872727 L56.4115354,7.38739394 L53.9554007,7.38739394 L53.9554007,5.27375758 L58.7721953,5.27375758 L58.7721953,10.1069394 C57.6311785,11.0773333 56.0614613,11.8739394 54.0340269,11.8739394 C50.5810236,11.8739394 48.2025791,9.44090909 48.2025791,6.14739394 L48.2025791,6.14739394 Z" id="Shape"></path>
                            <path d="M64.9181481,0.46969697 L67.1683569,0.46969697 L71.9233737,11.6804242 L69.3708283,11.6804242 L68.3561751,9.18445455 L63.6657441,9.18445455 L62.6510909,11.6804242 L60.1631313,11.6804242 L64.9181481,0.46969697 L64.9181481,0.46969697 Z M67.4866061,7.02290909 L66.0123636,3.41375758 L64.5371852,7.02290909 L67.4866061,7.02290909 L67.4866061,7.02290909 Z" id="Shape"></path>
                            <polygon id="Shape" points="73.6306869 0.550484848 75.8818316 0.550484848 81.0805253 7.40430303 81.0805253 0.550484848 83.4898586 0.550484848 83.4898586 11.6813636 81.4128148 11.6813636 76.0418923 4.60678788 76.0418923 11.6813636 73.6316229 11.6813636 73.6316229 0.550484848"></polygon>
                            <path d="M90.14033,10.0609091 L91.5818114,8.32678788 C92.5805522,9.15345455 93.6279663,9.67857576 94.8953468,9.67857576 C95.8912795,9.67857576 96.4940808,9.28027273 96.4940808,8.62833333 L96.4940808,8.59639394 C96.4940808,7.97639394 96.1149899,7.65793939 94.2607205,7.18166667 C92.0264242,6.60957576 90.5821347,5.98863636 90.5821347,3.77918182 L90.5821347,3.74724242 C90.5821347,1.72660606 92.1986532,0.388909091 94.4657104,0.388909091 C96.083165,0.388909091 97.4600606,0.899 98.586101,1.80645455 L97.3187205,3.65048485 C96.3358923,2.96566667 95.3689764,2.55327273 94.4338855,2.55327273 C93.4987946,2.55327273 93.0092525,2.98163636 93.0092525,3.52272727 L93.0092525,3.55372727 C93.0092525,4.28551515 93.4838182,4.52412121 95.4008013,5.01918182 C97.6510101,5.60724242 98.9193266,6.41606061 98.9193266,8.35778788 L98.9193266,8.39066667 C98.9193266,10.602 97.2391582,11.8410606 94.8466734,11.8410606 C93.1665051,11.8410606 91.4722963,11.253 90.14033,10.0609091 L90.14033,10.0609091 Z" id="Shape"></path>
                            <polygon id="Shape" points="103.386983 2.80878788 100.009798 2.80878788 100.009798 0.550484848 109.200646 0.550484848 109.200646 2.80878788 105.827205 2.80878788 105.827205 11.6813636 103.386983 11.6813636 103.386983 2.80878788"></polygon>
                            <path d="M113.446465,0.46969697 L115.694801,0.46969697 L120.448882,11.6804242 L117.897273,11.6804242 L116.884492,9.18445455 L112.194061,9.18445455 L111.178471,11.6804242 L108.691448,11.6804242 L113.446465,0.46969697 L113.446465,0.46969697 Z M116.011178,7.02290909 L114.538808,3.41375758 L113.066438,7.02290909 L116.011178,7.02290909 L116.011178,7.02290909 Z" id="Shape"></path>
                            <polygon id="Shape" points="123.316869 2.80878788 119.942492 2.80878788 119.942492 0.550484848 129.132404 0.550484848 129.132404 2.80878788 125.756155 2.80878788 125.756155 11.6813636 123.317805 11.6813636 123.317805 2.80878788"></polygon>
                            <polygon id="Shape" points="131.000714 0.550484848 139.366923 0.550484848 139.366923 2.72893939 133.424088 2.72893939 133.424088 4.98818182 138.652734 4.98818182 138.652734 7.16663636 133.424088 7.16663636 133.424088 9.50290909 139.446485 9.50290909 139.446485 11.6804242 131.000714 11.6804242"></polygon>
                            <path d="M146.508808,7.05390909 L146.508808,0.550484848 L147.334384,0.550484848 L147.334384,6.97406061 C147.334384,9.59872727 148.744976,11.1092727 151.09066,11.1092727 C153.339933,11.1092727 154.78235,9.74339394 154.78235,7.05390909 L154.78235,0.550484848 L155.606054,0.550484848 L155.606054,6.95809091 C155.606054,10.1539091 153.751785,11.8579697 151.058835,11.8579697 C148.394902,11.8579697 146.508808,10.1708182 146.508808,7.05390909 L146.508808,7.05390909 Z" id="Shape"></path>
                            <polygon id="Shape" points="158.72396 0.550484848 159.501798 0.550484848 167.156626 10.2356364 167.156626 0.550484848 167.948505 0.550484848 167.948505 11.6813636 167.330727 11.6813636 159.51771 1.79048485 159.51771 11.6813636 158.72396 11.6813636 158.72396 0.550484848"></polygon>
                            <polygon id="Shape" points="171.353771 0.550484848 172.174667 0.550484848 172.174667 11.6813636 171.353771 11.6813636"></polygon>
                            <polygon id="Shape" points="174.631737 0.550484848 175.549044 0.550484848 179.893145 10.7908182 184.25035 0.550484848 185.120855 0.550484848 180.241347 11.7621515 179.511246 11.7621515"></polygon>
                            <polygon id="Shape" points="187.463731 0.550484848 195.357246 0.550484848 195.357246 1.31327273 188.287434 1.31327273 188.287434 5.68709091 194.643057 5.68709091 194.643057 6.44987879 188.287434 6.44987879 188.287434 10.9195152 195.434 10.9195152 195.434 11.6813636 187.463731 11.6813636"></polygon>
                            <path d="M198.08202,0.550484848 L202.737818,0.550484848 C204.102545,0.550484848 205.196761,0.979787879 205.862276,1.64675758 C206.382707,2.17281818 206.700956,2.91869697 206.700956,3.71624242 L206.700956,3.74818182 C206.700956,5.60818182 205.321253,6.67251515 203.451071,6.9289697 L207.11,11.682303 L206.067266,11.682303 L202.532828,7.07175758 L198.901044,7.07175758 L198.901044,11.682303 L198.08202,11.682303 L198.08202,0.550484848 L198.08202,0.550484848 Z M202.641407,6.32212121 C204.498485,6.32212121 205.876316,5.38366667 205.876316,3.77918182 L205.876316,3.74724242 C205.876316,2.25078788 204.702539,1.31233333 202.691953,1.31233333 L198.901044,1.31233333 L198.901044,6.32212121 L202.641407,6.32212121 L202.641407,6.32212121 Z" id="Shape"></path>
                            <path d="M208.821057,10.0609091 L209.362081,9.44090909 C210.578916,10.5691212 211.705892,11.0942424 213.338323,11.0942424 C215.002579,11.0942424 216.14266,10.1548485 216.14266,8.88290909 L216.14266,8.8509697 C216.14266,7.67390909 215.522074,6.9900303 213.004162,6.48181818 C210.340229,5.94260606 209.26567,5.0370303 209.26567,3.34987879 L209.26567,3.31606061 C209.26567,1.66178788 210.769865,0.388909091 212.831933,0.388909091 C214.447515,0.388909091 215.50897,0.836060606 216.634074,1.74163636 L216.110835,2.39357576 C215.065293,1.488 214.016007,1.13666667 212.800108,1.13666667 C211.166741,1.13666667 210.087502,2.07512121 210.087502,3.23527273 L210.087502,3.26721212 C210.087502,4.44427273 210.691239,5.1610303 213.319603,5.70118182 C215.886189,6.22724242 216.965428,7.14972727 216.965428,8.77206061 L216.965428,8.804 C216.965428,10.6010606 215.427535,11.8401212 213.287778,11.8401212 C211.514007,11.8410606 210.150215,11.253 208.821057,10.0609091 L208.821057,10.0609091 Z" id="Shape"></path>
                            <polygon id="Shape" points="219.784741 0.550484848 220.60938 0.550484848 220.60938 11.6813636 219.784741 11.6813636"></polygon>
                            <polygon id="Shape" points="227.087623 1.31233333 223.220896 1.31233333 223.220896 0.549545455 231.777118 0.549545455 231.777118 1.31233333 227.914135 1.31233333 227.914135 11.6804242 227.087623 11.6804242"></polygon>
                            <polygon id="Shape" points="237.89499 7.27654545 233.137165 0.550484848 234.168667 0.550484848 238.322754 6.53066667 242.487138 0.550484848 243.47371 0.550484848 238.715886 7.26151515 238.715886 11.6813636 237.895926 11.6813636 237.895926 7.27654545"></polygon>
                        </g>
                    </g>
                </g>
            </g>
        </g>
    </g>
</svg>