<?xml version="1.0" encoding="UTF-8"?>
<svg width="13px" height="17px" viewBox="0 0 13 17" version="1.1" xmlns="http://www.w3.org/2000/svg" xmlns:xlink="http://www.w3.org/1999/xlink">
    <!-- Generator: sketchtool 56.2 (101010) - https://sketch.com -->
    <title>116F8DD9-2AD6-4EA3-8940-D5270900C36E</title>
    <desc>Created with sketchtool.</desc>
    <defs>
        <polygon id="path-1" points="0 0.416 12.043 0.416 12.043 16 0 16"></polygon>
        <polyline id="path-3" points="0 0.416 12.043 0.416 12.043 16 0 16"></polyline>
    </defs>
    <g id="Page-1" stroke="none" stroke-width="1" fill="none" fill-rule="evenodd">
        <g id="Home" transform="translate(-861.000000, -34.000000)">
            <g id="Navigation">
                <g id="hand/hand" transform="translate(861.000000, 34.090000)">
                    <g id="Hand">
                        <g id="Group-3">
                            <mask id="mask-2" fill="white">
                                <use xlink:href="#path-1"></use>
                            </mask>
                            <g id="Clip-2"></g>
                            <path d="M3.5474,0.4158 C3.5444,0.6208 3.5434,0.8258 3.5414,1.0318 L3.5404,1.1178 L3.4544,1.1218 C3.2494,1.1278 3.0434,1.1308 2.8374,1.1318 C2.8264,3.2178 2.8324,5.3038 2.8314,7.3898 L2.8314,7.4798 L2.7414,7.4808 C2.5684,7.4828 2.3944,7.4848 2.2204,7.4888 L2.1254,7.4908 L2.1264,7.3968 C2.1304,7.1928 2.1294,6.9888 2.1244,6.7868 C1.4164,6.7808 0.7084,6.7768 0.0004,6.7888 C0.0014,7.4938 -0.0006,8.1988 0.0004,8.9038 C0.2054,8.9078 0.4134,8.9168 0.6214,8.9028 L0.7344,8.8948 L0.7174,9.0068 C0.6884,9.2108 0.7074,9.4168 0.7084,9.6208 C0.9044,9.6308 1.1014,9.6328 1.2994,9.6338 L1.3834,9.6338 L1.3904,9.7178 C1.4234,10.1538 1.4074,10.5908 1.4144,11.0288 C1.6174,11.0368 1.8224,11.0408 2.0264,11.0428 L2.1154,11.0438 L2.1164,11.1328 C2.1204,11.5698 2.1194,12.0068 2.1254,12.4438 C2.3314,12.4468 2.5374,12.4578 2.7454,12.4448 L2.8494,12.4388 L2.8414,12.5428 C2.8074,12.9798 2.8374,13.4208 2.8334,13.8588 C3.0334,13.8628 3.2334,13.8658 3.4334,13.8668 L3.5234,13.8668 L3.5244,13.9568 C3.5334,14.6318 3.5294,15.3068 3.5384,15.9828 C4.7034,15.9998 5.8704,16.0008 7.0364,15.9998 C8.2304,15.9978 9.4234,16.0078 10.6174,15.9788 C10.5984,15.3058 10.6584,14.6328 10.6304,13.9598 L10.6274,13.8628 L10.7244,13.8658 C10.9244,13.8708 11.1254,13.8668 11.3244,13.8608 C11.3314,13.1908 11.3324,12.5208 11.3334,11.8508 L11.3334,11.7678 L11.4144,11.7598 C11.6184,11.7398 11.8234,11.7388 12.0294,11.7408 C12.0344,10.9898 12.0204,10.2408 12.0434,9.4898 L12.0434,9.4878 L12.0434,9.4858 C12.0184,8.5848 12.0364,7.6828 12.0254,6.7808 C11.8234,6.7828 11.6214,6.7808 11.4204,6.7778 L11.3334,6.7768 L11.3304,6.6888 C11.3264,6.4898 11.3244,6.2898 11.3274,6.0898 C11.1204,6.0838 10.9134,6.0908 10.7084,6.0788 L10.6284,6.0738 L10.6224,5.9948 C10.6084,5.7878 10.6154,5.5788 10.6124,5.3698 C10.1724,5.3678 9.7334,5.3718 9.2944,5.3648 L9.2054,5.3638 L9.2044,5.2748 C9.2014,5.0768 9.1984,4.8778 9.2014,4.6788 C8.5264,4.6428 7.8504,4.6658 7.1744,4.6578 L7.0884,4.6568 L7.0854,4.5718 C7.0754,4.3668 7.0724,4.1618 7.0724,3.9558 C6.6334,3.9538 6.1954,3.9568 5.7564,3.9478 L5.6694,3.9458 L5.6684,3.8578 C5.6594,2.9498 5.6644,2.0408 5.6614,1.1328 C5.5444,1.1318 5.4274,1.1308 5.3104,1.1308 C5.2224,1.1308 5.1354,1.1308 5.0484,1.1318 L4.9554,1.1328 L4.9564,1.0398 C4.9594,0.8308 4.9594,0.6228 4.9394,0.4158 C4.4754,0.4168 4.0114,0.4188 3.5474,0.4158 L3.5474,0.4158 Z" id="Fill-1" fill="#FFFFFF" mask="url(#mask-2)"></path>
                        </g>
                        <g id="Group-6">
                            <mask id="mask-4" fill="white">
                                <use xlink:href="#path-3"></use>
                            </mask>
                            <g id="Clip-5"></g>
                            <path d="M3.547,0.4156 C4.011,0.4186 4.475,0.4176 4.939,0.4156 C4.962,0.6486 4.961,0.8826 4.956,1.1156 C4.484,1.1206 4.013,1.1146 3.541,1.1206 C3.543,0.8856 3.543,0.6506 3.547,0.4156" id="Fill-4" fill="#1C1C1C" mask="url(#mask-4)"></path>
                        </g>
                        <path d="M2.8369,1.1315 C3.0719,1.1305 3.3069,1.1305 3.5409,1.1205 C3.5419,3.7155 3.5459,6.3105 3.5429,8.9065 C3.3069,8.9115 3.0699,8.9115 2.8339,8.9065 C2.8289,8.6745 2.8289,8.4415 2.8319,8.2085 C2.5969,8.1995 2.3619,8.2005 2.1269,8.2015 C2.1199,7.9645 2.1179,7.7265 2.1269,7.4895 C2.3619,7.4805 2.5969,7.4835 2.8319,7.4805 C2.8319,5.3645 2.8259,3.2475 2.8369,1.1315 L2.8369,1.1315 Z" id="Fill-7" fill="#1C1C1C"></path>
                        <path d="M4.9588,1.1324 C5.1928,1.1294 5.4268,1.1304 5.6608,1.1324 C5.6648,2.0714 5.6578,3.0094 5.6678,3.9484 C6.1358,3.9604 6.6048,3.9534 7.0728,3.9554 C7.0718,4.1894 7.0728,4.4244 7.0858,4.6584 C7.7908,4.6694 8.4968,4.6414 9.2008,4.6784 C9.1978,4.9074 9.1998,5.1354 9.2048,5.3644 C9.6738,5.3734 10.1428,5.3674 10.6128,5.3694 C10.6158,5.6044 10.6008,5.8404 10.6258,6.0754 C10.8588,6.0954 11.0928,6.0834 11.3268,6.0904 C11.3228,6.3194 11.3248,6.5484 11.3308,6.7774 C11.5618,6.7814 11.7928,6.7834 12.0248,6.7814 C12.0358,7.6834 12.0178,8.5864 12.0428,9.4874 C12.0208,10.2384 12.0338,10.9894 12.0288,11.7404 C11.7968,11.7394 11.5638,11.7384 11.3328,11.7664 C11.3318,12.4644 11.3318,13.1624 11.3238,13.8604 C11.0918,13.8674 10.8598,13.8754 10.6278,13.8644 C10.6018,13.1544 10.6138,12.4434 10.6208,11.7324 C10.8538,11.7344 11.0878,11.7344 11.3218,11.7334 C11.3218,10.0834 11.3228,8.4334 11.3238,6.7834 C11.0908,6.7804 10.8578,6.7804 10.6248,6.7834 C10.6118,6.5534 10.6268,6.3224 10.6078,6.0934 C10.3768,6.0494 10.1398,6.0764 9.9068,6.0754 C9.9018,6.7834 9.9148,7.4914 9.9008,8.1994 C9.6698,8.1994 9.4378,8.1994 9.2068,8.2004 C9.1918,7.2564 9.2078,6.3114 9.2018,5.3674 C8.7288,5.3654 8.2558,5.3664 7.7828,5.3674 C7.7828,6.0754 7.7898,6.7824 7.7818,7.4894 C7.5468,7.4944 7.3128,7.4944 7.0788,7.4894 C7.0748,6.5464 7.0738,5.6024 7.0848,4.6594 C6.6108,4.6574 6.1378,4.6564 5.6648,4.6624 C5.6598,5.6044 5.6678,6.5464 5.6648,7.4894 C5.4278,7.4964 5.1898,7.4964 4.9538,7.4894 C4.9538,5.3704 4.9548,3.2514 4.9588,1.1324 L4.9588,1.1324 Z" id="Fill-9" fill="#1C1C1C"></path>
                        <path d="M0.0008,6.7886 C0.7088,6.7766 1.4168,6.7806 2.1248,6.7866 C2.1298,7.0206 2.1338,7.2546 2.1268,7.4896 C1.6568,7.5006 1.1878,7.4926 0.7188,7.4956 C0.7018,7.9636 0.7438,8.4316 0.7118,8.8986 C0.4758,8.9256 0.2368,8.9076 0.0008,8.9036 C-0.0012,8.1986 0.0018,7.4936 0.0008,6.7886" id="Fill-11" fill="#1C1C1C"></path>
                        <path d="M0.7309,8.9147 C0.9579,8.8797 1.1889,8.8927 1.4179,8.8997 C1.4229,9.1347 1.4239,9.3717 1.4219,9.6077 C1.6579,9.6097 1.8939,9.6087 2.1299,9.6117 C2.1359,10.0827 2.1299,10.5527 2.1329,11.0237 C2.3659,11.0217 2.5999,11.0227 2.8329,11.0257 C2.8299,11.4977 2.8639,11.9727 2.8159,12.4427 C2.5859,12.4637 2.3549,12.4467 2.1259,12.4437 C2.1179,11.9767 2.1189,11.5107 2.1149,11.0447 C1.8819,11.0427 1.6479,11.0387 1.4139,11.0297 C1.4059,10.5647 1.4289,10.0997 1.3869,9.6357 C1.1609,9.6367 0.9349,9.6327 0.7089,9.6207 C0.7079,9.3857 0.6769,9.1467 0.7309,8.9147 L0.7309,8.9147 Z" id="Fill-13" fill="#1C1C1C"></path>
                        <path d="M2.8478,12.4458 C3.0788,12.4278 3.3108,12.4388 3.5428,12.4398 C3.5488,12.9098 3.5428,13.3788 3.5448,13.8478 C3.7798,13.8468 4.0168,13.8468 4.2528,13.8558 C4.2568,14.3248 4.2488,14.7948 4.2548,15.2648 C6.1378,15.2688 8.0198,15.2678 9.9018,15.2678 C9.9098,14.7968 9.9008,14.3268 9.9058,13.8568 C10.1468,13.8538 10.3878,13.8508 10.6278,13.8638 C10.6668,14.5688 10.5978,15.2738 10.6178,15.9788 C9.4238,16.0078 8.2298,15.9978 7.0358,15.9988 C5.8698,16.0008 4.7038,15.9988 3.5388,15.9828 C3.5288,15.2778 3.5338,14.5718 3.5238,13.8678 C3.2938,13.8668 3.0638,13.8638 2.8338,13.8588 C2.8378,13.3878 2.7998,12.9138 2.8478,12.4458 L2.8478,12.4458 Z" id="Fill-15" fill="#1C1C1C"></path>
                    </g>
                </g>
            </g>
        </g>
    </g>
</svg>