<?xml version="1.0" encoding="UTF-8"?>
<svg width="81px" height="34px" viewBox="0 0 81 34" version="1.1" xmlns="http://www.w3.org/2000/svg" xmlns:xlink="http://www.w3.org/1999/xlink">
    <!-- Generator: sketchtool 56.2 (101010) - https://sketch.com -->
    <title>8D70993A-2347-4C67-BD09-3C447F23F581</title>
    <desc>Created with sketchtool.</desc>
    <g id="Page-1" stroke="none" stroke-width="1" fill="none" fill-rule="evenodd">
        <g id="Mobile---Menu" transform="translate(-10.000000, -10.000000)" fill="#FFFFFF" fill-rule="nonzero">
            <g id="Logo" transform="translate(10.000000, 10.000000)">
                <path d="M17,0 C26.3888407,0 34,7.61115925 34,17 C34,26.3888407 26.3888407,34 17,34 C7.61115925,34 0,26.3888407 0,17 C0,7.61115925 7.61115925,0 17,0 Z M17,1 C8.163444,1 1,8.163444 1,17 C1,25.836556 8.163444,33 17,33 C25.836556,33 33,25.836556 33,17 C33,8.163444 25.836556,1 17,1 Z" id="logo" transform="translate(17.000000, 17.000000) scale(-1, 1) translate(-17.000000, -17.000000) "></path>
                <path d="M43.712,24.09 C43.6039995,24.09 43.5200003,24.0600003 43.46,24 C43.3999997,23.9399997 43.37,23.8740004 43.37,23.802 C43.37,23.7299996 43.4029997,23.6580004 43.469,23.586 C43.5350003,23.5139996 43.6219995,23.4600002 43.73,23.424 C44.1500021,23.3039994 44.4349993,23.1720007 44.585,23.028 C44.7350008,22.8839993 44.81,22.6380017 44.81,22.29 L44.81,14.082 C44.81,13.6979981 44.7320008,13.4280008 44.576,13.272 C44.4199992,13.1159992 44.1020024,12.9840005 43.622,12.876 C43.3939989,12.8159997 43.28,12.684001 43.28,12.48 C43.28,12.4079996 43.3159996,12.3450003 43.388,12.291 C43.4600004,12.2369997 43.5319996,12.21 43.604,12.21 C44.0480022,12.21 44.5159975,12.2279998 45.008,12.264 C45.6560032,12.2880001 46.0879989,12.3 46.304,12.3 C46.5320011,12.3 46.9819966,12.2880001 47.654,12.264 C48.3500035,12.2399999 48.8299987,12.228 49.094,12.228 C49.286001,12.228 49.382,12.3179991 49.382,12.498 C49.382,12.6060005 49.3550003,12.6869997 49.301,12.741 C49.2469997,12.7950003 49.1600006,12.8399998 49.04,12.876 C48.5479975,13.0200007 48.2300007,13.1699992 48.086,13.326 C47.9419993,13.4820008 47.87,13.7399982 47.87,14.1 L47.87,22.11 C47.87,22.4340016 47.9389993,22.6679993 48.077,22.812 C48.2150007,22.9560007 48.4399984,23.028 48.752,23.028 L50.498,23.028 C50.9540023,23.028 51.3679981,22.8600017 51.74,22.524 C52.0760017,22.2119984 52.3999984,21.7260033 52.712,21.066 C52.8320006,20.8139987 52.9249997,20.6550003 52.991,20.589 C53.0570003,20.5229997 53.1319996,20.49 53.216,20.49 C53.3000004,20.49 53.3629998,20.5289996 53.405,20.607 C53.4470002,20.6850004 53.468,20.7719995 53.468,20.868 C53.468,20.9040002 53.4590001,20.9609996 53.441,21.039 C53.4229999,21.1170004 53.4080001,21.1979996 53.396,21.282 C53.2159991,21.9180032 53.0900004,22.3859985 53.018,22.686 C52.9459996,22.9860015 52.8920002,23.339998 52.856,23.748 C52.8319999,23.9760011 52.7300009,24.09 52.55,24.09 L50.984,24.072 C49.1599909,24.0239998 47.6000065,24 46.304,24 C45.895998,24 45.4580023,24.0179998 44.99,24.054 C44.3659969,24.0780001 43.9400011,24.09 43.712,24.09 Z M57.842,24.252 C57.1219964,24.252 56.462003,24.0900016 55.862,23.766 C55.261997,23.4419984 54.7910017,22.9890029 54.449,22.407 C54.1069983,21.8249971 53.936,21.1740036 53.936,20.454 C53.936,19.6739961 54.1279981,18.9540033 54.512,18.294 C54.8960019,17.634 55.4149967,17.1090019 56.069,16.719 C56.7230033,16.328998 57.445996,16.134 58.238,16.134 C58.9700037,16.134 59.6449969,16.3079983 60.263,16.656 C60.8810031,17.0040017 61.3699982,17.4689971 61.73,18.051 C62.0900018,18.6330029 62.27,19.2599966 62.27,19.932 C62.27,20.736004 62.1020017,21.4649967 61.766,22.119 C61.4299983,22.7730033 60.9290033,23.2919981 60.263,23.676 C59.5969967,24.0600019 58.7900047,24.252 57.842,24.252 Z M58.184,23.406 C58.6040021,23.406 58.9219989,23.2320017 59.138,22.884 C59.4020013,22.4399978 59.534,21.6000062 59.534,20.364 C59.534,19.367995 59.3900014,18.5550031 59.102,17.925 C58.8139986,17.2949968 58.4360023,16.98 57.968,16.98 C57.6559984,16.98 57.398001,17.081999 57.194,17.286 C56.989999,17.490001 56.8490004,17.8109978 56.771,18.249 C56.6929996,18.6870022 56.654,19.2719963 56.654,20.004 C56.654,20.5800029 56.7199993,21.1289974 56.852,21.651 C56.9840007,22.1730026 57.1669988,22.5959984 57.401,22.92 C57.6350012,23.2440016 57.8959986,23.406 58.184,23.406 Z M71.702,16.548 C71.7980005,16.548 71.8729997,16.5869996 71.927,16.665 C71.9810003,16.7430004 72.008,16.8479993 72.008,16.98 C72.008,17.0760005 71.9840002,17.1959993 71.936,17.34 C71.8879998,17.4840007 71.8280004,17.6039995 71.756,17.7 C71.6839996,17.7840004 71.6060004,17.826 71.522,17.826 L71.036,17.826 C70.7239984,17.826 70.5080006,17.8739995 70.388,17.97 C70.3759999,17.9820001 70.3580001,17.9939999 70.334,18.006 C70.3099999,18.0180001 70.298,18.0929993 70.298,18.231 L70.298,18.816 C70.298,19.4400031 70.1330017,20.0189973 69.803,20.553 C69.4729984,21.0870027 69.0260028,21.5129984 68.462,21.831 C67.8979972,22.1490016 67.292,22.308 66.644,22.308 C66.247998,22.308 65.8280022,22.2300008 65.384,22.074 C65.191999,22.2300008 65.096,22.3679994 65.096,22.488 C65.096,22.6680009 65.2729982,22.7999996 65.627,22.884 C65.9810018,22.9680004 66.6739948,23.0519996 67.706,23.136 C69.0500067,23.2440005 70.018997,23.4449985 70.613,23.739 C71.207003,24.0330015 71.504,24.4619972 71.504,25.026 C71.504,25.6860033 71.2610024,26.3399968 70.775,26.988 C70.2889976,27.6360032 69.6650038,28.1669979 68.903,28.581 C68.1409962,28.9950021 67.3760038,29.202 66.608,29.202 C65.407994,29.202 64.4720034,29.0220018 63.8,28.662 C63.1279966,28.3019982 62.792,27.8040032 62.792,27.168 C62.792,26.771998 62.8369996,26.469001 62.927,26.259 C63.0170005,26.0489989 63.2179984,25.8300011 63.53,25.602 L64.502,24.882 C63.6859959,24.4979981 63.278,23.9340037 63.278,23.19 C63.278,22.9259987 63.4459983,22.6860011 63.782,22.47 C64.190002,22.2059987 64.5079989,21.9600011 64.736,21.732 C64.2799977,21.4559986 63.9170014,21.1050021 63.647,20.679 C63.3769987,20.2529979 63.242,19.7820026 63.242,19.266 C63.242,18.665997 63.4159983,18.1290024 63.764,17.655 C64.1120017,17.1809976 64.5739971,16.8090013 65.15,16.539 C65.7260029,16.2689986 66.3379968,16.134 66.986,16.134 C67.190001,16.134 67.4119988,16.1519998 67.652,16.188 C67.8920012,16.2240002 68.1319988,16.2659998 68.372,16.314 L69.236,16.476 C69.7400025,16.5600004 70.2319976,16.602 70.712,16.602 C70.8800008,16.602 71.0839988,16.5900001 71.324,16.566 L71.702,16.548 Z M66.86,21.48 C67.2200018,21.48 67.504999,21.2730021 67.715,20.859 C67.9250011,20.4449979 68.03,19.8840035 68.03,19.176 C68.03,18.4919966 67.9190011,17.946002 67.697,17.538 C67.4749989,17.129998 67.1780019,16.926 66.806,16.926 C66.4699983,16.926 66.1880011,17.129998 65.96,17.538 C65.7319989,17.946002 65.618,18.4619969 65.618,19.086 C65.618,19.7700034 65.7379988,20.3399977 65.978,20.796 C66.2180012,21.2520023 66.5119983,21.48 66.86,21.48 Z M69.092,26.34 C69.092,26.1599991 69.0290006,26.0160005 68.903,25.908 C68.7769994,25.7999995 68.5550016,25.7100004 68.237,25.638 C67.9189984,25.5659996 67.4480031,25.4940004 66.824,25.422 C66.2719972,25.3619997 65.8160018,25.2840005 65.456,25.188 C64.8079968,25.584002 64.484,26.0399974 64.484,26.556 C64.484,27.0480025 64.687998,27.4529984 65.096,27.771 C65.504002,28.0890016 66.0259968,28.248 66.662,28.248 C67.5140043,28.248 68.1019984,28.0860016 68.426,27.762 C68.630001,27.557999 68.7919994,27.3300013 68.912,27.078 C69.0320006,26.8259987 69.092,26.5800012 69.092,26.34 Z M76.184,24.252 C75.4639964,24.252 74.804003,24.0900016 74.204,23.766 C73.603997,23.4419984 73.1330017,22.9890029 72.791,22.407 C72.4489983,21.8249971 72.278,21.1740036 72.278,20.454 C72.278,19.6739961 72.4699981,18.9540033 72.854,18.294 C73.2380019,17.634 73.7569967,17.1090019 74.411,16.719 C75.0650033,16.328998 75.787996,16.134 76.58,16.134 C77.3120037,16.134 77.9869969,16.3079983 78.605,16.656 C79.2230031,17.0040017 79.7119982,17.4689971 80.072,18.051 C80.4320018,18.6330029 80.612,19.2599966 80.612,19.932 C80.612,20.736004 80.4440017,21.4649967 80.108,22.119 C79.7719983,22.7730033 79.2710033,23.2919981 78.605,23.676 C77.9389967,24.0600019 77.1320047,24.252 76.184,24.252 Z M76.526,23.406 C76.9460021,23.406 77.2639989,23.2320017 77.48,22.884 C77.7440013,22.4399978 77.876,21.6000062 77.876,20.364 C77.876,19.367995 77.7320014,18.5550031 77.444,17.925 C77.1559986,17.2949968 76.7780023,16.98 76.31,16.98 C75.9979984,16.98 75.740001,17.081999 75.536,17.286 C75.331999,17.490001 75.1910004,17.8109978 75.113,18.249 C75.0349996,18.6870022 74.996,19.2719963 74.996,20.004 C74.996,20.5800029 75.0619993,21.1289974 75.194,21.651 C75.3260007,22.1730026 75.5089988,22.5959984 75.743,22.92 C75.9770012,23.2440016 76.2379986,23.406 76.526,23.406 Z"></path>
            </g>
        </g>
    </g>
</svg>