<?xml version="1.0" standalone="no"?>
<!DOCTYPE svg PUBLIC "-//W3C//DTD SVG 1.1//EN" "http://www.w3.org/Graphics/SVG/1.1/DTD/svg11.dtd" >
<svg xmlns="http://www.w3.org/2000/svg" xmlns:xlink="http://www.w3.org/1999/xlink" version="1.1">
<metadata></metadata>
<defs>
<font id="hk_groteskbold_italic" horiz-adv-x="1188" >
<font-face units-per-em="2048" ascent="1434" descent="-614" />
<missing-glyph horiz-adv-x="553" />
<glyph unicode="&#xfb01;" horiz-adv-x="1106" d="M61 0l183 795h-156l47 204l160 11q45 198 171 311t341 113q86 0 144 -17.5t90 -40.5t63 -55l16 -16l-159 -172q-30 37 -68.5 58t-112.5 21q-199 0 -250 -223l553 10l-229 -999h-236l183 795h-316l-182 -795h-242z" />
<glyph unicode="&#xfb02;" horiz-adv-x="1139" d="M61 0l183 795h-156l47 204h156l24 103q23 100 90.5 175.5t167.5 116t218 40.5q201 0 350 -166l-219 -971q-9 -39 -9 -60q0 -26 11 -32.5t24.5 -6t18.5 0.5q23 0 55 8l-35 -209q-92 -18 -162 -18q-72 0 -120 36.5t-48 118.5q0 32 9 74l229 967q-33 24 -67.5 33.5 t-75.5 9.5q-48 0 -91 -19t-72 -52t-38 -73l-19 -76h162l-47 -204h-162l-182 -795h-242z" />
<glyph horiz-adv-x="0" />
<glyph horiz-adv-x="682" />
<glyph unicode=" "  horiz-adv-x="553" />
<glyph unicode="&#x09;" horiz-adv-x="553" />
<glyph unicode="&#xa0;" horiz-adv-x="553" />
<glyph unicode="!" horiz-adv-x="635" d="M70 0l59 264h266l-59 -264h-266zM209 428l203 1006h241l-260 -1006h-184z" />
<glyph unicode="&#x22;" horiz-adv-x="958" d="M287 866l127 547h204l-126 -547h-205zM635 866l127 547h205l-127 -547h-205z" />
<glyph unicode="#" horiz-adv-x="1382" d="M57 414l41 172h269l114 262h-241l43 180h276l189 406h194l-197 -437h246l195 437h194l-190 -414h233l-41 -172h-268l-115 -262h242l-43 -180h-276l-187 -406h-192l192 436h-248l-190 -436h-193l187 414h-234zM559 586h248l115 262h-248z" />
<glyph unicode="$" horiz-adv-x="1114" d="M19 363q0 21 1 32l250 33q-2 -22 -2 -31q0 -95 62.5 -140.5t171.5 -45.5q118 0 195.5 54t103.5 161q4 20 4 30q0 42 -28.5 74t-72 55.5t-118.5 56.5q-104 47 -169 85.5t-111.5 102.5t-46.5 156q0 46 11 91q21 92 79.5 164.5t142 120.5t180.5 68l59 229h201l-60 -229 q105 -18 179.5 -78.5t107.5 -161.5l-223 -100q-39 124 -188 124q-53 0 -103 -22t-85 -61.5t-46 -88.5q-3 -13 -3 -26q0 -38 27 -67t67.5 -51t113.5 -54q107 -47 173 -86.5t114 -106t48 -163.5q0 -52 -12 -101q-25 -111 -97 -198t-175 -140.5t-219 -66.5l-59 -228h-201 l61 236q-95 18 -170.5 67t-119 127t-43.5 179z" />
<glyph unicode="%" horiz-adv-x="1540" d="M139 -20l1131 1474h217l-1131 -1474h-217zM207 1020q0 49 12 104q17 70 58 141t111.5 121t168.5 50q113 0 169 -73t56 -182q0 -53 -12 -104q-18 -75 -62.5 -146t-114.5 -117t-157 -46q-122 0 -175.5 72.5t-53.5 179.5zM379 1026q0 -40 16 -63t49 -23t65 25t56 67.5 t35 91.5q7 33 7 53q0 39 -16.5 62t-47.5 23q-52 0 -95.5 -52t-62.5 -131q-6 -28 -6 -53zM856 244q0 51 12 106q17 71 58.5 143.5t112.5 123.5t169 51q114 0 169 -72.5t55 -182.5q0 -49 -13 -108q-18 -76 -63 -148.5t-115 -119.5t-158 -47q-121 0 -174 73t-53 181zM1027 249 q0 -40 17 -63.5t52 -23.5q32 0 63 26t55 69.5t35 94.5q7 28 7 55q0 39 -16 63t-46 24q-53 0 -97 -54t-63 -135q-7 -28 -7 -56z" />
<glyph unicode="&#x26;" horiz-adv-x="1378" d="M33 269q0 42 10 83q23 98 85 175t145.5 134.5t195.5 116.5q-41 55 -69.5 118t-28.5 141q0 42 10 83q22 93 92.5 163.5t166 108.5t189.5 38q92 0 164 -36t112 -100t40 -144q0 -40 -8 -73q-26 -113 -111.5 -198.5t-221.5 -164.5l141 -212q61 99 85 205l227 -45 q-51 -190 -183 -353l153 -231l-203 -154l-135 210q-104 -75 -220.5 -116t-236.5 -41q-117 0 -207 34.5t-141 100.5t-51 157zM265 280q0 -48 48.5 -72t135.5 -24t170.5 32.5t156.5 90.5l-187 290q-141 -75 -221 -142t-100 -152q-3 -12 -3 -23zM602 1047q0 -68 62 -170 q112 60 177 115.5t81 125.5q3 15 3 29q0 41 -28 66.5t-82 25.5q-46 0 -90 -20t-76.5 -58t-44.5 -90q-2 -8 -2 -24z" />
<glyph unicode="'" horiz-adv-x="610" d="M295 895l125 547h205l-125 -547h-205z" />
<glyph unicode="(" horiz-adv-x="573" d="M108 329q0 201 46 400q63 275 173.5 482t250.5 331l225 -16q-179 -171 -294 -379.5t-175 -466.5q-45 -196 -45 -353q0 -127 29.5 -237t91.5 -223l-201 16q-50 68 -75.5 185t-25.5 261z" />
<glyph unicode=")" horiz-adv-x="573" d="M-131 -117q123 124 208.5 243.5t148.5 264.5t106 334q44 188 44 351q0 264 -118 466l207 -16q49 -75 76 -182t27 -243q0 -190 -52 -417q-34 -149 -100 -308.5t-152 -295.5t-178 -213z" />
<glyph unicode="*" horiz-adv-x="901" d="M256 1126l98 168l193 -82l18 201h195l-76 -201l225 82l23 -168l-236 -30l123 -160l-176 -102l-63 208l-158 -208l-139 102l192 160z" />
<glyph unicode="+" horiz-adv-x="1253" d="M78 532v185h457v426h184v-426h457v-185h-457v-426h-184v426h-457z" />
<glyph unicode="," horiz-adv-x="633" d="M-14 -225l213 489h284l-333 -489h-164z" />
<glyph unicode="-" horiz-adv-x="866" d="M150 532l40 185h584l-41 -185h-583z" />
<glyph unicode="." horiz-adv-x="647" d="M86 0l59 264h246l-59 -264h-246z" />
<glyph unicode="/" horiz-adv-x="934" d="M-254 -430l1229 1946h233l-1231 -1946h-231z" />
<glyph unicode="0" d="M54 488q0 117 28 241q39 165 128.5 326t237 271t343.5 110q149 0 247.5 -69.5t145 -187t46.5 -263.5q0 -113 -28 -234q-42 -178 -140 -338.5t-243.5 -262t-322.5 -101.5q-160 0 -258.5 70.5t-141 184.5t-42.5 253zM300 505q0 -127 52.5 -206.5t165.5 -79.5 q104 0 192.5 76t150 193.5t89.5 242.5q21 95 21 178q0 126 -50.5 204.5t-160.5 78.5q-108 0 -197.5 -74t-150.5 -190t-90 -244q-22 -93 -22 -179z" />
<glyph unicode="1" d="M369 1030l43 193h166q71 0 125.5 44t70.5 117l6 29h240l-326 -1413h-250l238 1030h-313z" />
<glyph unicode="2" d="M-61 0l43 207l18 10q365 205 592 395q132 97 218 198t112 212q6 29 6 53q0 60 -36.5 94.5t-113.5 34.5q-89 0 -157 -46t-110.5 -117.5t-64.5 -151.5l-239 37q31 134 115 249.5t209 186t272 70.5q113 0 198.5 -42.5t132 -119t46.5 -175.5q0 -52 -13 -104 q-32 -141 -151 -282.5t-295 -290.5q-171 -120 -307 -195l649 6l-53 -229h-1071z" />
<glyph unicode="3" d="M33 341q0 59 14 116l240 -6q-7 -29 -7 -60q0 -86 60.5 -132t161.5 -46q81 0 155 28.5t126 82t69 127.5q6 26 6 46q0 69 -58.5 104.5t-160.5 35.5h-152l54 225h137q89 0 152.5 50.5t82.5 138.5q4 16 4 33q0 54 -45 84t-120 30q-64 0 -121.5 -26.5t-98 -74.5t-55.5 -110 l-231 37q29 129 110 221.5t192 140.5t232 48q107 0 194 -38t137.5 -110t50.5 -170q0 -42 -11 -92q-18 -74 -66 -145t-120 -123q65 -40 97 -104.5t32 -148.5q0 -47 -11 -104q-31 -137 -122 -231t-218 -141t-268 -47q-126 0 -226 41.5t-158 123t-58 196.5z" />
<glyph unicode="4" d="M-12 332l32 147l906 934h215l-197 -850h225l-53 -231h-225l-76 -332h-250l76 332h-653zM369 563h325l109 461z" />
<glyph unicode="5" d="M57 420l242 45q-2 -112 44.5 -184t160.5 -72q77 0 149.5 42.5t123.5 111t69 143.5q7 35 7 58q0 79 -51.5 129t-148.5 50q-73 0 -150.5 -39.5t-129.5 -101.5l-219 68l307 743h788l-53 -233h-586l-116 -258q59 28 112.5 38.5t110.5 10.5q113 0 202 -51.5t138 -141.5 t49 -201q0 -56 -14 -118q-30 -126 -123.5 -236.5t-224.5 -176.5t-267 -66q-126 0 -222.5 59.5t-148 160.5t-49.5 220z" />
<glyph unicode="6" d="M65 377q0 56 13 112q14 62 46 123.5t79 114.5l585 686h295l-421 -465h24q123 0 220.5 -49t152 -136.5t54.5 -200.5q0 -54 -13 -109q-30 -125 -120.5 -233.5t-220.5 -174t-272 -65.5q-123 0 -219 51.5t-149.5 142t-53.5 203.5zM311 402q0 -52 26 -94.5t73.5 -66.5 t107.5 -24q75 0 147.5 37.5t125 101.5t69.5 140q6 26 6 50q0 52 -26 93.5t-72.5 65.5t-105.5 24q-76 0 -149 -37.5t-126 -101.5t-70 -139q-6 -25 -6 -49z" />
<glyph unicode="7" d="M82 0l872 1182h-710l53 231h1020l-29 -129l-921 -1284h-285z" />
<glyph unicode="8" d="M42 327q0 52 13 105q25 106 98.5 195t186.5 149q-37 37 -56.5 88.5t-19.5 113.5q0 47 10 93q27 113 107 195t190 125t226 43q106 0 192 -37.5t136.5 -108.5t50.5 -169q0 -48 -11 -93q-17 -76 -68 -148t-128 -126q65 -41 99.5 -107.5t34.5 -150.5q0 -52 -13 -107 q-31 -134 -122.5 -226t-218 -136.5t-264.5 -44.5q-123 0 -223.5 39t-160 117.5t-59.5 190.5zM292 359q0 -74 61.5 -113t158.5 -39q79 0 150.5 28.5t122 83t67.5 130.5q6 24 6 46q0 71 -60 109.5t-159 38.5q-84 0 -155.5 -28t-120.5 -82.5t-66 -129.5q-5 -20 -5 -44zM507 979 q0 -57 42.5 -89t118.5 -32q62 0 117 24t93.5 68t51.5 101q4 16 4 35q0 55 -44 85.5t-118 30.5q-59 0 -113.5 -23t-94 -65t-52.5 -96q-5 -23 -5 -39z" />
<glyph unicode="9" d="M171 851q0 55 13 110q29 124 119.5 233t221 174.5t272.5 65.5q123 0 219 -51.5t149.5 -142.5t53.5 -204q0 -56 -13 -112q-33 -134 -125 -238l-585 -686h-297l422 465h-25q-123 0 -220 48.5t-151 136.5t-54 201zM416 868q0 -52 26 -94t73 -66t106 -24q76 0 149.5 37.5 t126.5 101.5t70 140q6 26 6 49q0 52 -26 94t-73.5 66t-107.5 24q-75 0 -148 -37.5t-126 -101.5t-70 -139q-6 -25 -6 -50z" />
<glyph unicode=":" horiz-adv-x="676" d="M90 0l60 264h266l-60 -264h-266zM248 690l61 264h266l-61 -264h-266z" />
<glyph unicode=";" horiz-adv-x="659" d="M0 -225l213 489h285l-334 -489h-164zM272 690l62 264h266l-61 -264h-267z" />
<glyph unicode="&#x3c;" horiz-adv-x="1237" d="M45 674l985 522l103 -178l-693 -344l693 -344l-103 -178z" />
<glyph unicode="=" horiz-adv-x="1268" d="M219 385v207h830v-207h-830zM219 752v206h830v-206h-830z" />
<glyph unicode="&#x3e;" horiz-adv-x="1237" d="M104 330l693 344l-693 344l103 178l985 -522l-985 -522z" />
<glyph unicode="?" horiz-adv-x="997" d="M162 1001q31 138 105 235.5t181 147.5t236 50q109 0 195.5 -37t136 -109t49.5 -173q0 -47 -12 -103q-23 -101 -72 -167t-103.5 -101.5t-132.5 -72.5q-65 -31 -97.5 -54.5t-41.5 -59.5l-31 -133h-206l37 156q19 82 56.5 135t80.5 82t111 63q58 29 92.5 51.5t62.5 59 t41 90.5q6 26 6 48q0 62 -48.5 92t-135.5 30q-123 0 -198.5 -65.5t-102.5 -184.5zM246 0l59 264h266l-59 -264h-266z" />
<glyph unicode="@" horiz-adv-x="2009" d="M79 320q0 104 27 223q57 247 217.5 450t393 321t497.5 118q232 0 397.5 -90.5t250.5 -247.5t85 -353q0 -104 -26 -219q-37 -155 -119 -292t-204 -221.5t-269 -84.5q-114 0 -174.5 52.5t-60.5 141.5q0 25 4 46q-144 -121 -314 -121q-133 0 -200.5 80.5t-67.5 211.5 q0 60 16 132q31 134 120.5 272.5t218.5 230t272 91.5q93 0 152.5 -41t82.5 -105l43 97l197 -11q-32 -76 -117 -255q-88 -187 -142 -313.5t-75 -219.5q-7 -35 -7 -48q0 -24 14.5 -33t51.5 -9q100 0 181.5 65.5t136.5 168t80 214.5q19 80 19 161q0 145 -64 261.5t-191 184 t-307 67.5q-218 0 -409 -99t-322.5 -268.5t-179.5 -375.5q-20 -84 -20 -165q0 -153 73 -263.5t201.5 -168t292.5 -57.5q68 0 128.5 11t127.5 32l38 -190q-146 -49 -315 -49q-214 0 -380.5 81t-260 232t-93.5 355zM697 347q0 -54 29.5 -81.5t92.5 -27.5q104 0 197.5 69.5 t159 175.5t90.5 211q8 40 8 67q0 52 -29 78.5t-92 26.5q-105 0 -198.5 -68.5t-159 -173.5t-90.5 -210q-8 -40 -8 -67z" />
<glyph unicode="A" horiz-adv-x="1343" d="M-104 0l890 1413h191l237 -1413h-270l-39 307h-549l-180 -307h-280zM494 524h376l-67 516z" />
<glyph unicode="B" horiz-adv-x="1274" d="M68 0l325 1413h484q100 0 186 -31t139.5 -98.5t53.5 -170.5q0 -50 -13 -103q-21 -84 -82 -155.5t-137 -109.5q69 -28 111 -103.5t42 -168.5q0 -45 -10 -86q-27 -120 -109.5 -208t-196.5 -133.5t-236 -45.5h-557zM377 242h295q100 0 169 55.5t95 163.5q4 22 4 32 q0 58 -47 95t-131 37h-297zM516 844h254q85 0 153.5 46t92.5 150q4 15 4 32q0 56 -48.5 84t-131.5 28h-246z" />
<glyph unicode="C" horiz-adv-x="1432" d="M109 512q0 102 26 217q45 194 155.5 354.5t283.5 256.5t393 96q143 0 256.5 -49t185.5 -143t92 -224l-252 -74q-7 135 -91 201.5t-222 66.5q-147 0 -261.5 -70.5t-188.5 -188t-107 -261.5q-20 -88 -20 -162q0 -145 80 -228t249 -83q144 0 256.5 66t200.5 207l213 -117 q-127 -195 -308 -296t-391 -101q-185 0 -308.5 68.5t-182.5 188.5t-59 275z" />
<glyph unicode="D" horiz-adv-x="1409" d="M68 0l325 1413h404q295 0 447.5 -130.5t152.5 -376.5q0 -104 -29 -232q-50 -214 -169 -365t-300.5 -230t-417.5 -79h-413zM375 233h123q246 0 407 117t221 379q23 101 23 174q0 98 -41.5 159t-128.5 89.5t-227 28.5h-158z" />
<glyph unicode="E" horiz-adv-x="1245" d="M68 0l325 1413h940l-53 -233h-686l-84 -357h639l-53 -233h-639l-80 -350h686l-55 -240h-940z" />
<glyph unicode="F" horiz-adv-x="1235" d="M68 0l325 1413h1002l-54 -233h-747l-84 -357h659l-53 -233h-659l-135 -590h-254z" />
<glyph unicode="G" horiz-adv-x="1534" d="M109 512q0 102 26 217q45 195 155 355t283 256t394 96q213 0 352 -109t180 -307l-239 -74q-15 139 -99 203.5t-221 64.5q-146 0 -262 -70.5t-191 -188.5t-108 -261q-21 -94 -21 -165q0 -148 80.5 -235t247.5 -87q104 0 202 45.5t174.5 128t115.5 188.5l-324 -10l47 205 h567l-176 -764h-200l24 188q-79 -99 -199 -153.5t-258 -54.5q-185 0 -308.5 68.5t-182.5 188.5t-59 275z" />
<glyph unicode="H" horiz-adv-x="1491" d="M68 0l325 1413h254l-137 -590h618l138 590h254l-326 -1413h-254l135 590h-618l-135 -590h-254z" />
<glyph unicode="I" horiz-adv-x="618" d="M68 0l325 1413h254l-325 -1413h-254z" />
<glyph unicode="J" horiz-adv-x="1139" d="M13 365q0 35 7 86l250 8q-6 -36 -6 -69q0 -82 40 -128.5t126 -46.5q92 0 152 35.5t95 101t58 164.5l154 664h-533l54 233h786l-211 -913q-56 -242 -199 -381t-385 -139q-126 0 -213.5 50.5t-131 138t-43.5 196.5z" />
<glyph unicode="K" horiz-adv-x="1491" d="M68 0l325 1413h254l-172 -737l858 737h344l-700 -579l379 -834h-309l-281 664l-358 -297l-86 -367h-254z" />
<glyph unicode="L" horiz-adv-x="1063" d="M68 0l325 1413h254l-270 -1173h604l-55 -240h-858z" />
<glyph unicode="M" horiz-adv-x="1798" d="M68 0l325 1413h340l141 -1005l609 1005h344l-326 -1413h-244l246 1057l-567 -934h-246l-133 934l-246 -1057h-243z" />
<glyph unicode="N" horiz-adv-x="1454" d="M68 0l325 1413h250l365 -989l231 989h244l-326 -1413h-252l-362 991l-232 -991h-243z" />
<glyph unicode="O" horiz-adv-x="1528" d="M108 510q0 100 27 219q45 194 155 354t283 255.5t394 95.5q185 0 308 -69t181.5 -188.5t58.5 -274.5q0 -103 -26 -218q-45 -194 -155 -353.5t-283 -255t-394 -95.5q-185 0 -308 68.5t-182 188t-59 273.5zM372 514q0 -142 74.5 -225.5t235.5 -83.5q149 0 261 70.5 t183 188.5t105 265q21 89 21 169q0 143 -75 226.5t-237 83.5q-148 0 -259.5 -70.5t-182.5 -188.5t-105 -265q-21 -88 -21 -170z" />
<glyph unicode="P" horiz-adv-x="1167" d="M68 0l325 1413h436q125 0 219 -39t146 -114t52 -179q0 -53 -13 -108q-28 -123 -110 -210.5t-204 -132t-268 -44.5h-196l-136 -586h-251zM508 823h184q129 0 203.5 50t95.5 145q6 23 6 42q0 57 -51.5 86.5t-159.5 29.5h-196z" />
<glyph unicode="Q" horiz-adv-x="1573" d="M108 510q0 100 27 219q45 194 155 354t283 255.5t394 95.5q185 0 308 -69t181.5 -189.5t58.5 -275.5q0 -103 -26 -218q-30 -129 -93.5 -250t-152.5 -213l160 -184l-197 -154l-155 197q-171 -98 -394 -98q-185 0 -308 68.5t-182 188t-59 273.5zM359 529 q0 -143 79.5 -226.5t247.5 -83.5q108 0 219 45l-149 172l194 150l152 -164q52 67 87 141.5t56 165.5q19 79 19 154q0 143 -79.5 227t-246.5 84q-150 0 -264.5 -67.5t-188 -182.5t-106.5 -260q-20 -83 -20 -155z" />
<glyph unicode="R" horiz-adv-x="1268" d="M66 -2l327 1415h451q116 0 208.5 -40t145.5 -116t53 -180q0 -48 -12 -102q-29 -122 -125 -215t-229 -135l241 -627h-274l-209 606h-182l-142 -606h-253zM510 811h217q103 5 176 60.5t92 144.5q5 23 5 40q0 61 -50 95.5t-143 34.5h-211z" />
<glyph unicode="S" horiz-adv-x="1137" d="M25 410l260 43q0 -115 73 -174.5t193 -59.5q115 0 184.5 54t69.5 149q0 65 -32.5 111t-80.5 77.5t-133 74.5q-98 49 -157.5 89.5t-101.5 106.5t-42 163q0 115 61 204t167 137.5t237 48.5q103 0 193.5 -30.5t155 -88.5t91.5 -139l-219 -105q-19 67 -82 107.5t-141 40.5 q-53 0 -100 -19.5t-75 -56.5t-28 -86t29 -87t71.5 -66t120.5 -70q104 -56 169 -102t111 -120.5t46 -179.5q0 -132 -73 -234t-197 -158t-273 -56q-138 0 -251 49.5t-179.5 145.5t-66.5 231z" />
<glyph unicode="T" horiz-adv-x="1180" d="M178 1186l53 227h1139l-53 -227h-443l-272 -1186h-254l273 1186h-443z" />
<glyph unicode="U" horiz-adv-x="1380" d="M140 370q0 89 24 191l196 852h254l-194 -844q-23 -97 -23 -164q0 -92 50.5 -136t166.5 -44q114 0 189.5 42.5t121 122.5t72.5 200l191 823h254l-199 -862q-64 -276 -226 -423.5t-433 -147.5q-225 0 -334.5 102.5t-109.5 287.5z" />
<glyph unicode="V" horiz-adv-x="1343" d="M225 1413h277l147 -1001l613 1001h282l-889 -1413h-190z" />
<glyph unicode="W" horiz-adv-x="2003" d="M238 1413h260l59 -1040l537 958h196l90 -958l543 1040h268l-749 -1413h-246l-92 930l-522 -930h-246z" />
<glyph unicode="X" horiz-adv-x="1343" d="M-94 0l639 707l-305 706h299l213 -545l471 545h307l-637 -706l307 -707h-297l-219 537l-469 -537h-309z" />
<glyph unicode="Y" horiz-adv-x="1395" d="M209 1413h295l254 -635l551 635h303l-772 -862l-129 -551h-254l129 551z" />
<glyph unicode="Z" horiz-adv-x="1272" d="M-55 0l37 176l1019 1004h-739l53 233h1094l-41 -184l-1014 -1000h783l-54 -229h-1138z" />
<glyph unicode="[" horiz-adv-x="641" d="M23 -164l401 1737h432l-37 -162h-235l-326 -1411h236l-39 -164h-432z" />
<glyph unicode="\" horiz-adv-x="934" d="M201 1516h221l332 -1946h-224z" />
<glyph unicode="]" horiz-adv-x="641" d="M-121 -164l39 164h236l325 1411h-235l37 162h432l-402 -1737h-432z" />
<glyph unicode="^" horiz-adv-x="981" d="M131 805l584 692l270 -692h-235l-115 301l-256 -301h-248z" />
<glyph unicode="_" horiz-adv-x="1247" d="M41 -184l43 184h850l-43 -184h-850z" />
<glyph unicode="`" horiz-adv-x="532" d="M225 1413h236l153 -309h-153z" />
<glyph unicode="a" horiz-adv-x="1171" d="M48 357q0 77 20 165q31 135 106 248.5t184.5 181.5t239.5 68q86 0 157 -33t107 -96l29 108h248l-230 -999h-227l13 100q-63 -64 -141.5 -92t-164.5 -28q-112 0 -188.5 48.5t-114.5 133.5t-38 195zM295 381q0 -82 44 -129t134 -47q127 0 211.5 87t116.5 230q13 57 13 100 q0 83 -43.5 130t-133.5 47q-84 0 -152 -42.5t-113 -115.5t-65 -164q-12 -51 -12 -96z" />
<glyph unicode="b" horiz-adv-x="1176" d="M33 0l325 1411h252l-121 -504q120 113 297 113q112 0 188.5 -48.5t114.5 -134t38 -195.5q0 -82 -19 -165q-31 -135 -106 -248.5t-184.5 -181t-239.5 -67.5q-86 0 -157.5 33t-107.5 96l-28 -109h-252zM361 383q0 -83 44.5 -130.5t135.5 -47.5q127 0 212.5 88.5 t116.5 228.5q13 55 13 98q0 83 -44 131t-134 48q-85 0 -152.5 -42t-113 -115t-66.5 -165q-12 -51 -12 -94z" />
<glyph unicode="c" horiz-adv-x="1004" d="M44 372q0 71 17 148q31 131 110 244t200.5 182.5t273.5 69.5q100 0 178 -37.5t127.5 -105.5t67.5 -158l-244 -70q-3 70 -44 105.5t-112 35.5q-84 0 -149.5 -42.5t-108 -113t-61.5 -155.5q-12 -49 -12 -94q0 -78 41.5 -125t130.5 -47q77 0 144 45t104 117l202 -105 q-80 -138 -204.5 -212t-270.5 -74q-131 0 -218.5 51.5t-129.5 140t-42 200.5z" />
<glyph unicode="d" horiz-adv-x="1171" d="M48 357q0 77 20 165q31 135 106 248.5t184.5 181.5t239.5 68q86 0 157 -33t107 -96l125 522h248l-326 -1413h-227l13 100q-63 -64 -141.5 -92t-164.5 -28q-112 0 -188.5 48.5t-114.5 133.5t-38 195zM295 381q0 -82 44 -129t134 -47q127 0 211.5 87t116.5 230 q13 57 13 100q0 83 -43.5 130t-133.5 47q-84 0 -152 -42.5t-113 -115.5t-65 -164q-12 -51 -12 -96z" />
<glyph unicode="e" horiz-adv-x="1067" d="M42 374q0 68 17 142q30 130 108.5 243.5t200.5 183t273 69.5q202 0 293 -99t91 -259q0 -85 -24 -181q-10 -39 -20 -63h-690q-2 -22 -2 -31q0 -80 46 -122t140 -42q87 0 151 23t128 77l141 -163q-104 -89 -211.5 -126.5t-232.5 -37.5q-136 0 -228 50.5t-136.5 137.5 t-44.5 198zM334 586h459q3 29 3 52q0 88 -41.5 128.5t-133.5 40.5q-101 0 -174 -61.5t-113 -159.5z" />
<glyph unicode="f" horiz-adv-x="688" d="M88 0l182 795h-182l47 202h184l35 146q34 143 128.5 217t246.5 74q84 0 176 -45l-121 -187q-35 23 -75 23t-69.5 -28t-41.5 -79l-29 -119h234l-47 -204h-234l-182 -795h-252z" />
<glyph unicode="g" horiz-adv-x="1167" d="M-55 -215l207 117q18 -56 74.5 -91.5t148.5 -35.5q110 0 185 60t102 175l26 103q-116 -113 -297 -113q-112 0 -188.5 48.5t-114.5 132.5t-38 191q0 75 20 160q29 130 103 241.5t183.5 179t239.5 67.5q86 0 157 -33t107 -96l29 108h246l-234 -1009q-30 -136 -105.5 -232 t-189.5 -146t-258 -50q-160 0 -256 60t-147 163zM296 399q0 -80 44.5 -127t136.5 -47q125 0 209 85.5t117 221.5q11 49 11 89q0 82 -44 130t-135 48q-84 0 -151.5 -42t-112.5 -113t-64 -157q-11 -49 -11 -88z" />
<glyph unicode="h" horiz-adv-x="1165" d="M31 0l325 1413h248l-125 -522q71 68 150.5 96.5t158.5 28.5q152 0 225 -84t73 -216q0 -63 -15 -126l-135 -590h-248l133 580q14 58 14 101q0 52 -26 79.5t-86 27.5q-68 0 -137.5 -36.5t-120 -94.5t-64.5 -120l-122 -537h-248z" />
<glyph unicode="i" horiz-adv-x="532" d="M31 0l229 999h242l-230 -999h-241zM299 1188l51 225h256l-51 -225h-256z" />
<glyph unicode="j" horiz-adv-x="543" d="M-272 -401l96 202q42 -18 78 -18q39 0 67 28t39 76l256 1112h246l-256 -1114q-34 -145 -124 -234t-228 -89q-48 0 -93.5 11t-80.5 26zM303 1167l57 246h256l-57 -246h-256z" />
<glyph unicode="k" horiz-adv-x="1118" d="M33 0l325 1413h244l-194 -829l473 415h321l-465 -387l271 -612h-283l-184 463l-195 -170l-70 -293h-243z" />
<glyph unicode="l" horiz-adv-x="573" d="M62 130q0 36 10 79l278 1204h244l-268 -1157q-3 -12 -3 -21q0 -21 15.5 -28.5t48.5 -7.5q12 0 70 8l-35 -209q-42 -8 -92 -13t-82 -5q-87 0 -136.5 34.5t-49.5 115.5z" />
<glyph unicode="m" horiz-adv-x="1743" d="M31 0l229 999h246l-25 -96q60 62 128 88.5t136 26.5q97 0 160.5 -41t95.5 -113q77 79 171 115.5t190 36.5q103 0 170 -40.5t98.5 -109t31.5 -154.5q0 -60 -15 -122l-136 -590h-247l133 580q13 59 13 98q0 55 -26.5 84t-87.5 29q-66 0 -124.5 -34.5t-99 -92.5t-56.5 -125 l-123 -539h-248l135 584q13 59 13 98q0 53 -26 81t-87 28q-66 0 -125 -34.5t-99.5 -92.5t-56.5 -125l-123 -539h-245z" />
<glyph unicode="n" horiz-adv-x="1167" d="M31 0l229 999h248l-29 -108q71 68 150.5 96.5t158.5 28.5q152 0 225 -84t73 -216q0 -63 -15 -126l-135 -590h-248l133 580q14 58 14 101q0 52 -26 79.5t-86 27.5q-68 0 -137.5 -36.5t-120 -94.5t-64.5 -120l-122 -537h-248z" />
<glyph unicode="o" horiz-adv-x="1128" d="M39 385q0 59 16 133q32 135 120.5 248t217 179.5t275.5 66.5q130 0 224.5 -52t143.5 -144t49 -208q0 -67 -16 -135q-32 -135 -120 -248t-216.5 -179t-275.5 -66q-130 0 -224.5 52t-144 144t-49.5 209zM287 377q0 -86 46.5 -136.5t145.5 -50.5q92 0 162.5 44t116.5 118 t67 166q12 50 12 96q0 86 -46.5 136.5t-145.5 50.5q-91 0 -162 -44t-117 -118t-67 -166q-12 -49 -12 -96z" />
<glyph unicode="p" horiz-adv-x="1171" d="M-70 -438l332 1437h242l-19 -92q118 113 297 113q112 0 188.5 -49t114.5 -134.5t38 -195.5q0 -81 -19 -164q-32 -135 -106.5 -248.5t-184 -181t-240.5 -67.5q-86 0 -157 33.5t-107 95.5l-131 -547h-248zM357 381q0 -82 44 -129t134 -47q127 0 212 87.5t117 229.5 q13 57 13 99q0 83 -44 131.5t-135 48.5q-84 0 -151 -42.5t-112 -115.5t-66 -166q-12 -51 -12 -96z" />
<glyph unicode="q" horiz-adv-x="1169" d="M48 357q0 77 20 165q31 135 106 248.5t184.5 181.5t239.5 68q86 0 157 -33t107 -96l35 108h240l-332 -1437h-246l127 530q-117 -112 -297 -112q-112 0 -188.5 48.5t-114.5 133.5t-38 195zM295 381q0 -82 44 -129t134 -47q127 0 211.5 87t116.5 230q13 57 13 100 q0 83 -43.5 130t-133.5 47q-84 0 -152 -42.5t-113 -115.5t-65 -164q-12 -51 -12 -96z" />
<glyph unicode="r" horiz-adv-x="815" d="M31 0l229 999h232l-31 -157q53 92 125.5 132t142.5 40q56 0 111.5 -19t91.5 -53l-146 -186q-55 32 -118 32q-65 0 -123 -38t-103.5 -113t-70.5 -184l-105 -453h-235z" />
<glyph unicode="s" horiz-adv-x="907" d="M-18 270l204 66q10 -63 56 -108.5t133 -45.5q57 0 99 20.5t64.5 53t22.5 66.5q0 32 -21 53.5t-52.5 34.5t-87.5 30q-80 24 -131 48t-87.5 73t-36.5 129q0 97 53 170.5t144.5 113.5t202.5 40q134 0 235 -58t135 -163l-202 -82q-16 54 -61 85t-115 31q-68 0 -110 -29 t-42 -73q0 -31 20 -51.5t50.5 -34t86.5 -32.5q82 -27 134 -54t89.5 -78.5t37.5 -134.5q0 -102 -57.5 -184t-156 -129t-216.5 -47q-112 0 -198 40.5t-136 107t-57 142.5z" />
<glyph unicode="t" horiz-adv-x="760" d="M94 795l47 204h166l55 248l271 174l-96 -422h260l-47 -204h-261l-112 -486q-6 -25 -6 -44q0 -40 23.5 -55t64.5 -15q39 0 81 12.5t74 28.5l-41 -230q-29 -11 -80 -18.5t-98 -7.5q-126 0 -196 60t-70 165q0 41 10 82l117 508h-162z" />
<glyph unicode="u" horiz-adv-x="1167" d="M81 290q0 66 15 132l133 577h248l-135 -585q-13 -57 -13 -94q0 -55 30.5 -83t103.5 -28q106 0 191 69.5t124 239.5l111 481h248l-230 -999h-241l22 109q-67 -68 -148 -100t-163 -32q-151 0 -223.5 88t-72.5 225z" />
<glyph unicode="v" horiz-adv-x="999" d="M109 999h262l82 -684l403 684h268l-637 -999h-200z" />
<glyph unicode="w" horiz-adv-x="1466" d="M127 999h258l23 -626l333 626h211l41 -624l320 624h262l-539 -999h-221l-43 655l-350 -659h-219z" />
<glyph unicode="x" horiz-adv-x="1030" d="M-109 0l461 504l-223 495h291l129 -329l285 329h305l-463 -495l225 -504h-293l-127 336l-286 -336h-304z" />
<glyph unicode="y" horiz-adv-x="1032" d="M-16 -430l292 457l-165 972h264l90 -694l418 694h272l-901 -1429h-270z" />
<glyph unicode="z" horiz-adv-x="1004" d="M-61 0l34 162l708 633h-531l47 204h852l-37 -174l-684 -620h538l-47 -205h-880z" />
<glyph unicode="{" horiz-adv-x="618" d="M82 598l24 160q77 24 117.5 56t55.5 91l98 426q28 126 97.5 187t197.5 61h51q30 0 84 -4l-25 -162q-21 5 -50 8.5t-42 3.5q-85 0 -96 -45l-117 -510q-18 -77 -64.5 -125t-125.5 -88q46 -22 74.5 -61t28.5 -85q0 -15 -3 -30l-84 -360q-7 -28 -7 -55q0 -32 16 -48t53 -16 q29 0 81 12l-24 -166q-13 0 -43 -2t-45 -2h-72q-64 0 -102 34t-56 89q-17 21 -17 70q0 45 13 100l84 361q2 6 2 17q0 27 -21 42t-62 32z" />
<glyph unicode="|" horiz-adv-x="623" d="M-12 -512l473 2046h180l-473 -2046h-180z" />
<glyph unicode="}" horiz-adv-x="618" d="M-90 -152l24 162q33 -8 66 -8q59 0 95.5 39.5t49.5 99.5l82 361q28 107 183 176q-100 58 -100 158q0 27 7 55l119 510q1 4 1 10q0 10 -9 12t-45 2q-16 0 -51.5 -5t-61.5 -11l25 166q54 4 84 4h51q102 0 152 -46.5t50 -131.5q0 -45 -11 -90l-99 -426q-5 -25 -5 -38 q0 -37 22.5 -56.5t76.5 -40.5l-24 -160q-49 -18 -78 -30.5t-54.5 -33t-31.5 -49.5l-82 -360q-14 -62 -31 -106t-43 -81q-42 -41 -91.5 -63.5t-114.5 -22.5h-72q-14 0 -44 2q-26 2 -40 2z" />
<glyph unicode="~" horiz-adv-x="1157" d="M172 406q0 123 59.5 184t167.5 61q89 0 144.5 -18t113.5 -49q30 -16 47.5 -23.5t36.5 -7.5q30 0 43.5 9t18 27.5t4.5 55.5h178q0 -266 -250 -266q-76 0 -128.5 18t-108.5 49q-36 19 -56 27t-41 8q-27 0 -39.5 -7.5t-16 -22.5t-3.5 -45h-170z" />
<glyph unicode="&#xa1;" horiz-adv-x="635" d="M-18 -434l260 1005h184l-203 -1005h-241zM240 735l59 264h266l-59 -264h-266z" />
<glyph unicode="&#xa2;" horiz-adv-x="1116" d="M100 359q0 81 19 161q28 119 92.5 224t165 178t229.5 96l49 182h181l-50 -186q120 -21 187 -96.5t96 -204.5l-227 -64q-4 94 -43 134t-125 40q-87 0 -156 -48t-114.5 -127t-67.5 -173q-14 -61 -14 -112q0 -87 42 -139t134 -52q94 0 159.5 50t114.5 145l184 -101 q-78 -129 -173 -198t-224 -91l-47 -182h-182l51 187q-141 27 -211 128t-70 249z" />
<glyph unicode="&#xa3;" horiz-adv-x="1200" d="M23 0l45 197q162 74 242.5 171.5t80.5 241.5h-225l47 195h178q-9 53 -9 104q0 145 64.5 268.5t180.5 196t264 72.5q101 0 179.5 -44.5t126 -118t58.5 -159.5l-198 -49q-12 79 -63.5 122.5t-123.5 43.5q-88 0 -154 -48t-101 -127t-35 -168q0 -49 10 -93h483l-47 -195h-436 q0 -86 -22.5 -171t-67 -149.5t-107.5 -88.5l717 4l-47 -205h-1040z" />
<glyph unicode="&#xa4;" horiz-adv-x="1176" d="M33 264l137 113q-34 72 -34 162q0 94 38.5 189t112.5 173l-82 94l155 135l82 -102q64 38 132.5 57.5t134.5 19.5q73 0 138 -22t116 -65l135 110l104 -129l-135 -112q35 -78 35 -166q0 -94 -39 -189t-113 -174l84 -94l-157 -135l-84 102q-62 -37 -129.5 -56t-133.5 -19 q-74 0 -140.5 22.5t-117.5 65.5l-137 -115zM330 586q0 -50 18 -95t53 -79q74 -68 174 -68q61 0 124 26t118 74q50 46 78.5 108t28.5 126q0 51 -18.5 96.5t-55.5 79.5q-71 65 -170 65q-62 0 -125 -26t-119 -74q-50 -44 -78 -106.5t-28 -126.5z" />
<glyph unicode="&#xa5;" horiz-adv-x="1319" d="M186 195l41 184h299l29 117h-299l43 186h215l-305 731h246l256 -670l571 670h254l-641 -733h209l-41 -184h-299l-29 -117h299l-41 -184h-299l-45 -195h-209l45 195h-299z" />
<glyph unicode="&#xa6;" horiz-adv-x="643" d="M35 -307l168 727h200l-167 -727h-201zM274 731l172 744h201l-172 -744h-201z" />
<glyph unicode="&#xa7;" horiz-adv-x="1106" d="M74 287l243 49q-1 -88 40 -123t132 -35q92 0 157 35t79 100q2 7 2 19q0 31 -26 52t-65 33.5t-108 28.5q-96 22 -158.5 45t-106.5 69t-44 122q0 35 8 68q14 55 46.5 103t86.5 97q-47 47 -47 124q0 34 9 73q22 91 89.5 156t160.5 98t192 33q89 0 161 -28t119 -74t64 -99 l-213 -92q-6 51 -46.5 77.5t-111.5 26.5q-60 0 -108.5 -21t-78.5 -55t-38 -71q-2 -12 -2 -16q0 -28 24.5 -46.5t61.5 -29.5t103 -25q99 -21 164 -44t111.5 -71t46.5 -128q0 -33 -9 -72q-13 -51 -42 -100t-85 -99q44 -46 44 -125q0 -33 -9 -74q-24 -100 -96 -164t-169 -93 t-200 -29q-106 0 -194 33.5t-139 102.5t-48 169zM422 696q0 -31 27 -50.5t67.5 -31.5t112.5 -28q44 -9 59 -13q50 16 83.5 50t43.5 82q3 12 3 21q0 34 -27.5 55.5t-70 34t-120.5 29.5l-49 11q-51 -20 -84 -60.5t-43 -82.5q-2 -12 -2 -17z" />
<glyph unicode="&#xa8;" horiz-adv-x="842" d="M401 1188l51 225h205l-51 -225h-205zM755 1188l52 225h204l-51 -225h-205z" />
<glyph unicode="&#xa9;" horiz-adv-x="1778" d="M150 707q0 205 106 378.5t287 275t395 101.5q213 0 393.5 -101.5t286.5 -275t106 -378.5q0 -206 -105.5 -379.5t-286 -275t-394.5 -101.5t-395 101.5t-287 275t-106 379.5zM340 707q0 -151 81.5 -282t219 -208.5t297.5 -77.5q159 0 297 77.5t219.5 208.5t81.5 282 t-81.5 281.5t-219.5 208t-297 77.5q-160 0 -297.5 -77.5t-219 -208t-81.5 -281.5zM565 705q0 120 44 220t132 160t213 60q126 0 212 -61t143 -183l-174 -74q-34 70 -74.5 98.5t-106.5 28.5q-101 0 -151.5 -69t-50.5 -180q0 -112 49.5 -180t150.5 -68q71 0 109.5 29.5 t71.5 97.5l176 -74q-58 -124 -144 -185t-211 -61t-213 60t-132 160.5t-44 220.5z" />
<glyph unicode="&#xaa;" horiz-adv-x="807" d="M169 894q0 28 7 56q23 103 107.5 150t210.5 47l202 10q6 29 6 51q0 47 -27.5 68.5t-88.5 21.5q-108 0 -211 -116l-107 98q82 85 157 119.5t171 34.5q119 0 184 -60t65 -160q0 -36 -9 -75l-97 -416h-133l19 76q-56 -49 -114.5 -69.5t-129.5 -20.5q-60 0 -108 22.5 t-76 64.5t-28 98zM325 897q0 -21 27 -36t62 -15q53 0 105 26t91 67t56 85l-181 -10q-60 0 -104.5 -30t-54.5 -79q-1 -3 -1 -8z" />
<glyph unicode="&#xab;" horiz-adv-x="954" d="M18 510l508 356l-45 -211l-215 -145l146 -143l-45 -211zM381 510l508 356l-45 -211l-215 -145l145 -143l-45 -211z" />
<glyph unicode="&#xac;" horiz-adv-x="1300" d="M135 580v217h948v-506h-233v289h-715z" />
<glyph unicode="&#xad;" horiz-adv-x="1010" d="M143 508l43 184h727l-43 -184h-727z" />
<glyph unicode="&#xae;" horiz-adv-x="1778" d="M150 709q0 205 106 378.5t287 275t395 101.5q213 0 393.5 -101.5t286.5 -275t106 -378.5q0 -206 -105.5 -379.5t-286 -275t-394.5 -101.5t-395 101.5t-287 275t-106 379.5zM330 709q0 -154 82.5 -286.5t222.5 -211t303 -78.5q162 0 301.5 78.5t222 211t82.5 286.5 t-82.5 286t-222 210.5t-301.5 78.5q-163 0 -303 -78.5t-222.5 -210.5t-82.5 -286zM670 289v825h321q137 0 211 -67t74 -187q0 -86 -39.5 -144t-101.5 -85l198 -342h-211l-172 315h-96v-315h-184zM844 778h147q63 0 87 19t24 63q0 31 -9.5 48t-33.5 24.5t-68 7.5h-147v-162z " />
<glyph unicode="&#xaf;" horiz-adv-x="838" d="M289 1147l33 143h559l-33 -143h-559z" />
<glyph unicode="&#xb0;" horiz-adv-x="805" d="M109 1141q0 79 39.5 146.5t107 107t145.5 39.5q80 0 147 -39.5t106.5 -106.5t39.5 -147t-39.5 -147t-106.5 -106.5t-147 -39.5q-78 0 -145.5 39.5t-107 107t-39.5 146.5zM272 1141q0 -35 17.5 -65t47 -47t64.5 -17q55 0 93 37.5t38 91.5q0 35 -17.5 64.5t-47.5 47 t-66 17.5q-35 0 -64.5 -17.5t-47 -47t-17.5 -64.5z" />
<glyph unicode="&#xb1;" horiz-adv-x="1331" d="M117 532v185h456v426h185v-426h456v-185h-456v-426h-185v426h-456zM119 0h1093v-184h-1093v184z" />
<glyph unicode="&#xb4;" horiz-adv-x="537" d="M227 1124l293 289h264l-373 -289h-184z" />
<glyph unicode="&#xb5;" horiz-adv-x="1294" d="M43 -266l291 1265h227l-135 -591q-15 -63 -15 -103q0 -56 28 -86.5t93 -30.5q72 0 144.5 37.5t124.5 99t67 128.5l125 546h228l-230 -999h-227l24 90q-60 -51 -138 -82t-158 -31q-84 0 -156 35l-88 -278h-205z" />
<glyph unicode="&#xb6;" horiz-adv-x="1262" d="M178 945q0 44 12 95q27 115 108 199.5t193.5 129t231.5 44.5h176l-383 -1659h-170l207 869q-103 0 -188.5 38.5t-136 111.5t-50.5 172zM696 -246l383 1659h172l-383 -1659h-172z" />
<glyph unicode="&#xb7;" horiz-adv-x="616" d="M229 783q0 21 4 40q13 53 60.5 89t103.5 36t92 -36.5t36 -92.5q0 -18 -5 -41q-12 -52 -60 -89.5t-106 -37.5q-57 0 -91 37.5t-34 94.5z" />
<glyph unicode="&#xb8;" horiz-adv-x="551" d="M-152 -383l142 37q5 -37 47 -37q41 0 73.5 28.5t43.5 71.5q2 10 2 14q0 33 -37 53.5t-101 20.5h-77l159 193h150l-109 -100q75 -10 114.5 -53t39.5 -109q0 -27 -6 -55q-13 -57 -52 -103.5t-95 -73t-117 -26.5q-66 0 -115 40t-62 99z" />
<glyph unicode="&#xba;" horiz-adv-x="844" d="M190 1000q0 51 11 96q22 92 83.5 169.5t150.5 123t190 45.5q89 0 155 -37.5t101 -103t35 -147.5q0 -50 -11 -95q-21 -93 -82.5 -171t-150.5 -123.5t-189 -45.5q-90 0 -156.5 37.5t-101.5 103t-35 148.5zM350 985q0 -129 142 -129q101 0 166 66.5t90 173.5q9 35 9 67 q0 59 -34.5 93t-106.5 34q-102 0 -167.5 -66t-90.5 -173q-8 -37 -8 -66z" />
<glyph unicode="&#xbb;" horiz-adv-x="956" d="M68 156l45 211l215 143l-144 145l43 211l348 -356zM430 156l45 211l215 143l-143 145l43 211l348 -356z" />
<glyph unicode="&#xbf;" horiz-adv-x="993" d="M-68 -117q0 52 13 105q23 101 72 166.5t103 101t132 72.5q65 31 97.5 54.5t41.5 59.5l31 133h207l-37 -155q-19 -82 -57 -135t-81 -82.5t-111 -63.5q-59 -30 -93 -51.5t-62 -58t-41 -90.5q-6 -26 -6 -46q0 -64 48 -94t135 -30q70 0 131 26t104 76t59 117l211 -21 q-30 -125 -107 -216t-184 -138t-225 -47q-109 0 -195 36.5t-136 108t-50 172.5zM426 735l59 264h267l-60 -264h-266z" />
<glyph unicode="&#xc0;" horiz-adv-x="1343" d="M-104 0l890 1413h191l237 -1413h-270l-39 307h-549l-180 -307h-280zM494 524h376l-67 516zM608 1825h236l153 -309h-153z" />
<glyph unicode="&#xc1;" horiz-adv-x="1343" d="M-104 0l890 1413h191l237 -1413h-270l-39 307h-549l-180 -307h-280zM494 524h376l-67 516zM791 1536l293 289h264l-373 -289h-184z" />
<glyph unicode="&#xc2;" horiz-adv-x="1343" d="M-104 0l890 1413h191l237 -1413h-270l-39 307h-549l-180 -307h-280zM494 524h376l-67 516zM586 1510l396 352l237 -352h-182l-94 145l-162 -145h-195z" />
<glyph unicode="&#xc3;" horiz-adv-x="1343" d="M-104 0l890 1413h191l237 -1413h-270l-39 307h-549l-180 -307h-280zM494 524h376l-67 516zM574 1524q30 142 98 214t164 72q42 0 70 -13.5t44 -32.5t33 -47q15 -25 26.5 -36.5t27.5 -11.5q32 0 62.5 38t45.5 97h162q-32 -143 -99 -215t-161 -72q-46 0 -76 14t-45.5 33 t-31.5 48q-14 26 -25 37.5t-29 11.5q-35 0 -66 -39t-46 -98h-154z" />
<glyph unicode="&#xc4;" horiz-adv-x="1343" d="M-104 0l890 1413h191l237 -1413h-270l-39 307h-549l-180 -307h-280zM494 524h376l-67 516zM647 1600l51 225h205l-51 -225h-205zM1001 1600l52 225h204l-51 -225h-205z" />
<glyph unicode="&#xc5;" horiz-adv-x="1343" d="M-104 0l843 1331q-30 23 -47 63.5t-17 86.5q0 30 7 57q15 59 55 106.5t95 74t112 26.5q55 0 100 -25t70.5 -69.5t25.5 -99.5q0 -30 -7 -58q-14 -55 -49.5 -100t-88.5 -74l219 -1319h-264l-39 307h-555l-180 -307h-280zM494 524h383l-69 525zM795 1489q0 -38 25 -62 t65 -24q37 0 68 20.5t49 52.5t18 66q0 40 -25 62t-67 22t-72 -21t-45.5 -52.5t-15.5 -63.5z" />
<glyph unicode="&#xc6;" horiz-adv-x="1858" d="M-104 0l884 1413h1188l-49 -213h-748l-90 -387h660l-49 -213h-660l-88 -381h748l-50 -219h-980l69 307h-395l-180 -307h-260zM461 504h315l162 696h-45z" />
<glyph unicode="&#xc7;" horiz-adv-x="1432" d="M109 512q0 102 26 217q45 194 155.5 354.5t283.5 256.5t393 96q143 0 256.5 -49t185.5 -143t92 -224l-252 -74q-7 135 -91 201.5t-222 66.5q-147 0 -261.5 -70.5t-188.5 -188t-107 -261.5q-20 -88 -20 -162q0 -145 80 -228t249 -83q144 0 256.5 66t200.5 207l213 -117 q-117 -179 -279.5 -279t-351.5 -115l-92 -85q75 -10 114.5 -53t39.5 -109q0 -27 -6 -55q-13 -57 -52 -103.5t-95 -73t-117 -26.5q-66 0 -115 40t-62 99l142 37q5 -37 47 -37q41 0 73.5 28.5t43.5 71.5q2 10 2 14q0 33 -37 53.5t-101 20.5h-77l147 178q-159 15 -265 86 t-157 185t-51 258z" />
<glyph unicode="&#xc8;" horiz-adv-x="1245" d="M68 0l325 1413h940l-53 -233h-686l-84 -357h639l-53 -233h-639l-80 -350h686l-55 -240h-940zM556 1825h236l153 -309h-153z" />
<glyph unicode="&#xc9;" horiz-adv-x="1245" d="M68 0l325 1413h940l-53 -233h-686l-84 -357h639l-53 -233h-639l-80 -350h686l-55 -240h-940zM739 1536l293 289h264l-373 -289h-184z" />
<glyph unicode="&#xca;" horiz-adv-x="1245" d="M68 0l325 1413h940l-53 -233h-686l-84 -357h639l-53 -233h-639l-80 -350h686l-55 -240h-940zM534 1510l396 352l237 -352h-182l-94 145l-162 -145h-195z" />
<glyph unicode="&#xcb;" horiz-adv-x="1245" d="M68 0l325 1413h940l-53 -233h-686l-84 -357h639l-53 -233h-639l-80 -350h686l-55 -240h-940zM595 1600l51 225h205l-51 -225h-205zM949 1600l52 225h204l-51 -225h-205z" />
<glyph unicode="&#xcc;" horiz-adv-x="618" d="M68 0l325 1413h254l-325 -1413h-254zM245 1825h236l153 -309h-153z" />
<glyph unicode="&#xcd;" horiz-adv-x="618" d="M68 0l325 1413h254l-325 -1413h-254zM428 1536l293 289h264l-373 -289h-184z" />
<glyph unicode="&#xce;" horiz-adv-x="618" d="M68 0l325 1413h254l-325 -1413h-254zM223 1510l396 352l237 -352h-182l-94 145l-162 -145h-195z" />
<glyph unicode="&#xcf;" horiz-adv-x="618" d="M68 0l325 1413h254l-325 -1413h-254zM284 1600l51 225h205l-51 -225h-205zM638 1600l52 225h204l-51 -225h-205z" />
<glyph unicode="&#xd0;" horiz-adv-x="1430" d="M90 0l143 621h-112l41 184h112l142 608h393q295 0 452 -133t157 -383q0 -103 -27 -223q-50 -214 -172 -365t-306.5 -230t-418.5 -79h-404zM373 219h133q162 0 296.5 54t229.5 168t135 288q20 89 20 158q0 156 -102 232.5t-317 76.5h-170l-90 -391h381l-41 -184h-381z" />
<glyph unicode="&#xd1;" horiz-adv-x="1454" d="M68 0l325 1413h250l365 -989l231 989h244l-326 -1413h-252l-362 991l-232 -991h-243zM629 1524q30 142 98 214t164 72q42 0 70 -13.5t44 -32.5t33 -47q15 -25 26.5 -36.5t27.5 -11.5q32 0 62.5 38t45.5 97h162q-32 -143 -99 -215t-161 -72q-46 0 -76 14t-45.5 33 t-31.5 48q-14 26 -25 37.5t-29 11.5q-35 0 -66 -39t-46 -98h-154z" />
<glyph unicode="&#xd2;" horiz-adv-x="1528" d="M108 510q0 100 27 219q45 194 155 354t283 255.5t394 95.5q185 0 308 -69t181.5 -188.5t58.5 -274.5q0 -103 -26 -218q-45 -194 -155 -353.5t-283 -255t-394 -95.5q-185 0 -308 68.5t-182 188t-59 273.5zM372 514q0 -142 74.5 -225.5t235.5 -83.5q149 0 261 70.5 t183 188.5t105 265q21 89 21 169q0 143 -75 226.5t-237 83.5q-148 0 -259.5 -70.5t-182.5 -188.5t-105 -265q-21 -88 -21 -170zM700 1825h236l153 -309h-153z" />
<glyph unicode="&#xd3;" horiz-adv-x="1528" d="M108 510q0 100 27 219q45 194 155 354t283 255.5t394 95.5q185 0 308 -69t181.5 -188.5t58.5 -274.5q0 -103 -26 -218q-45 -194 -155 -353.5t-283 -255t-394 -95.5q-185 0 -308 68.5t-182 188t-59 273.5zM372 514q0 -142 74.5 -225.5t235.5 -83.5q149 0 261 70.5 t183 188.5t105 265q21 89 21 169q0 143 -75 226.5t-237 83.5q-148 0 -259.5 -70.5t-182.5 -188.5t-105 -265q-21 -88 -21 -170zM883 1536l293 289h264l-373 -289h-184z" />
<glyph unicode="&#xd4;" horiz-adv-x="1528" d="M108 510q0 100 27 219q45 194 155 354t283 255.5t394 95.5q185 0 308 -69t181.5 -188.5t58.5 -274.5q0 -103 -26 -218q-45 -194 -155 -353.5t-283 -255t-394 -95.5q-185 0 -308 68.5t-182 188t-59 273.5zM372 514q0 -142 74.5 -225.5t235.5 -83.5q149 0 261 70.5 t183 188.5t105 265q21 89 21 169q0 143 -75 226.5t-237 83.5q-148 0 -259.5 -70.5t-182.5 -188.5t-105 -265q-21 -88 -21 -170zM678 1510l396 352l237 -352h-182l-94 145l-162 -145h-195z" />
<glyph unicode="&#xd5;" horiz-adv-x="1528" d="M108 510q0 100 27 219q45 194 155 354t283 255.5t394 95.5q185 0 308 -69t181.5 -188.5t58.5 -274.5q0 -103 -26 -218q-45 -194 -155 -353.5t-283 -255t-394 -95.5q-185 0 -308 68.5t-182 188t-59 273.5zM372 514q0 -142 74.5 -225.5t235.5 -83.5q149 0 261 70.5 t183 188.5t105 265q21 89 21 169q0 143 -75 226.5t-237 83.5q-148 0 -259.5 -70.5t-182.5 -188.5t-105 -265q-21 -88 -21 -170zM666 1524q30 142 98 214t164 72q42 0 70 -13.5t44 -32.5t33 -47q15 -25 26.5 -36.5t27.5 -11.5q32 0 62.5 38t45.5 97h162q-32 -143 -99 -215 t-161 -72q-46 0 -76 14t-45.5 33t-31.5 48q-14 26 -25 37.5t-29 11.5q-35 0 -66 -39t-46 -98h-154z" />
<glyph unicode="&#xd6;" horiz-adv-x="1528" d="M108 510q0 100 27 219q45 194 155 354t283 255.5t394 95.5q185 0 308 -69t181.5 -188.5t58.5 -274.5q0 -103 -26 -218q-45 -194 -155 -353.5t-283 -255t-394 -95.5q-185 0 -308 68.5t-182 188t-59 273.5zM372 514q0 -142 74.5 -225.5t235.5 -83.5q149 0 261 70.5 t183 188.5t105 265q21 89 21 169q0 143 -75 226.5t-237 83.5q-148 0 -259.5 -70.5t-182.5 -188.5t-105 -265q-21 -88 -21 -170zM739 1600l51 225h205l-51 -225h-205zM1093 1600l52 225h204l-51 -225h-205z" />
<glyph unicode="&#xd7;" horiz-adv-x="1090" d="M92 301l322 324l-301 301l131 131l301 -301l323 321l129 -129l-321 -323l301 -301l-131 -131l-301 301l-324 -322z" />
<glyph unicode="&#xd8;" horiz-adv-x="1528" d="M108 510q0 107 27 219q45 194 155 354t283 255.5t394 95.5q179 0 304 -67l38 46h186l-111 -132q66 -71 98.5 -167.5t32.5 -212.5q0 -102 -26 -217q-45 -194 -155 -353.5t-283 -255t-394 -95.5q-178 0 -304 66l-39 -46h-189l113 134q-65 70 -97.5 166.5t-32.5 209.5z M372 515q0 -106 38 -175l699 834q-68 34 -169 34q-148 0 -259.5 -70.5t-182.5 -188.5t-105 -265q-21 -88 -21 -169zM514 239q68 -34 168 -34q149 0 261 70.5t183 188.5t105 265q21 89 21 170q0 105 -39 176z" />
<glyph unicode="&#xd9;" horiz-adv-x="1380" d="M140 370q0 89 24 191l196 852h254l-194 -844q-23 -97 -23 -164q0 -92 50.5 -136t166.5 -44q114 0 189.5 42.5t121 122.5t72.5 200l191 823h254l-199 -862q-64 -276 -226 -423.5t-433 -147.5q-225 0 -334.5 102.5t-109.5 287.5zM622 1825h236l153 -309h-153z" />
<glyph unicode="&#xda;" horiz-adv-x="1380" d="M140 370q0 89 24 191l196 852h254l-194 -844q-23 -97 -23 -164q0 -92 50.5 -136t166.5 -44q114 0 189.5 42.5t121 122.5t72.5 200l191 823h254l-199 -862q-64 -276 -226 -423.5t-433 -147.5q-225 0 -334.5 102.5t-109.5 287.5zM805 1536l293 289h264l-373 -289h-184z" />
<glyph unicode="&#xdb;" horiz-adv-x="1380" d="M140 370q0 89 24 191l196 852h254l-194 -844q-23 -97 -23 -164q0 -92 50.5 -136t166.5 -44q114 0 189.5 42.5t121 122.5t72.5 200l191 823h254l-199 -862q-64 -276 -226 -423.5t-433 -147.5q-225 0 -334.5 102.5t-109.5 287.5zM600 1510l396 352l237 -352h-182l-94 145 l-162 -145h-195z" />
<glyph unicode="&#xdc;" horiz-adv-x="1380" d="M140 370q0 89 24 191l196 852h254l-194 -844q-23 -97 -23 -164q0 -92 50.5 -136t166.5 -44q114 0 189.5 42.5t121 122.5t72.5 200l191 823h254l-199 -862q-64 -276 -226 -423.5t-433 -147.5q-225 0 -334.5 102.5t-109.5 287.5zM661 1600l51 225h205l-51 -225h-205z M1015 1600l52 225h204l-51 -225h-205z" />
<glyph unicode="&#xdd;" horiz-adv-x="1395" d="M209 1413h295l254 -635l551 635h303l-772 -862l-129 -551h-254l129 551zM817 1536l293 289h264l-373 -289h-184z" />
<glyph unicode="&#xde;" horiz-adv-x="1147" d="M68 0l325 1413h232l-45 -194h249q176 0 267.5 -80.5t91.5 -222.5q0 -54 -14 -119q-46 -198 -200 -299t-376 -101h-209l-90 -397h-231zM438 608h195q131 0 211 57.5t106 168.5q6 27 6 51q0 67 -52 101t-163 34h-206z" />
<glyph unicode="&#xdf;" horiz-adv-x="1186" d="M33 0l237 1030q30 127 108.5 218.5t185.5 138.5t220 47q101 0 186.5 -38.5t136.5 -109t51 -164.5q0 -38 -9 -80q-14 -62 -46.5 -104.5t-69 -68.5t-89.5 -54q-48 -26 -71.5 -43.5t-28.5 -42.5q-5 -20 11 -38t56 -49q47 -37 79 -69.5t55.5 -81t23.5 -111.5q0 -40 -10 -81 q-21 -92 -85 -164.5t-156.5 -112.5t-194.5 -40q-94 0 -203 41l121 198q42 -18 100 -18q68 0 119 40t63 99q3 14 3 25q0 35 -20.5 64.5t-64.5 75.5q-37 37 -60.5 66t-40 66.5t-16.5 83.5q0 30 7 61q11 45 34.5 77.5t51 53t72.5 47.5q40 24 63.5 41.5t42.5 42t27 58.5 q2 7 2 22q0 42 -35.5 70.5t-112.5 28.5q-105 0 -176 -59.5t-94 -155.5l-232 -1010h-241z" />
<glyph unicode="&#xe0;" horiz-adv-x="1171" d="M48 357q0 77 20 165q31 135 106 248.5t184.5 181.5t239.5 68q86 0 157 -33t107 -96l29 108h248l-230 -999h-227l13 100q-63 -64 -141.5 -92t-164.5 -28q-112 0 -188.5 48.5t-114.5 133.5t-38 195zM295 381q0 -82 44 -129t134 -47q127 0 211.5 87t116.5 230q13 57 13 100 q0 83 -43.5 130t-133.5 47q-84 0 -152 -42.5t-113 -115.5t-65 -164q-12 -51 -12 -96zM425 1413h236l153 -309h-153z" />
<glyph unicode="&#xe1;" horiz-adv-x="1171" d="M48 357q0 77 20 165q31 135 106 248.5t184.5 181.5t239.5 68q86 0 157 -33t107 -96l29 108h248l-230 -999h-227l13 100q-63 -64 -141.5 -92t-164.5 -28q-112 0 -188.5 48.5t-114.5 133.5t-38 195zM295 381q0 -82 44 -129t134 -47q127 0 211.5 87t116.5 230q13 57 13 100 q0 83 -43.5 130t-133.5 47q-84 0 -152 -42.5t-113 -115.5t-65 -164q-12 -51 -12 -96zM608 1124l293 289h264l-373 -289h-184z" />
<glyph unicode="&#xe2;" horiz-adv-x="1171" d="M48 357q0 77 20 165q31 135 106 248.5t184.5 181.5t239.5 68q86 0 157 -33t107 -96l29 108h248l-230 -999h-227l13 100q-63 -64 -141.5 -92t-164.5 -28q-112 0 -188.5 48.5t-114.5 133.5t-38 195zM295 381q0 -82 44 -129t134 -47q127 0 211.5 87t116.5 230q13 57 13 100 q0 83 -43.5 130t-133.5 47q-84 0 -152 -42.5t-113 -115.5t-65 -164q-12 -51 -12 -96zM403 1098l396 352l237 -352h-182l-94 145l-162 -145h-195z" />
<glyph unicode="&#xe3;" horiz-adv-x="1171" d="M48 357q0 77 20 165q31 135 106 248.5t184.5 181.5t239.5 68q86 0 157 -33t107 -96l29 108h248l-230 -999h-227l13 100q-63 -64 -141.5 -92t-164.5 -28q-112 0 -188.5 48.5t-114.5 133.5t-38 195zM295 381q0 -82 44 -129t134 -47q127 0 211.5 87t116.5 230q13 57 13 100 q0 83 -43.5 130t-133.5 47q-84 0 -152 -42.5t-113 -115.5t-65 -164q-12 -51 -12 -96zM391 1112q30 142 98 214t164 72q42 0 70 -13.5t44 -32.5t33 -47q15 -25 26.5 -36.5t27.5 -11.5q32 0 62.5 38t45.5 97h162q-32 -143 -99 -215t-161 -72q-46 0 -76 14t-45.5 33t-31.5 48 q-14 26 -25 37.5t-29 11.5q-35 0 -66 -39t-46 -98h-154z" />
<glyph unicode="&#xe4;" horiz-adv-x="1171" d="M48 357q0 77 20 165q31 135 106 248.5t184.5 181.5t239.5 68q86 0 157 -33t107 -96l29 108h248l-230 -999h-227l13 100q-63 -64 -141.5 -92t-164.5 -28q-112 0 -188.5 48.5t-114.5 133.5t-38 195zM295 381q0 -82 44 -129t134 -47q127 0 211.5 87t116.5 230q13 57 13 100 q0 83 -43.5 130t-133.5 47q-84 0 -152 -42.5t-113 -115.5t-65 -164q-12 -51 -12 -96zM464 1188l51 225h205l-51 -225h-205zM818 1188l52 225h204l-51 -225h-205z" />
<glyph unicode="&#xe5;" horiz-adv-x="1171" d="M48 357q0 77 20 165q31 135 106 248.5t184.5 181.5t239.5 68q86 0 157 -33t107 -96l29 108h248l-230 -999h-227l13 100q-63 -64 -141.5 -92t-164.5 -28q-112 0 -188.5 48.5t-114.5 133.5t-38 195zM295 381q0 -82 44 -129t134 -47q127 0 211.5 87t116.5 230q13 57 13 100 q0 83 -43.5 130t-133.5 47q-84 0 -152 -42.5t-113 -115.5t-65 -164q-12 -51 -12 -96zM536 1263q0 28 8 60q14 57 53.5 104.5t95 75t114.5 27.5q57 0 101.5 -25.5t69.5 -70t25 -97.5q0 -27 -8 -59q-15 -59 -55 -106.5t-95 -75t-114 -27.5q-58 0 -102 26t-68.5 70t-24.5 98z M669 1280q0 -39 21.5 -59.5t58.5 -20.5q36 0 63.5 19t42.5 48.5t15 59.5q0 37 -22 57.5t-60 20.5q-55 0 -87 -37.5t-32 -87.5z" />
<glyph unicode="&#xe6;" horiz-adv-x="1677" d="M-7 239q0 37 9 76q35 150 153.5 214t305.5 67h278q11 52 11 86q0 68 -39.5 97.5t-128.5 29.5q-77 0 -150 -40.5t-125 -96.5l-147 143q99 103 208.5 152t243.5 49q112 0 189.5 -45t111.5 -119q162 160 359 160q191 0 277 -100t86 -259q0 -83 -23 -180q-11 -41 -23 -53 h-690q-1 -10 -1 -29q0 -176 187 -176q86 0 150.5 23t126.5 77l143 -163q-106 -90 -212.5 -127t-231.5 -37q-128 0 -206.5 44.5t-111.5 119.5q-191 -172 -450 -172q-85 0 -153.5 31.5t-107.5 90.5t-39 137zM219 252q0 -36 35 -54t98 -18q73 0 144.5 36.5t125.5 92.5t76 111 h-252q-57 -1 -104.5 -21t-79 -53.5t-41.5 -73.5q-2 -14 -2 -20zM944 596h461q2 28 2 40q0 88 -42 129.5t-134 41.5q-101 0 -174.5 -59.5t-112.5 -151.5z" />
<glyph unicode="&#xe7;" horiz-adv-x="1004" d="M43 372q0 73 18 148q31 131 110 244t200.5 182.5t273.5 69.5q100 0 178 -37.5t127.5 -105.5t67.5 -158l-244 -70q-3 70 -44 105.5t-112 35.5q-84 0 -149.5 -42.5t-108 -113t-61.5 -155.5q-12 -49 -12 -94q0 -78 41.5 -125t130.5 -47q77 0 144 45t104 117l202 -105 q-73 -127 -184.5 -200t-243.5 -84l-92 -84q75 -10 114.5 -53t39.5 -109q0 -27 -6 -55q-13 -57 -52 -103.5t-95 -73t-117 -26.5q-66 0 -115 40t-62 99l142 37q5 -37 47 -37q41 0 73.5 28.5t43.5 71.5q2 10 2 14q0 33 -37 53.5t-101 20.5h-77l151 183q-148 27 -222.5 131 t-74.5 253z" />
<glyph unicode="&#xe8;" horiz-adv-x="1067" d="M42 374q0 68 17 142q30 130 108.5 243.5t200.5 183t273 69.5q202 0 293 -99t91 -259q0 -85 -24 -181q-10 -39 -20 -63h-690q-2 -22 -2 -31q0 -80 46 -122t140 -42q87 0 151 23t128 77l141 -163q-104 -89 -211.5 -126.5t-232.5 -37.5q-136 0 -228 50.5t-136.5 137.5 t-44.5 198zM334 586h459q3 29 3 52q0 88 -41.5 128.5t-133.5 40.5q-101 0 -174 -61.5t-113 -159.5zM366 1413h236l153 -309h-153z" />
<glyph unicode="&#xe9;" horiz-adv-x="1067" d="M42 374q0 68 17 142q30 130 108.5 243.5t200.5 183t273 69.5q202 0 293 -99t91 -259q0 -85 -24 -181q-10 -39 -20 -63h-690q-2 -22 -2 -31q0 -80 46 -122t140 -42q87 0 151 23t128 77l141 -163q-104 -89 -211.5 -126.5t-232.5 -37.5q-136 0 -228 50.5t-136.5 137.5 t-44.5 198zM334 586h459q3 29 3 52q0 88 -41.5 128.5t-133.5 40.5q-101 0 -174 -61.5t-113 -159.5zM549 1124l293 289h264l-373 -289h-184z" />
<glyph unicode="&#xea;" horiz-adv-x="1067" d="M42 374q0 68 17 142q30 130 108.5 243.5t200.5 183t273 69.5q202 0 293 -99t91 -259q0 -85 -24 -181q-10 -39 -20 -63h-690q-2 -22 -2 -31q0 -80 46 -122t140 -42q87 0 151 23t128 77l141 -163q-104 -89 -211.5 -126.5t-232.5 -37.5q-136 0 -228 50.5t-136.5 137.5 t-44.5 198zM334 586h459q3 29 3 52q0 88 -41.5 128.5t-133.5 40.5q-101 0 -174 -61.5t-113 -159.5zM344 1098l396 352l237 -352h-182l-94 145l-162 -145h-195z" />
<glyph unicode="&#xeb;" horiz-adv-x="1067" d="M42 374q0 68 17 142q30 130 108.5 243.5t200.5 183t273 69.5q202 0 293 -99t91 -259q0 -85 -24 -181q-10 -39 -20 -63h-690q-2 -22 -2 -31q0 -80 46 -122t140 -42q87 0 151 23t128 77l141 -163q-104 -89 -211.5 -126.5t-232.5 -37.5q-136 0 -228 50.5t-136.5 137.5 t-44.5 198zM334 586h459q3 29 3 52q0 88 -41.5 128.5t-133.5 40.5q-101 0 -174 -61.5t-113 -159.5zM405 1188l51 225h205l-51 -225h-205zM759 1188l52 225h204l-51 -225h-205z" />
<glyph unicode="&#xec;" horiz-adv-x="516" d="M31 0l229 999h225l-229 -999h-225zM98 1413h236l153 -309h-153z" />
<glyph unicode="&#xed;" horiz-adv-x="516" d="M31 0l229 999h225l-229 -999h-225zM281 1124l293 289h264l-373 -289h-184z" />
<glyph unicode="&#xee;" horiz-adv-x="516" d="M31 0l229 999h225l-229 -999h-225zM76 1098l396 352l237 -352h-182l-94 145l-162 -145h-195z" />
<glyph unicode="&#xef;" horiz-adv-x="516" d="M31 0l229 999h225l-229 -999h-225zM137 1188l51 225h205l-51 -225h-205zM491 1188l52 225h204l-51 -225h-205z" />
<glyph unicode="&#xf0;" horiz-adv-x="1178" d="M46 395q0 68 17 144q31 134 113 243.5t204 173.5t267 64q89 0 150 -25.5t109 -74.5q-6 112 -61 188t-145 127l-110 -121l-92 66l96 105q-36 14 -123 44l143 182q67 -27 132 -62l94 103l94 -61l-91 -100q148 -103 221.5 -240.5t73.5 -322.5q0 -128 -36 -283 q-41 -179 -127.5 -304.5t-212.5 -191t-283 -65.5q-144 0 -241 53.5t-144.5 146.5t-47.5 211zM289 410q0 -90 51.5 -145.5t153.5 -55.5q91 0 165.5 45t125 121t71.5 166q10 47 10 81q0 91 -52 146t-152 55q-91 0 -166 -45t-125.5 -120t-71.5 -164q-10 -41 -10 -84z" />
<glyph unicode="&#xf1;" horiz-adv-x="1167" d="M31 0l229 999h248l-29 -108q71 68 150.5 96.5t158.5 28.5q152 0 225 -84t73 -216q0 -63 -15 -126l-135 -590h-248l133 580q14 58 14 101q0 52 -26 79.5t-86 27.5q-68 0 -137.5 -36.5t-120 -94.5t-64.5 -120l-122 -537h-248zM393 1112q30 142 98 214t164 72q42 0 70 -13.5 t44 -32.5t33 -47q15 -25 26.5 -36.5t27.5 -11.5q32 0 62.5 38t45.5 97h162q-32 -143 -99 -215t-161 -72q-46 0 -76 14t-45.5 33t-31.5 48q-14 26 -25 37.5t-29 11.5q-35 0 -66 -39t-46 -98h-154z" />
<glyph unicode="&#xf2;" horiz-adv-x="1128" d="M39 385q0 59 16 133q32 135 120.5 248t217 179.5t275.5 66.5q130 0 224.5 -52t143.5 -144t49 -208q0 -67 -16 -135q-32 -135 -120 -248t-216.5 -179t-275.5 -66q-130 0 -224.5 52t-144 144t-49.5 209zM287 377q0 -86 46.5 -136.5t145.5 -50.5q92 0 162.5 44t116.5 118 t67 166q12 50 12 96q0 86 -46.5 136.5t-145.5 50.5q-91 0 -162 -44t-117 -118t-67 -166q-12 -49 -12 -96zM403 1413h236l153 -309h-153z" />
<glyph unicode="&#xf3;" horiz-adv-x="1128" d="M39 385q0 59 16 133q32 135 120.5 248t217 179.5t275.5 66.5q130 0 224.5 -52t143.5 -144t49 -208q0 -67 -16 -135q-32 -135 -120 -248t-216.5 -179t-275.5 -66q-130 0 -224.5 52t-144 144t-49.5 209zM287 377q0 -86 46.5 -136.5t145.5 -50.5q92 0 162.5 44t116.5 118 t67 166q12 50 12 96q0 86 -46.5 136.5t-145.5 50.5q-91 0 -162 -44t-117 -118t-67 -166q-12 -49 -12 -96zM586 1124l293 289h264l-373 -289h-184z" />
<glyph unicode="&#xf4;" horiz-adv-x="1128" d="M39 385q0 59 16 133q32 135 120.5 248t217 179.5t275.5 66.5q130 0 224.5 -52t143.5 -144t49 -208q0 -67 -16 -135q-32 -135 -120 -248t-216.5 -179t-275.5 -66q-130 0 -224.5 52t-144 144t-49.5 209zM287 377q0 -86 46.5 -136.5t145.5 -50.5q92 0 162.5 44t116.5 118 t67 166q12 50 12 96q0 86 -46.5 136.5t-145.5 50.5q-91 0 -162 -44t-117 -118t-67 -166q-12 -49 -12 -96zM381 1098l396 352l237 -352h-182l-94 145l-162 -145h-195z" />
<glyph unicode="&#xf5;" horiz-adv-x="1128" d="M39 385q0 59 16 133q32 135 120.5 248t217 179.5t275.5 66.5q130 0 224.5 -52t143.5 -144t49 -208q0 -67 -16 -135q-32 -135 -120 -248t-216.5 -179t-275.5 -66q-130 0 -224.5 52t-144 144t-49.5 209zM287 377q0 -86 46.5 -136.5t145.5 -50.5q92 0 162.5 44t116.5 118 t67 166q12 50 12 96q0 86 -46.5 136.5t-145.5 50.5q-91 0 -162 -44t-117 -118t-67 -166q-12 -49 -12 -96zM369 1112q30 142 98 214t164 72q42 0 70 -13.5t44 -32.5t33 -47q15 -25 26.5 -36.5t27.5 -11.5q32 0 62.5 38t45.5 97h162q-32 -143 -99 -215t-161 -72q-46 0 -76 14 t-45.5 33t-31.5 48q-14 26 -25 37.5t-29 11.5q-35 0 -66 -39t-46 -98h-154z" />
<glyph unicode="&#xf6;" horiz-adv-x="1128" d="M39 385q0 59 16 133q32 135 120.5 248t217 179.5t275.5 66.5q130 0 224.5 -52t143.5 -144t49 -208q0 -67 -16 -135q-32 -135 -120 -248t-216.5 -179t-275.5 -66q-130 0 -224.5 52t-144 144t-49.5 209zM287 377q0 -86 46.5 -136.5t145.5 -50.5q92 0 162.5 44t116.5 118 t67 166q12 50 12 96q0 86 -46.5 136.5t-145.5 50.5q-91 0 -162 -44t-117 -118t-67 -166q-12 -49 -12 -96zM442 1188l51 225h205l-51 -225h-205zM796 1188l52 225h204l-51 -225h-205z" />
<glyph unicode="&#xf7;" horiz-adv-x="1266" d="M84 537v184h1098v-184h-1098zM500 143v265h266v-265h-266zM500 834v264h266v-264h-266z" />
<glyph unicode="&#xf8;" horiz-adv-x="1128" d="M40 385q0 64 15 133q32 135 120.5 248t217 179.5t275.5 66.5q124 0 217 -48l30 35h132l-79 -94q57 -54 87 -130.5t30 -166.5q0 -67 -16 -135q-32 -135 -120 -248t-216.5 -179t-275.5 -66q-126 0 -220 50l-26 -31h-134l77 91q-56 55 -85 130t-29 165zM287 377 q0 -60 22 -101l427 510q-37 15 -91 15q-91 0 -162 -44t-117 -118t-67 -166q-12 -49 -12 -96zM385 207q39 -17 94 -17q92 0 162.5 44t116.5 118t67 166q12 50 12 95q0 64 -24 106z" />
<glyph unicode="&#xf9;" horiz-adv-x="1167" d="M81 290q0 66 15 132l133 577h248l-135 -585q-13 -57 -13 -94q0 -55 30.5 -83t103.5 -28q106 0 191 69.5t124 239.5l111 481h248l-230 -999h-241l22 109q-67 -68 -148 -100t-163 -32q-151 0 -223.5 88t-72.5 225zM415 1413h236l153 -309h-153z" />
<glyph unicode="&#xfa;" horiz-adv-x="1167" d="M81 290q0 66 15 132l133 577h248l-135 -585q-13 -57 -13 -94q0 -55 30.5 -83t103.5 -28q106 0 191 69.5t124 239.5l111 481h248l-230 -999h-241l22 109q-67 -68 -148 -100t-163 -32q-151 0 -223.5 88t-72.5 225zM598 1124l293 289h264l-373 -289h-184z" />
<glyph unicode="&#xfb;" horiz-adv-x="1167" d="M81 290q0 66 15 132l133 577h248l-135 -585q-13 -57 -13 -94q0 -55 30.5 -83t103.5 -28q106 0 191 69.5t124 239.5l111 481h248l-230 -999h-241l22 109q-67 -68 -148 -100t-163 -32q-151 0 -223.5 88t-72.5 225zM393 1098l396 352l237 -352h-182l-94 145l-162 -145h-195z " />
<glyph unicode="&#xfc;" horiz-adv-x="1167" d="M81 290q0 66 15 132l133 577h248l-135 -585q-13 -57 -13 -94q0 -55 30.5 -83t103.5 -28q106 0 191 69.5t124 239.5l111 481h248l-230 -999h-241l22 109q-67 -68 -148 -100t-163 -32q-151 0 -223.5 88t-72.5 225zM454 1188l51 225h205l-51 -225h-205zM808 1188l52 225h204 l-51 -225h-205z" />
<glyph unicode="&#xfd;" horiz-adv-x="1032" d="M-16 -430l292 457l-165 972h264l90 -694l418 694h272l-901 -1429h-270zM539 1124l293 289h264l-373 -289h-184z" />
<glyph unicode="&#xfe;" horiz-adv-x="1155" d="M-70 -438l428 1851h232l-117 -487q121 94 289 94q113 0 190.5 -48.5t116 -133.5t38.5 -195q0 -77 -20 -166q-32 -136 -107 -249.5t-186 -180.5t-245 -67q-86 0 -152 30t-108 80l-127 -528h-232zM345 377q0 -87 46 -137t139 -50q128 0 216.5 92t123.5 240q13 51 13 100 q0 86 -46 135.5t-139 49.5q-85 0 -154.5 -42.5t-116.5 -117.5t-69 -170q-13 -58 -13 -100z" />
<glyph unicode="&#xff;" horiz-adv-x="1032" d="M-16 -430l292 457l-165 972h264l90 -694l418 694h272l-901 -1429h-270zM395 1188l51 225h205l-51 -225h-205zM749 1188l52 225h204l-51 -225h-205z" />
<glyph unicode="&#x152;" horiz-adv-x="2255" d="M108 510q0 100 27 219q45 194 155 354t283 255.5t394 95.5q143 0 242 -47.5t153 -129.5l41 156h940l-53 -233h-686l-84 -357h639l-54 -233h-639l-80 -350h687l-56 -240h-940l37 139q-93 -80 -205.5 -119.5t-251.5 -39.5q-185 0 -308 68.5t-182 188t-59 273.5zM359 529 q0 -143 79.5 -226.5t247.5 -83.5q149 0 263.5 67.5t188.5 183t107 259.5q19 79 19 154q0 143 -79.5 227t-246.5 84q-150 0 -264.5 -67.5t-188 -182.5t-106.5 -260q-20 -83 -20 -155z" />
<glyph unicode="&#x153;" horiz-adv-x="1829" d="M39 385q0 59 16 133q31 135 119 248t216.5 179.5t277.5 66.5q117 0 203 -47.5t135 -122.5q84 86 179.5 128t207.5 42q130 0 215 -50.5t125.5 -137t40.5 -197.5q0 -72 -17 -152q-8 -39 -22 -67h-688q-1 -7 -1 -20q0 -78 50 -120.5t145 -42.5q83 0 151.5 28.5t137.5 86.5 l147 -172q-212 -180 -463 -180q-125 0 -215 46.5t-133 119.5q-177 -174 -409 -174q-131 0 -225.5 52.5t-143.5 144t-49 208.5zM285 365q0 -84 45.5 -131.5t140.5 -47.5q137 0 225 92t123 240q14 59 14 106q0 84 -45.5 131.5t-140.5 47.5q-137 0 -225 -92t-123 -240 q-14 -59 -14 -106zM1092 586h448q1 13 1 37q0 93 -40 134.5t-131 41.5q-97 0 -168.5 -60t-109.5 -153z" />
<glyph unicode="&#x178;" horiz-adv-x="1395" d="M209 1413h295l254 -635l551 635h303l-772 -862l-129 -551h-254l129 551zM673 1600l51 225h205l-51 -225h-205zM1027 1600l52 225h204l-51 -225h-205z" />
<glyph unicode="&#x2c6;" horiz-adv-x="653" d="M145 1098l396 352l237 -352h-182l-94 145l-162 -145h-195z" />
<glyph unicode="&#x2dc;" horiz-adv-x="1004" d="M340 1133q30 142 98 214t164 72q42 0 70 -13.5t44 -32.5t33 -47q15 -25 26.5 -36.5t27.5 -11.5q32 0 62.5 38t45.5 97h162q-32 -143 -99 -215t-161 -72q-46 0 -76 14t-45.5 33t-31.5 48q-14 26 -25 37.5t-29 11.5q-35 0 -66 -39t-46 -98h-154z" />
<glyph unicode="&#x2000;" horiz-adv-x="931" />
<glyph unicode="&#x2001;" horiz-adv-x="1862" />
<glyph unicode="&#x2002;" horiz-adv-x="931" />
<glyph unicode="&#x2003;" horiz-adv-x="1862" />
<glyph unicode="&#x2004;" horiz-adv-x="620" />
<glyph unicode="&#x2005;" horiz-adv-x="465" />
<glyph unicode="&#x2006;" horiz-adv-x="310" />
<glyph unicode="&#x2007;" horiz-adv-x="310" />
<glyph unicode="&#x2008;" horiz-adv-x="232" />
<glyph unicode="&#x2009;" horiz-adv-x="372" />
<glyph unicode="&#x200a;" horiz-adv-x="103" />
<glyph unicode="&#x2010;" horiz-adv-x="866" d="M150 532l40 185h584l-41 -185h-583z" />
<glyph unicode="&#x2011;" horiz-adv-x="866" d="M150 532l40 185h584l-41 -185h-583z" />
<glyph unicode="&#x2012;" horiz-adv-x="866" d="M150 532l40 185h584l-41 -185h-583z" />
<glyph unicode="&#x2013;" horiz-adv-x="1051" d="M143 508l43 184h768l-43 -184h-768z" />
<glyph unicode="&#x2014;" horiz-adv-x="1706" d="M143 508l43 184h1424l-43 -184h-1424z" />
<glyph unicode="&#x2018;" horiz-adv-x="573" d="M268 1413h273l8 -557h-158z" />
<glyph unicode="&#x2019;" horiz-adv-x="573" d="M184 856l267 557h280l-381 -557h-166z" />
<glyph unicode="&#x201a;" horiz-adv-x="553" d="M-61 -225l245 489h258l-360 -489h-143z" />
<glyph unicode="&#x201c;" horiz-adv-x="963" d="M268 1413h273l8 -557h-158zM657 1413h273l8 -557h-158z" />
<glyph unicode="&#x201d;" horiz-adv-x="963" d="M184 856l267 557h280l-381 -557h-166zM573 856l267 557h280l-381 -557h-166z" />
<glyph unicode="&#x201e;" horiz-adv-x="897" d="M-61 -225l245 489h258l-360 -489h-143zM287 -225l245 489h259l-361 -489h-143z" />
<glyph unicode="&#x2022;" horiz-adv-x="758" d="M134 445q0 31 7 59q14 59 56 108t100 78t119 29q58 0 103 -26t69.5 -71t24.5 -102q0 -32 -7 -61q-13 -58 -54.5 -107.5t-99.5 -78.5t-120 -29q-58 0 -103 26t-70 72t-25 103z" />
<glyph unicode="&#x2026;" horiz-adv-x="1475" d="M86 0l59 264h246l-59 -264h-246zM500 0l59 264h246l-60 -264h-245zM913 0l60 264h246l-60 -264h-246z" />
<glyph unicode="&#x202f;" horiz-adv-x="372" />
<glyph unicode="&#x2039;" horiz-adv-x="592" d="M18 510l508 356l-45 -211l-215 -145l146 -143l-45 -211z" />
<glyph unicode="&#x203a;" horiz-adv-x="594" d="M68 156l45 211l215 143l-144 145l43 211l348 -356z" />
<glyph unicode="&#x205f;" horiz-adv-x="465" />
<glyph unicode="&#x20ac;" horiz-adv-x="1245" d="M63 453l119 180l76 10q5 30 11 55q7 33 7 31q5 17 19 74l-154 -10l121 186l100 10q100 209 253 328t354 119q124 0 215 -56t141 -157l-174 -107q-52 101 -207 101q-119 0 -214 -67t-163 -181l533 10l-119 -182l-492 -11q-13 -42 -22 -86q-6 -21 -14 -69l569 10l-119 -180 l-461 -10q12 -125 71 -188.5t173 -63.5q154 0 268 120l119 -161q-91 -89 -195.5 -133.5t-215.5 -44.5q-143 0 -237 63t-138 172t-43 248z" />
<glyph unicode="&#x2122;" horiz-adv-x="1405" d="M311 1274l33 139h442l-32 -139h-146l-92 -397h-151l92 397h-146zM748 877l124 536h189v-315l147 315h191l-125 -536h-152l84 354l-123 -273h-96v304l-88 -385h-151z" />
<glyph unicode="&#x25fc;" horiz-adv-x="1000" d="M0 0v1000h1000v-1000h-1000z" />
<glyph unicode="&#xfb03;" horiz-adv-x="1778" d="M70 0l182 795h-164l47 204h164l20 82q26 111 99.5 191t176 121t214.5 41q87 0 166 -27t131 -76q78 56 168.5 79.5t173.5 23.5q183 0 346 -129l-160 -175q-22 22 -44 39t-62 30t-98 13q-69 0 -123.5 -21.5t-88 -57t-42.5 -76.5l-15 -58h594l-229 -999h-236l183 795h-359 l-182 -795h-246l182 795h-372l-183 -795h-243zM543 999h375l20 82q4 22 9 38.5t16 37.5q-31 28 -67 41.5t-95 13.5q-66 0 -118 -21.5t-84.5 -57t-41.5 -76.5z" />
<glyph unicode="&#xfb04;" horiz-adv-x="1812" d="M68 0l182 795h-162l47 204h164l25 103q39 172 171.5 252t311.5 80q84 0 158 -25.5t125 -73.5q80 55 173 77t203 22q132 0 216 -50.5t128 -115.5l-229 -1012q-3 -13 -3 -23q0 -23 12.5 -28.5t37.5 -5.5q26 0 68 8l-35 -209q-42 -8 -89 -13t-77 -5q-74 0 -122.5 36 t-48.5 118q0 33 9 75l230 967q-26 17 -59 26.5t-97 9.5q-83 0 -151.5 -38.5t-84.5 -106.5l-16 -68h176l-47 -204h-176l-182 -795h-246l182 795h-366l-183 -795h-245zM543 999l372 11l5 20q17 74 34 129q-4 2 -22.5 16.5t-56.5 25.5t-89 11q-97 0 -155.5 -43t-73.5 -108z" />
</font>
</defs>
</svg>
